<svg xmlns="http://www.w3.org/2000/svg" viewBox="0 0 268.29 726.23"><defs><style>.cls-1{fill:#fff;stroke:#fff;stroke-miterlimit:10;stroke-width:1.1px;}</style></defs><g id="Layer_2" data-name="Layer 2"><g id="Layer_1-2" data-name="Layer 1"><path class="cls-1" d="M139.9,725.63c-.44-4.44-.93-8.88-1.28-13.32-.53-6.61-.89-13.23-1.42-19.84-.66-8.07-3-15.76-5.62-23.36-2.28-6.62-4.79-13.17-7.15-19.76-4.08-11.43-5.13-23.32-5.27-35.33-.17-14,.81-27.9,1.85-41.82.31-4.09.86-8.16.93-12.25a11.45,11.45,0,0,0-1.36-5.52,85.37,85.37,0,0,0-5.36-7.88c-.87-1.21-2.38-1.09-3.62-1.36-3.47-.74-7-1.2-10.48-1.9a65.93,65.93,0,0,1-8.77-2.13,104.8,104.8,0,0,0-19.28-4.73,49.61,49.61,0,0,1-22.8-9.72,49.93,49.93,0,0,0-15.51-7.48c-4.64-1.41-9.26-2.87-13.94-4.15-1.85-.51-3.83-.55-5.73-.89-.56-.11-1.48-.5-1.51-.83a2.13,2.13,0,0,1,.79-1.69,18,18,0,0,1,4.29-1.76c7.71-1.71,15.59-2,23.43-2.62A139.4,139.4,0,0,1,69,508c5.76.64,10.86,3.07,15.78,5.92a78.27,78.27,0,0,1,16.91,13.69,155.61,155.61,0,0,1,17.92,21.44,1.33,1.33,0,0,0,.87.59c-.38-1.92-.84-3.83-1.14-5.76a68.6,68.6,0,0,0-5.52-17.69,48.16,48.16,0,0,0-3.68-7.62c-2.48-3.64-4.31-7.71-6.61-11.48a43.65,43.65,0,0,0-5.5-7.74A125.56,125.56,0,0,1,85.2,483.59c-3.76-5.42-8.64-9.72-13.48-14.1q-6.39-5.82-12.41-12a52,52,0,0,1-11.68-20.11c-1.24-3.73-2.49-7.46-3.66-11.22-2.39-7.67-6.69-14.32-11-21-1.68-2.57-3.33-5.17-4.88-7.82a9.31,9.31,0,0,1-1-3,1.43,1.43,0,0,1,.94-1.8,1.42,1.42,0,0,1,1.14.11A5.78,5.78,0,0,1,31.35,394c3.59,3.86,8,6.66,12.07,10a111.39,111.39,0,0,1,18.74,19.34c6.13,8.27,12.45,16.41,18.37,24.83a167.25,167.25,0,0,1,17.4,32.42q7.75,18.66,15.22,37.43c2.47,6.2,4.86,12.45,6.9,18.8,1.22,3.82,1.72,7.89,2.54,11.84a2.54,2.54,0,0,0,.55,1.24c.29-2.34.62-4.68.87-7,1.81-16.77,3.76-33.53,5.35-50.32a272.41,272.41,0,0,0,.4-44.89c-.87-12.38-1.89-24.73-3.78-37-1-6.65-2.35-13.26-3.48-19.9a2.54,2.54,0,0,0-1.71-2.09c-10.37-4.28-20.27-9.54-30.31-14.51A30,30,0,0,0,80.37,371c-8.18-.86-15.47-4.12-22.51-8.08a65.29,65.29,0,0,1-5.73-3.64,41.38,41.38,0,0,0-14.39-6.38c-2.41-.57-4.83-1.11-7.21-1.79a1.89,1.89,0,0,1-1.21-1.21c-.12-.91.73-1,1.46-1.09a34.13,34.13,0,0,0,3.65-.53c25.17-5.82,48-1.07,68.29,15.1A96.79,96.79,0,0,1,117,377.19a1.42,1.42,0,0,0,.9.51c-.2-.83-.36-1.66-.58-2.47-5.34-19.21-12-37.87-21.56-55.48-5-9.23-10.08-18.3-16.79-26.41-2.74-3.32-5.19-6.89-7.67-10.41a65.41,65.41,0,0,1-4.68-7.36c-1.21-2.32-3.18-2.85-5.33-2.8a63.34,63.34,0,0,0-9.32.87,53,53,0,0,0-7.09,2.12,2.83,2.83,0,0,0-1,.78,6.15,6.15,0,0,1-6.48,1.8c-.73-.18-1.44-.45-2.16-.67a10.09,10.09,0,0,0-5.58-.29c-1.83.45-3.7.76-5.5,1.3a14.38,14.38,0,0,1-11.7-1.32c-5.17-2.91-9.13-6.82-10.69-12.77a16.71,16.71,0,0,1,.85-10,9.2,9.2,0,0,1,.17-11.86,38.21,38.21,0,0,0,3.8-6,15.84,15.84,0,0,0,2-7.44A33.29,33.29,0,0,1,9,225.44,9.59,9.59,0,0,1,11.88,220c4-3.83,8.89-5.78,14.25-6.75a4.2,4.2,0,0,1,1.12,0,4,4,0,0,1,.68.16c1.42-1.34,2.74-2.52,4-3.79a2.48,2.48,0,0,0,.41-1.27,5,5,0,0,0-.12-.63c-.9-5.4,1.05-8.34,6.36-9.56a27.3,27.3,0,0,1,3.36-.53,22.59,22.59,0,0,0,9.39-2.69,5.76,5.76,0,0,1,7.5,1.24,18.48,18.48,0,0,1,3,4.53c2.54,5.23,5,10.53,7.34,15.83a33.58,33.58,0,0,1,1.55,4.42,12.46,12.46,0,0,1-.42,7.91,117.08,117.08,0,0,0-4,12.94,19,19,0,0,0-.21,6.88c.8,5.92,1.26,11.79-.47,17.62a1.88,1.88,0,0,0-.07,1.1,50.26,50.26,0,0,0,2.75,6.71c4.27,7.52,9.56,14.34,14.91,21.11a110.2,110.2,0,0,1,11.52,17.92c4.89,9.48,10.1,18.81,13.91,28.81,1.82,4.78,3.5,9.62,5.24,14.43a3.79,3.79,0,0,0,.71,1.31c-.39-1.64-.81-3.27-1.16-4.91-2.57-12.23-5.23-24.45-7.61-36.71a104,104,0,0,1-1.17-12.22c-1.06-14.92.94-29.54,3.84-44.15,3.56-17.91,6.65-35.92,10-53.89,1.56-8.48,3.27-16.93,4.67-25.44,1-5.73,1.44-11.54,2.22-17.3a1.65,1.65,0,0,0-1.11-2.05l-.12,0a19.88,19.88,0,0,0-3.4-.93,9.25,9.25,0,0,1-6.1-3,42,42,0,0,0-14.08-10.37,26.38,26.38,0,0,1-4.32-2.53,15.62,15.62,0,0,0-12.8-2.45c-5.74,1.18-11.43,2.7-17.12,4.14-4.47,1.14-8.49.59-12.09-2.55a62.47,62.47,0,0,0-12.66-8c-6.61-3.41-10.58-8.87-12.38-16a30.27,30.27,0,0,1,.25-14.1Q32.74,90,36.15,74.9C38,67,38.05,59.2,34.9,51.56c-.57-1.39-1-2.85-1.48-4.28A13.32,13.32,0,0,1,38.14,32.2a39.71,39.71,0,0,1,4.52-2.82A25.25,25.25,0,0,0,51.11,22c2-2.71,4-5.46,6.18-8.09,5.44-6.67,11.77-8.12,19.65-2.82,5.41,3.64,10.85,7.2,16.51,10.45,4.56,2.61,6.25,4.65,8.79,9.6a9.23,9.23,0,0,0,.56-.91,29.27,29.27,0,0,1,2-4.24,15.89,15.89,0,0,1,3.47-3.71c3-2.19,6.27-4,9.21-6.27a29.7,29.7,0,0,0,5.16-5.29,38.29,38.29,0,0,1,8.92-8.59,8,8,0,0,1,6.9-1.27A25.55,25.55,0,0,1,142,1.93c6.5,2.88,13.41,4,20.41,4.59a79.46,79.46,0,0,0,21-.64c1.75-.31,3.47-.76,5.21-1.14a20.06,20.06,0,0,1,9.91.48,14.18,14.18,0,0,1,9.23,7.56,87.94,87.94,0,0,1,4.24,10c2.27,6.57,4.46,13.17,6.34,19.86.71,2.51,1.49,4.5,3.77,6.08,2.43,1.68,3.61,4.49,4.57,7.46.41-.34.73-.59,1-.85,2.49-2.31,4.89-4.71,7.49-6.89a38,38,0,0,1,5.24-3.46c4-2.32,11.21-1.87,15,2.87a36.49,36.49,0,0,1,5.18,8.53,44.07,44.07,0,0,0,3.52,6.7c2.64,4,3.39,8.24,1.56,12.75-1.42,3.49-2.84,7-4.54,10.34A37.09,37.09,0,0,0,257,103c0,3.55-.26,7.11-.58,10.65A22.46,22.46,0,0,1,249.56,128a8.85,8.85,0,0,1-1.2.83,3.52,3.52,0,0,0,.11.62c2.86,1.16,5.7,2.37,8.58,3.47,1.21.47,2.5.67,3.73,1.09a20.55,20.55,0,0,1,3.23,1.39,6.55,6.55,0,0,1,3.08,8.74c-.06.13-.13.26-.2.38a37.87,37.87,0,0,1-8.2,10.73c-1.5,1.39-3.12,2.65-4.69,4a17.5,17.5,0,0,1-9.38,4,40.87,40.87,0,0,0-17,5.75c-3.24,2-6.71,3.68-10.11,5.41a19.71,19.71,0,0,1-11.5,1.64,12.9,12.9,0,0,1-3-1c-2.37-.87-4.69-1.93-7.11-2.62a14.67,14.67,0,0,0-12,1.73c-3.84,2.29-7.78,4.42-11.66,6.65a22.17,22.17,0,0,1-9.53,2.8,12.77,12.77,0,0,1-9.47-3c-1.59-1.29-3-2.81-4.52-4.15-3.48-3.05-7-6.06-10.52-9.06-.65-.56-1.54-.93-2-1.61-2.12-3-5.44-2.41-8.58-3-.15,1.69-.19,3.25-.43,4.77-1.46,9-2.85,18.09-4.46,27.11-3.6,20.16-7.33,40.29-11,60.44-1.55,8.54-3.43,17-4.4,25.64A138,138,0,0,0,110,327c4.2,18.5,8.57,37,12.87,55.43a319.09,319.09,0,0,1,6.62,38.2c1,8.89,1.59,17.82,2.36,26.73a1.21,1.21,0,0,0,.32.81c.18-1.68.32-3.38.55-5.06.58-4.32,1.07-8.66,1.82-13,3.07-17.82,6.23-35.63,9.36-53.44,2.14-12.24,2.08-24.57,1.68-36.92-.31-9.5-1.41-18.91-2.57-28.33a82.39,82.39,0,0,1,.86-24.63,46.18,46.18,0,0,1,10-21.45q6.42-7.82,12.85-15.6a67.38,67.38,0,0,1,12.67-11.71c8.93-6.42,17.77-13,26.65-19.43a20.86,20.86,0,0,1,3-1.91c.42-.21,1.37-.13,1.56.16a2.23,2.23,0,0,1,0,1.72,4.66,4.66,0,0,1-1,1.44,106.53,106.53,0,0,0-17.5,30.05c-2.76,7.07-5.12,14.3-7.51,21.51-4.45,13.45-8.41,27.07-13.64,40.26-2.16,5.45-4.57,10.81-7.06,16.12a85.51,85.51,0,0,0-5.8,17.61,35.91,35.91,0,0,1-2.5,7.13,34.76,34.76,0,0,0-3.21,10.72,20,20,0,0,1-1.2,4c-1.24,3.81-3.45,7.14-5.12,10.74a21.54,21.54,0,0,0-1.12,5q-2.94,16.11-5.82,32.26a1.5,1.5,0,0,0,.12,1c.24-.52.48-1,.71-1.57q3.42-8,6.83-15.89a114.1,114.1,0,0,1,22.46-33.36,128.1,128.1,0,0,0,10.38-12.18,53.34,53.34,0,0,0,6.51-11.3c5.41-13.22,14.72-22.87,26.58-30.4,6.86-4.34,13.89-8.3,21.87-10.2a41,41,0,0,1,6.23-.87,2.49,2.49,0,0,1,2,.94c.26.54-.12,1.48-.41,2.17a3.84,3.84,0,0,1-1.07,1.2c-9.53,9-17.28,19.57-24.08,30.71a184.37,184.37,0,0,0-11.1,22.07c-2.92,6.66-6.86,12.2-13.25,15.76a53.36,53.36,0,0,0-13.17,10.57A80.07,80.07,0,0,1,156,401.43c-2.82,1.4-5.17,3.75-8,5.16a8.85,8.85,0,0,0-4.39,5.12c-1.7,4.19-3.84,8.22-5.35,12.47a47.76,47.76,0,0,0-2.11,9.59c-.81,6.14-1.29,12.32-2,18.47-.28,2.33-.88,4.61-1.33,6.92a7.63,7.63,0,0,0-.23,1.57c.46,15.71-.76,31.34-2.49,46.94-2.06,18.58-4.21,37.16-6.17,55.75-.72,6.86-1.14,13.75-1.49,20.64-.46,9-.79,18.06-1,27.1a115.83,115.83,0,0,0,9,48.41A122.64,122.64,0,0,1,138,683.75a172.59,172.59,0,0,1,2.12,17.68c.55,6.44.77,12.91,1.16,19.36a12.67,12.67,0,0,0,.41,2.88,1.85,1.85,0,0,1-.51,2Zm-9.43-564.44.34-.72c-1.45-1.34-2.87-2.72-4.36-4a8.62,8.62,0,0,1-3-5,15.37,15.37,0,0,0-1.91-5c-2.11-3.33-4.56-6.42-8.28-8.19-1.35-.65-2.59-1.55-3.94-2.21a27.5,27.5,0,0,1-12.46-12.29c-3.75-7.23-7.63-14.36-12.75-20.76a13.52,13.52,0,0,1-2.6-10.71,29.69,29.69,0,0,1,7.87-16,44.07,44.07,0,0,0,5.8-7.52A26.37,26.37,0,0,1,103,60.33a5.52,5.52,0,0,0,1.23-1.23c.69-1,1.29-2,2-2.93a1.36,1.36,0,0,0,.18-1.73,18.67,18.67,0,0,1-1.87-4.24c-.73-2.75-1.15-5.59-1.82-8.36s-1.56-5.38-2.14-8.11a12.21,12.21,0,0,0-3.72-6.84,52.38,52.38,0,0,0-6-4.35c-1.76-1.14-3.7-2-5.46-3.15-3.32-2.19-6.46-4.69-9.88-6.71-6.85-4-11.59-3.22-16.28,2.45-2.13,2.57-4.11,5.27-6.1,7.95a28.08,28.08,0,0,1-9.5,8.37A33.6,33.6,0,0,0,39.52,34a11.18,11.18,0,0,0-4,12.64l2.39,7A30.7,30.7,0,0,1,39.6,67.06c-.41,3.42-1,6.83-1.69,10.2-1,4.75-2.21,9.44-3.2,14.19C33.35,97.93,31.63,104.39,31,111c-1,9.53,2.56,17.26,11.17,22.1,5.08,2.86,10.14,5.7,14.66,9.43a8.4,8.4,0,0,0,7.16,1.68c1.17-.21,2.31-.51,3.47-.79,5.39-1.29,10.75-2.79,16.19-3.83a17.34,17.34,0,0,1,13.73,2.76,27.63,27.63,0,0,0,4.45,2.62,42.89,42.89,0,0,1,14.46,10.67,8,8,0,0,0,4.66,2.35,48.64,48.64,0,0,1,5.18,1.63c1.44.5,2.93,1.07,4.39,1.62Zm-4.86-10.64a4.83,4.83,0,0,0,1.56,3.59c2.41,2.3,4.72,4.72,7.19,7,2.22,2,4.65,3.83,6.9,5.82,3.47,3.07,7,6.07,10.25,9.37,4.2,4.3,8.91,6.39,14.85,4.53a31.9,31.9,0,0,0,5.49-2.31c3.89-2.09,7.7-4.33,11.54-6.51a15.67,15.67,0,0,1,9.27-2.29,33.26,33.26,0,0,1,11.24,3.34,10.76,10.76,0,0,0,3.38.93,16.22,16.22,0,0,0,9.58-1.67c3.74-1.91,7.5-3.81,11.1-6a33.33,33.33,0,0,1,13.79-4.78,22,22,0,0,0,13.65-6.28c.54-.53,1.16-1,1.71-1.49a37.16,37.16,0,0,0,7.77-10.06,4.43,4.43,0,0,0-1.32-6.12,4.79,4.79,0,0,0-.78-.4,37.15,37.15,0,0,0-5.17-1.79c-6.39-2-12.46-4.6-17.41-9.24-3-2.84-5.87-5.85-8.86-8.73a27.63,27.63,0,0,0-4-3.3,8.57,8.57,0,0,0-10.2.63,13.31,13.31,0,0,1-7.22,3.33c-.86.11-1.71.26-2.56.41A32.57,32.57,0,0,0,192.2,125c-4.36,3.58-7.88,8.19-11.79,12.32a7.17,7.17,0,0,1-1.77,1.27c-1.2.65-2.71,1-3.62,1.88a19.94,19.94,0,0,1-7.5,4.9,19.87,19.87,0,0,0-3.43,1.77c-2,1.24-4,2.56-6,3.85A15.3,15.3,0,0,1,150,153.5c-3.33.11-6.67.13-10,.31a9.59,9.59,0,0,1-5.32-.92,13.86,13.86,0,0,0-3.24-.94c-1.86-.52-3.78-.92-5.83-1.4Zm18,.85v-.08h6.13a15.07,15.07,0,0,0,8-2.6,87.21,87.21,0,0,1,11.47-6.54c4.59-2,7-6.15,7.83-11a55.78,55.78,0,0,0,.36-7.08q.4-8.64.83-17.25a32,32,0,0,1,.33-3.38,14.2,14.2,0,0,0-5.2-14,30.44,30.44,0,0,1-9.6-15.58c-1-3.57-2.26-7.07-3.45-10.59-.72-2.09-1.54-2.56-3.69-1.95A25.32,25.32,0,0,0,152.25,63a38,38,0,0,0-16,15.53,53.09,53.09,0,0,0-4.83,11.23c-1.13,3.9-1.36,8.06-2,12.1s-1,7.91-1.85,11.78c-.76,3.46-2.08,6.79-3.08,10.2-2.66,9.1-1.19,17.37,5.15,24.58a3.32,3.32,0,0,0,1.5,1.14c3.91,1,7.7,2.83,11.92,1.83a2.24,2.24,0,0,1,.52,0Zm-17.82-3.66.38-.27c-.14-.22-.26-.46-.41-.66-5.23-7.23-5.74-15.2-3.3-23.43,2.3-7.76,4.62-15.45,5.14-23.61a51,51,0,0,1,2.28-12.53,45.68,45.68,0,0,1,14.61-21.7,8.24,8.24,0,0,1,.95-.57c-.07-.14-.15-.27-.23-.41-1.31-.43-2.65-.8-4-1.1a25.23,25.23,0,0,1-12.47-5.74,5.63,5.63,0,0,0-4.17-1.39,44.43,44.43,0,0,0-17.19,4,23.21,23.21,0,0,0-10.45,9.75,35.86,35.86,0,0,1-5.48,7.14,30,30,0,0,0-7.16,12.21,14.37,14.37,0,0,0,2.48,13.7,133.22,133.22,0,0,1,7.44,11.14c1.69,2.75,3,5.7,4.58,8.55a25.83,25.83,0,0,0,11.46,11.26c.82.4,1.6.88,2.42,1.3a25.06,25.06,0,0,1,10,8.76,29.89,29.89,0,0,0,3.14,3.6ZM178.63,40c1.43-.75,2.91-1.5,4.38-2.29a11.67,11.67,0,0,1,12.28.41c1.75,1,3.41,2.27,5.22,3.23a23,23,0,0,0,5.6,2.41c3.45.74,7,1,10.67,1.53-.17-.76-.27-1.44-.47-2.09-2.22-6.87-4.36-13.76-6.71-20.58a78.46,78.46,0,0,0-3.85-8.89,12.09,12.09,0,0,0-8.4-6.52A17.48,17.48,0,0,0,188.7,7a72.06,72.06,0,0,1-21.8,2c-8.76-.39-17.39-1.47-25.56-5a31.62,31.62,0,0,0-3.71-1.1,5.51,5.51,0,0,0-4.6.87,25.85,25.85,0,0,0-7.47,6.85,35.87,35.87,0,0,1-12.62,11.11c-4,2.16-7,5.1-8.19,9.65,0,.21-.16.4-.2.61-.4,2.26-1.16,4.49-.57,6.83s1.17,4.69,1.76,7c.1.37.22.74.37,1.29.63-1.37,1.09-2.57,1.7-3.69,1.49-2.75,3.07-5.44,4.55-8.19A11.55,11.55,0,0,1,122,28.8a62.89,62.89,0,0,1,9-.14,12.66,12.66,0,0,0,8.67-2.9c1.25-.94,2.45-2,3.71-2.87a8.22,8.22,0,0,1,6.7-1.58,19.77,19.77,0,0,1,7.13,2.9A218.88,218.88,0,0,1,178.6,40ZM148,355.92h.26c.13-.51.3-1,.4-1.55,1.51-7.93,3.35-15.83,4.43-23.82,1.14-8.45,2.77-16.69,6.35-24.45a55.23,55.23,0,0,0,4.48-16.79c.38-3.16,1.57-6.23,2.47-9.32.22-.75.73-1.67,1.74-1.23s.48,1.31.26,2.1c-.85,3-2,6.07-2.37,9.18A57.11,57.11,0,0,1,161.47,307a66.46,66.46,0,0,0-5.6,19.66,233.06,233.06,0,0,1-5.27,29.09c-.56,2.3-1,4.63-1.43,7-.26,1.38-.38,2.79-.56,4.18l.58.12a24,24,0,0,0,1.08-3.93A35.6,35.6,0,0,1,153.58,352a33.19,33.19,0,0,0,2.44-7,87.58,87.58,0,0,1,5.85-17.76c2.47-5.32,4.93-10.66,7.07-16.12,5.73-14.6,10.2-29.64,15-44.58,4.44-13.91,9.7-27.43,17.9-39.64.88-1.31,1.79-2.62,2.68-3.93a3.94,3.94,0,0,0-1.43.68l-23.68,17.2a57.68,57.68,0,0,0-10.47,9.82c-4.44,5.34-8.85,10.72-13.27,16.09a45,45,0,0,0-9.89,22.32,82.49,82.49,0,0,0-.37,23.69,279,279,0,0,1,2.64,35.6C148,350.87,148,353.43,148,355.92Zm98.17-227.83a20.62,20.62,0,0,0,8.11-14.51,54.77,54.77,0,0,0,.48-7.9,43.13,43.13,0,0,1,5.66-22.91,59.92,59.92,0,0,0,3.14-7.43,11.27,11.27,0,0,0-1.25-11c-1.45-2.25-2.49-4.76-3.79-7.11s-2.67-4.9-4.23-7.21A9.55,9.55,0,0,0,246,45.84a10.88,10.88,0,0,0-5.65,1.68,51.85,51.85,0,0,0-12.19,10.74A7.65,7.65,0,0,0,227,61.69c-.85,4.32-1.31,8.75-2.5,13a23.28,23.28,0,0,0-.18,13.18,34.16,34.16,0,0,1,1,13c-.32,3.28-1.14,6.52-1.76,9.93,3-.07,5.58,1.55,7.87,3.67,1.46,1.35,2.77,2.86,4.12,4.32a69.87,69.87,0,0,0,10.59,9.3ZM193,121.54a1.85,1.85,0,0,0,.47,0c.34-.16.68-.34,1-.52a40,40,0,0,1,14.43-4.93,12.19,12.19,0,0,0,7.25-3.24,8.33,8.33,0,0,1,2.87-1.72,3.44,3.44,0,0,0,2.36-2.22,24,24,0,0,0,1-3.22,39.8,39.8,0,0,0-.59-19,20.86,20.86,0,0,1,.28-11.46c.86-3.11,1.54-6.28,2.15-9.45s1.15-6.32.1-9.49a12.73,12.73,0,0,0-6-7.67A16.33,16.33,0,0,0,211,46.78a25.75,25.75,0,0,1-14-4.9c-1.06-.72-2.15-1.38-3.28-2a9.14,9.14,0,0,0-9.26-.38,64.94,64.94,0,0,1-14.29,5.93,12.89,12.89,0,0,0-3.12,1.93c1,1.7,1.83,3.13,2.74,4.66,2-1,3.57-.29,5.22.65,1.91,1.08,2.84,2.86,3.72,4.73a12.46,12.46,0,0,0,7,6.78c8.37,3,13.47,9.07,15.2,17.62,1,5,1.07,10.26,1.48,15.41a16.1,16.1,0,0,1-2.13,8.5c-2.5,5-4.79,10.11-7.17,15.18,0,.1-.08.31-.19.65ZM147.5,402.85l.24.15c.57-.69,1.13-1.4,1.71-2.08,2.63-3.07,5-6.38,7.94-9.15,6.09-5.78,12.49-11.24,18.69-16.92a60.77,60.77,0,0,0,5.79-6c2.48-3,4.67-6.2,7.17-9.15A106.81,106.81,0,0,0,198.71,346c.9-1.46,1.89-2.88,2.87-4.3.41-.6,1-1.24,1.68-.55.32.33.23,1.29,0,1.82a20.5,20.5,0,0,1-1.5,2.29,131.37,131.37,0,0,1-14.37,19.9,34.14,34.14,0,0,0-2.63,3.48,38.73,38.73,0,0,1-8.37,8.91c-8.26,6.69-16.2,13.74-23,22-.26.33-.49.69-.9,1.26L156,399a71.38,71.38,0,0,0,15.55-10.09c3.49-3.12,6.69-6.57,10.1-9.78a62,62,0,0,1,5.48-4.49,50.52,50.52,0,0,1,4.79-3c5.84-3.33,9.53-8.33,12.08-14.48a149.44,149.44,0,0,1,16.46-30.34c5.87-8.14,11.75-16.26,19.12-23.15a4.38,4.38,0,0,0,.53-.88c-2,.38-3.71.62-5.36,1-6.5,1.64-12.36,4.68-18.08,8.1-12.87,7.69-23.24,17.55-28.81,31.88a48.44,48.44,0,0,1-9.28,14.69c-3.41,3.82-6.74,7.72-10.21,11.48a109.49,109.49,0,0,0-20.64,32.44A3.1,3.1,0,0,0,147.5,402.85ZM178.17,136c.24-.06.44-.05.53-.14,2.15-2.25,4.33-4.49,6.43-6.78,1.51-1.66,2.93-3.41,4.38-5.13a2.34,2.34,0,0,0,.39-.71c3-6.65,6.12-13.29,9.1-20a11.72,11.72,0,0,0,1.22-4.46c.06-5.66,0-11.36-1.31-16.88-1.82-7.61-6.29-13.08-13.82-15.83a15.25,15.25,0,0,1-8.65-8.67,6.49,6.49,0,0,0-3.55-3.56,1.52,1.52,0,0,0-2.09.44l-.09.16c-2.24,3.15-4.55,6.26-6.87,9.35a1.87,1.87,0,0,0-.38,1.9Q165,70.31,166.4,75a26,26,0,0,0,6.72,11.26c1.15,1.14,2.34,2.23,3.47,3.39a14.51,14.51,0,0,1,4.34,11c-.06,2-.27,4.09-.51,6.12a123.9,123.9,0,0,0-.81,18.06c.09,3.54,0,7.13-1.43,10.49A2.39,2.39,0,0,0,178.17,136ZM98.73,496.75l.25-.2c-.24-.46-.46-.93-.73-1.37-3.23-5.3-6.29-10.7-9.74-15.84-4.5-6.71-9.39-13.16-14-19.83-6.72-9.84-13.29-19.77-19.93-29.65-.42-.62-.79-1.37,0-1.8a1.77,1.77,0,0,1,1.61.45,25.48,25.48,0,0,1,2.18,3c6.74,10,13.15,20.27,20.27,30A384.09,384.09,0,0,1,101.76,497c.31.54.66,1.06,1,1.58a3.84,3.84,0,0,0-.4-1.88q-3.1-7.38-6.23-14.74c-4.7-11.15-10-22-17-31.91-6.11-8.74-12.63-17.21-19-25.75a109.47,109.47,0,0,0-22.68-22.2c-2.29-1.7-4.34-3.7-6.5-5.56l-1-.88-.34.27c1.74,2.7,3.45,5.41,5.21,8.09,4.45,6.76,8.8,13.57,11.25,21.39,1.19,3.81,2.41,7.6,3.69,11.38,2.36,7,5.65,13.48,10.84,18.75,5.54,5.65,11.49,10.9,17.14,16.44a107.57,107.57,0,0,1,7.84,8.57c3.24,4,6.21,8.14,9.38,12.16A49.53,49.53,0,0,0,98.73,496.75ZM19,511.94v.4c.52.13,1,.23,1.54.38,6.58,2,13.21,4,19.74,6.12,5.64,1.88,10.43,5.38,15.26,8.71a34.19,34.19,0,0,0,13.12,5.65,206.72,206.72,0,0,1,28.2,7c2.6.88,5.45,1,8.19,1.47l.11-.39c-.34-.22-.67-.47-1-.68-2.77-1.66-5.67-3.15-8.29-5-8-5.66-16.92-9-26.25-11.41-4.27-1.11-8.61-1.94-12.9-3-.46-.11-.77-.83-1.15-1.27.48-.32.94-.84,1.46-.9a6.5,6.5,0,0,1,2.05.36l7.55,1.79c11,2.63,21.47,6.3,30.86,12.83,4,2.79,8.44,5,12.68,7.44.39.23.81.4,1.43.7a4.39,4.39,0,0,0-.31-.66c-6.82-8.16-13.88-16.09-22.53-22.4-5.57-4.07-11.5-7.58-18.41-8.65a100.9,100.9,0,0,0-16.09-1.37c-8.07.05-16.15.62-24.21,1.2C26.34,510.56,22.7,511.37,19,511.94ZM65,258.23l-.35-.06c0-2.66,0-5.37-1.42-7.69a26.58,26.58,0,0,0-3.42-4c-2.35-2.52-4.72-5-7.15-7.47a33.11,33.11,0,0,0-10-6.79c-2.8-1.26-4-.78-5.14,2.08a13.89,13.89,0,0,1-4.69,6.24A44.55,44.55,0,0,0,28.83,244c-2,2-3.86,4.13-4,7.14a21.47,21.47,0,0,0,1.7,9.95c1.53,3.38,5.15,7.27,10.19,6.29a25.87,25.87,0,0,1,4.82,0h4.81a37.39,37.39,0,0,1,5.6,0,61,61,0,0,1,7.68,1.76,2.19,2.19,0,0,0,2.64-.81,5.49,5.49,0,0,0,1.08-1.93C63.92,263.7,64.42,261,65,258.23Zm-1.34-14.8c1.39-5,2-9.88,4.21-14.27a11.11,11.11,0,0,0,.21-9.54c-.51-1.3-1.1-2.57-1.68-3.84-1.82-4-3.63-7.93-5.49-11.87a35.79,35.79,0,0,0-2.67-5.14c-1.74-2.58-3.9-3.07-6.57-1.53a21.83,21.83,0,0,1-8.92,2.55,35.17,35.17,0,0,0-5.37,1.06,4,4,0,0,0-3.11,4.21,9.5,9.5,0,0,0,3.07,7.35,34.54,34.54,0,0,0,3.83,3.22C49,221,54.75,228.13,59.4,236.29,60.72,238.58,62.14,240.85,63.67,243.43Zm-27,106.4v.4c.51.15,1,.32,1.51.44a44.26,44.26,0,0,1,15.68,7,63.12,63.12,0,0,0,6.32,3.9,57.48,57.48,0,0,0,20.3,7.15,36.77,36.77,0,0,1,10,3c6.14,2.74,12.11,5.87,18.14,8.86,2.43,1.21,4.85,2.45,7.28,3.68a.75.75,0,0,0-.32-.61c-6.2-4.57-12.36-9.19-18.61-13.7a37.91,37.91,0,0,0-12.06-6.06c-3.68-1-7.28-2.34-10.9-3.55-3.16-1-6.31-2.15-9.46-3.23-.15-.05-.37,0-.46-.13-.34-.4-.65-.85-1-1.27a9.81,9.81,0,0,1,1.42-.78,1.8,1.8,0,0,1,.95.14c2.31.71,4.63,1.39,6.92,2.18,2.9,1,5.7,2.33,8.65,3.12a55.53,55.53,0,0,1,20.65,10.31c4.76,3.79,9.78,7.26,14.68,10.86.44.32.91.58,1.36.88-4-8.85-22.84-24.12-36.8-29.52a75.78,75.78,0,0,0-44.28-3.1ZM24.08,246.06c-1.33-2.19-2.5-4.17-3.75-6.08a1.55,1.55,0,0,0-1.26-.6c-2.08.52-4.22,1-5.7,2.78C10.11,246.06,7,250.05,5,254.77c-2.57,6-1.69,11.48,2.73,16.16,4.63,4.88,10,7.81,17.09,5.35a14.72,14.72,0,0,1,3-.71,39.13,39.13,0,0,1,5.92-.44,18.42,18.42,0,0,1,4,1.05c1.49.41,3.07.45,4.09-.72a59.12,59.12,0,0,0,3.8-5.33c-.06-.17-.13-.35-.2-.52-3.3,0-6.61-.11-9.92,0a10.67,10.67,0,0,1-7.36-2.68C22.92,262.85,20.8,251,24.08,246.06ZM109.33,53.93a18.4,18.4,0,0,0,11-8.91,20.63,20.63,0,0,1,9.06-8.48,8.61,8.61,0,0,1,6.58-.63c1.34.39,2.65.9,4,1.38a10.62,10.62,0,0,0,8.74-.21c4.14-2,8-1,11.34,2.26,2,2,4.09,3.81,6.28,5.82,2.45-2.53,6.46-2.46,9.92-4.23a32.48,32.48,0,0,0-2.67-2.43c-5.43-3.89-10.84-7.79-16.35-11.55A29.72,29.72,0,0,0,151.51,24a7,7,0,0,0-7.68,1.33A39.74,39.74,0,0,1,140.39,28a13.56,13.56,0,0,1-9,2.91c-2.52-.14-5.06-.1-7.59,0-3.9.09-7.18,1.42-9.22,5-1.77,3.08-3.63,6.12-5.15,9.32C108,48,106.89,51,109.33,53.93ZM33.45,211.18c-2.35,2.55-4.58,5-6.85,7.44A20.61,20.61,0,0,0,22.8,240a7.24,7.24,0,0,0,2.94,3.71c1.2-1,2.3-2.07,3.49-3,3-2.33,5.64-4.89,7-8.66.75-2.16,3.09-3.06,5.35-2.55a11.18,11.18,0,0,1,2.13.74,33.2,33.2,0,0,1,9.16,6c2.38,2.27,4.59,4.7,6.89,7.05.45.46,1,.87,1.44,1.31l.34-.28a9.76,9.76,0,0,0-.57-1.23c-2.66-4.31-5.29-8.63-8-12.89a42.07,42.07,0,0,0-9.21-9.9C40.17,217.51,36.35,215.05,33.45,211.18ZM146,62.34a10.73,10.73,0,0,0,.25-9.1c-1.27-3.31-2.21-6.74-3.37-10.1a8.63,8.63,0,0,0-1.3-2.31c-1.35-1.77-3.57-1.84-5.43-2.59a7,7,0,0,0-6.5.62,19.48,19.48,0,0,0-7.49,7.39,19.13,19.13,0,0,1-9.6,8.75c-.84.35-1.69.71-2.51,1.11-.56.28-1.07.64-1.73,1,.31.12.42.2.5.18.46-.15.92-.31,1.37-.48a47.7,47.7,0,0,1,15.2-2.67,5.69,5.69,0,0,1,4.16,1.48C134.15,59.92,140,61.09,146,62.34Zm16.51,0c1.8-2.61,3.45-5.06,5.17-7.45a2,2,0,0,0,0-2.33c-2.39-5-6.11-8.84-10.07-12.51a6.91,6.91,0,0,0-7-1.44c-2,.59-4,1.44-6.36,2.3,1.25,3.68,2.49,7.57,3.88,11.39,1.08,3,1.68,5.91.53,9a6,6,0,0,0-.18,1.18c1.28-.67,2.35-1.29,3.47-1.79a31.06,31.06,0,0,1,3.5-1.26c3.5-1,4.92-.46,7,2.93ZM3.57,252.26l.69-1.06c2.14-3.09,4.24-6.22,6.44-9.27A10.59,10.59,0,0,1,17,237.66c.85-.2,1.67-.53,2.51-.81-1.25-8.24,1-15.2,6.92-21.28A26,26,0,0,0,16,219.43c-3.43,2.29-5.25,5.25-5.22,9.4A19,19,0,0,1,7.93,239c-1.2,2-2.46,3.92-3.83,5.78C2.42,247.08,2.45,249.43,3.57,252.26Zm43,20.57,9-2.08L52.94,270c-4-1.2-4-1.2-6.25,2.38a3.73,3.73,0,0,0-.09.46Z"/></g></g></svg>