<svg xmlns="http://www.w3.org/2000/svg" viewBox="0 0 158.29 732.24"><defs><style>.cls-1{fill:#fff;}</style></defs><g id="Layer_2" data-name="Layer 2"><g id="Layer_1-2" data-name="Layer 1"><path class="cls-1" d="M40.76,41.21c-.52-.49-1-1-1.55-1.48A13.68,13.68,0,0,0,27.13,36a24.89,24.89,0,0,1-3.86.17,3.35,3.35,0,0,0-2.91,1.28,2.35,2.35,0,0,1-3.08.56,2.67,2.67,0,0,1-1.37-2.84A2.59,2.59,0,0,1,19,33.69c3.58.86,7.15-.19,10.72,0,.06,0,.14-.11.39-.33l-5.48-3.9c-1-.7-1.86-1.61-3.32-1.1-.44.15-1.14-.23-1.63-.53a2.3,2.3,0,0,1-1.27-2.56,2.73,2.73,0,0,1,1.44-1.47c1.08-.39,2.54-.41,3.06.7C24,27,26.4,27.86,28.28,29.4a11.67,11.67,0,0,0,3.07,1.83c-1.27-2.44-2.52-4.89-3.83-7.32-.15-.27-.63-.35-.92-.57a6.14,6.14,0,0,1-1.44-1.21A2.1,2.1,0,0,1,25,19.44a2.78,2.78,0,0,1,3-.71,1.79,1.79,0,0,1,1.49,2c-.32,2,.69,3.42,1.5,5q2.21,4.2,4.55,8.34a4.16,4.16,0,0,0,1.31,1.36c8.28,5.36,15.75,11.77,23.32,18,2.89,2.4,6,4.53,9,6.77a12.83,12.83,0,0,0,1.19.67l1.75-1.51a7.24,7.24,0,0,0-.57-1q-6.48-9.42-13-18.85A3.55,3.55,0,0,0,56.23,38c-2.77-.63-5.52-1.38-8.27-2.13a1.94,1.94,0,0,0-2.05.28c-1,.88-2.3.5-3.16-.72-1-1.38-1-2.83-.18-3.52a3.13,3.13,0,0,1,3.71.28,6.67,6.67,0,0,0,2.3,1.53c2.21.73,4.49,1.28,6.73,1.9l.17-.34c-1.63-2.57-3.25-5.15-4.93-7.69a1.79,1.79,0,0,0-1.1-.51,2.88,2.88,0,0,1-2.37-2.34,2.46,2.46,0,0,1,1.23-2.61,2.92,2.92,0,0,1,3.21,0,2,2,0,0,1,1,2.64,2.37,2.37,0,0,0,.42,2.37c1.31,2,2.58,4,3.86,6.06l.41-.12c-.1-1.46-.11-2.93-.3-4.38-.29-2.14,0-4.37-1.34-6.36a2.27,2.27,0,0,1,.27-3.2l0,0a3.87,3.87,0,0,1,4,.68,2.68,2.68,0,0,1-.08,3.55c-1.07.89-1,1.84-.91,3,.26,3.37.44,6.75.69,10.13a3.26,3.26,0,0,0,.53,1.46q6.75,9.84,13.54,19.64a2,2,0,0,0,1.07.81c-.1-.43-.19-.87-.32-1.29-1.7-5.66-3.26-11.37-5.2-16.94-.64-1.84-2.22-3.36-3.42-5-.14-.19-.57-.23-.87-.26A2.84,2.84,0,0,1,62.13,32v-.09c.07-1.17.89-1.64,1.95-1.78a2.08,2.08,0,0,1,2.48,1.53c.41,1,1,2,1.43,3l.51-.16V28.8c-1.62-.93-2-1.62-1.77-3.05a2.46,2.46,0,0,1,2.12-2.13,1.92,1.92,0,0,1,2.43,1.16,1.9,1.9,0,0,1,.1.57,3.5,3.5,0,0,1,0,1.29C70.05,33,71,39.09,73,45.12l1.35,4.12h.33V47.15A130,130,0,0,1,76,21.45a4.41,4.41,0,0,0-.65-3C74,16,72.9,13.45,71.6,11A23.78,23.78,0,0,0,70,9a6.28,6.28,0,0,1-1.16-2.16,1.86,1.86,0,0,1,1.23-2.32,1.77,1.77,0,0,1,.64-.09c1.59,0,2.94,1.27,2.52,2.64a4.38,4.38,0,0,0,.59,3.49c.65,1.3,1.21,2.64,1.83,4,.22.45.48.88.72,1.31l.37-.06c.69-3.51,1.4-7,2-10.54a2.4,2.4,0,0,0-.31-1.19c-.14-.34-.42-.64-.53-1-.32-1-.41-2.08.62-2.76a2.19,2.19,0,0,1,2.69.34,2.34,2.34,0,0,1,.66,2.74c-1,3.7-1.92,7.42-2.87,11.13l.54.24c.88-1.31,1.81-2.58,2.63-3.92,1-1.63,2.27-3,2.46-5.15.14-1.58,2-2.05,3.23-1a2.79,2.79,0,0,1,1,3.16,2.15,2.15,0,0,1-2.5,1.54,1.61,1.61,0,0,0-1.08.69c-2,2.83-3.76,5.76-5.8,8.53-1.59,2.15-1.56,4.64-1.91,7.05-1.51,10.43-.82,20.92-.72,31.39a5,5,0,0,0,.17.87l.34,0a8.66,8.66,0,0,0,.2-1.24c.43-7,1.06-13.93,3-20.69a4.66,4.66,0,0,0,0-1.58c0-.42-.17-.84-.18-1.27,0-1.62,1-2.8,2.32-2.71s2,1.16,1.67,2.79A11.22,11.22,0,0,1,83.24,36a10.45,10.45,0,0,0-.73,1.41A87.77,87.77,0,0,0,79.8,57.46,5,5,0,0,0,80,58.62a7.53,7.53,0,0,0,.64-.92c3.4-8.18,6.76-16.38,10.19-24.55A10.55,10.55,0,0,0,91.6,29c0-3,.2-6,.38-9a2.33,2.33,0,0,0-.73-2.13,2.19,2.19,0,0,1-.44-3.06l.1-.12a1.83,1.83,0,0,1,2.52-.51l0,0a2.62,2.62,0,0,1,1.38,3.09c-.55,2.71-.94,5.45-1.41,8.18l.46.14a11,11,0,0,0,.59-1c.73-1.49,1.43-3,2.17-4.5a4.13,4.13,0,0,0,.46-2.58,3.86,3.86,0,0,1,1-2.52c.66-.76,1.69-.5,2.54,0,1.66,1,1.69,3,0,3.83a3.87,3.87,0,0,0-1.88,2.06c-.87,1.89-1.77,3.77-2.66,5.65l.3.26c1.87-1.68,3.76-3.35,5.61-5.07.23-.22.25-.68.34-1,.4-1.43,1.3-2.08,2.56-1.82a2.38,2.38,0,0,1,1.82,2.81A2.59,2.59,0,0,1,104,24a2.16,2.16,0,0,0-1.41.42c-2.73,2.64-5.31,5.45-8.15,8A10.83,10.83,0,0,0,91.8,36.7Q87.33,47.41,83,58.15A3.62,3.62,0,0,0,82.72,60a5.42,5.42,0,0,0,.71-.65c3.51-4.34,7-8.68,10.48-13.07a4,4,0,0,0,.69-2c.09-1.34,0-2.69,0-4S94.69,38,93.69,37A2.12,2.12,0,0,1,94,34.08c.7-.6,2.09-.43,3.13.38a2.28,2.28,0,0,1,.49,2.91c-.85,1.51-.85,1.51-.54,3.27,1.6-2.24,3.31-4.13,3.41-6.87,0-1,.17-2.14,1.22-2.38a3.52,3.52,0,0,1,2.49.57,2,2,0,0,1,.44,2.8,2,2,0,0,1-.92.69c-1.86,1-2.18,2.75-3.12,4.2.08.12.17.23.26.35,2.06-1.37,4.2-2.64,6.14-4.16,1.38-1.08,2.1-1.26,3.45-.06a2.07,2.07,0,0,1,.49,2.9,1.06,1.06,0,0,1-.19.23,2.38,2.38,0,0,1-3.24.91l-.24-.16a9.19,9.19,0,0,1-.75-.65c-3.06,2-6.46,3.57-8.9,6.45-3.88,4.59-7.65,9.29-11.46,14a7,7,0,0,0-1.26,2.21C86.59,60.32,88.33,59,90,57.61A194.57,194.57,0,0,1,114,40.8a5,5,0,0,0,1.73-1.62q2.44-4.05,4.7-8.23a2.4,2.4,0,0,0,0-1.75c-.38-1-.46-2,.45-2.62a2.45,2.45,0,0,1,2.86-.31,2.22,2.22,0,0,1,.79,2.73,2,2,0,0,1-.51,1c-2.23,1.91-2.5,4.91-4.15,7.13l.21.27c1.19-.55,2.37-1.11,3.56-1.65.89-.39,1.77-.79,2.68-1.12,1.14-.41,2.3-.59,2.53-2.22a1.62,1.62,0,0,1,1.86-1.33l.24.05a2.19,2.19,0,0,1,1.6,2.34,2.27,2.27,0,0,1-2,2.32c-3.78.57-7,2.49-10.33,4.3a43.94,43.94,0,0,0,10.18.47c2.05-.19,3.39,1.23,2.66,3a2.57,2.57,0,0,1-1.62,1.5,2.46,2.46,0,0,1-1.94-1,2.2,2.2,0,0,0-2.21-1.16c-2.2-.06-4.39-.25-6.59-.39a14.49,14.49,0,0,0-8.84,2.16A260.37,260.37,0,0,0,86.79,63a4.43,4.43,0,0,1-.71.39l.27.36,1.41-.59q9.72-4.11,19.42-8.27a8.71,8.71,0,0,0,2.06-1.21c1.9-1.5,3.77-3,5.6-4.62a10.19,10.19,0,0,0,1.46-1.88c.62-.84,1.35-1.42,2.46-1a1.81,1.81,0,0,1,1.33,2c-.14,1.08-.51,2.45-1.76,2.36-2.74-.22-3.79,2-5.56,3.4,2,.24,4,.49,6,.67.3,0,.64-.32.94-.52a2.41,2.41,0,0,1,3.35.58l0,.06a2.19,2.19,0,0,1-.56,3,2.63,2.63,0,0,1-3.63-.15,2.63,2.63,0,0,0-1.35-.91c-1.69-.21-3.4-.26-5.1-.36l-.14.33a4.62,4.62,0,0,0,.85.75c1.88,1,3.29,2.68,5.52,3.13a1.93,1.93,0,0,1,1.38,2.36,1.43,1.43,0,0,1-.08.22,2.9,2.9,0,0,1-3.1,2A2,2,0,0,1,115,63a2.48,2.48,0,0,1,0-.27c.22-1.15-.29-1.65-1.09-2.22-1.56-1.12-3.06-2.33-4.62-3.45a1.43,1.43,0,0,0-1.14-.19c-6.75,2.76-13.48,5.57-20.21,8.36a2.42,2.42,0,0,0,.1.45,6.07,6.07,0,0,0,.82.19c7.37.75,14.74,1.53,22.12,2.23,3.16.29,6.33.42,9.49.58a2.74,2.74,0,0,0,1.35-.32c3.48-1.67,7-3.35,10.41-5.08a4.57,4.57,0,0,0,1.57-1.22c.87-1.06,1.74-1.38,2.78-.81a2,2,0,0,1,1.1,2.57c-.37,1.28-1.61,2.33-2.6,1.84-1.64-.79-2.91,0-4.25.56-1.57.65-3.09,1.43-4.63,2.15l.06.33a5.81,5.81,0,0,0,1,.17c1.82,0,3.65.08,5.47.14,1.1,0,2.16.34,3.12-.71.63-.7,2.37-.2,3,.66a2,2,0,0,1-.16,2.65c-.74.89-1.77,1.3-2.7.56a5.53,5.53,0,0,0-3.64-1h-6.83a16.66,16.66,0,0,0,5.21,4c1.26.6,2.45,1.65,4,.73a1.07,1.07,0,0,1,1,.22,2.76,2.76,0,0,1,1,3.13,2.5,2.5,0,0,1-2.52,1.89,2.28,2.28,0,0,1-2.32-2c-.11-.42-.32-1-.64-1.14-3.66-1.4-6.23-4.36-9.39-6.47a4.12,4.12,0,0,0-1.74-.64q-12.1-1.2-24.21-2.31c-2.63-.25-5.26-.39-7.88-.55a4.33,4.33,0,0,0-1,.2c-.08.15-.17.29-.25.43l.62.2c4.61,1.92,9.22,3.83,13.81,5.78a3,3,0,0,0,2.45.1c1.81-.65,3.71-1.09,5.57-1.6,1.49-.41,3-.82,4.49-1.21.36-.09.82-.27,1.09-.13a7.43,7.43,0,0,1,2.26,1.52,1.73,1.73,0,0,1-.38,1.66,3.38,3.38,0,0,1-2.51.33c-2.24-1.13-4.13.17-6.16.34V76c2.63.87,5.25,1.76,7.9,2.58.34.1.79-.16,1.2-.22a9,9,0,0,1,2-.23,2,2,0,1,1,.1,4h0a4.05,4.05,0,0,1-2.6-.41c-2.85-2.11-6.37-2.24-9.53-3.49,2.8,2.07,5.14,4.74,8.55,5.87a6.87,6.87,0,0,1,1.68.93,1.72,1.72,0,0,1,.78,2.31,1.65,1.65,0,0,1-1,.86,6.49,6.49,0,0,1-2.66.42c-1.06,0-1.49-.86-1.42-1.8A2.15,2.15,0,0,0,112,84.7c-2.91-2.12-5.78-4.3-8.67-6.44a8.36,8.36,0,0,0-1.48-1c-4.37-1.94-8.74-3.88-13.14-5.75-.7-.3-1.51-.87-2.4-.2.09.2.1.4.21.47,5.75,4,11.42,8,17.3,11.81,6.72,4.21,13.54,8.21,20.31,12.21a2.19,2.19,0,0,0,1.62.25q5.31-1.89,10.54-4a3,3,0,0,1,3.68,1,1.93,1.93,0,0,1-.44,2.62c-.94.86-2.19.72-3.46-.35l-.43-.33-7.68,2.82c.56.36,1,.6,1.41.91,1.16.93,2.32,1.88,3.46,2.85.63.54,1.18,1.2,1.84,1.7,1.36,1,1.56,2.84.17,3.62a3.13,3.13,0,0,1-2.51.13,2.3,2.3,0,0,1-.8-2,2.52,2.52,0,0,0-1-2.7c-1.43-1.1-3-2-4.65-3.19a7.5,7.5,0,0,0-.15.93c.12,2.89.21,5.79.41,8.67a4,4,0,0,0,.77,1.93,2.07,2.07,0,0,1,.14,2.79,2.11,2.11,0,0,1-2.74.62,2,2,0,0,1-1-2.47c1.11-3.47.59-7,.4-10.51-.14-2.62-1.4-3.93-3.61-5.16A275.59,275.59,0,0,1,90.3,76.8c-1.2-.89-2.46-1.72-3.74-2.52-1.57-1-1.64-.94-2.76.72.06.12.08.31.19.4,6.27,5.37,11.33,11.89,16.84,18,1,1.09,1.86,2,3.55,2.06,1.4.05,2.75.88,4.15,1.22,1.94.49,3.81,1.37,6,.67,1.07-.35,1.79.56,2.08,1.57a2,2,0,0,1-.87,2.54,1.72,1.72,0,0,1-2.4-.42,1.37,1.37,0,0,1-.13-.2,2.5,2.5,0,0,0-1.91-1.21c-2-.46-3.92-1-5.88-1.54l-.27.29c1.75,1.8,3.46,3.64,5.26,5.39.71.69,1.51,1.28,1.26,2.41a2.36,2.36,0,0,1-2,1.92c-1.35.27-2.81-.74-2.44-2,.57-1.94-.66-2.85-1.63-4-.31-.36-.67-.67-1.2-1.19v5.22c0,.92,0,1.83,0,2.74a3.23,3.23,0,0,0,.7,1.63c1,1.13,1.27,2.51.54,3.51a2.18,2.18,0,0,1-2.89.56,2.82,2.82,0,0,1-1.22-3.35,27,27,0,0,0-.19-13.65,2.12,2.12,0,0,0-.47-.84q-8.31-9.09-16.65-18.17a8.62,8.62,0,0,0-1.71-1.47c-.31-.19-.84,0-1.34,0C83.3,81.9,85.39,86.43,87.31,91s3.53,9.23,5.47,13.78c2.11,4.93,4.45,9.77,6.67,14.67a1.73,1.73,0,0,0,1.57,1.07,16.16,16.16,0,0,1,3.35,1c2,.74,3.87,1.59,5.85,2.28a6.62,6.62,0,0,0,2.34.19,2,2,0,0,1,2.22,1.64,2.77,2.77,0,0,1-1.73,3,1.8,1.8,0,0,1-2.29-1.1,1.82,1.82,0,0,1-.07-.25,1.89,1.89,0,0,0-1.47-1.44c-2-.71-3.89-1.54-5.83-2.32l-2.12-.88a6.54,6.54,0,0,0,.19,1.09c1,2.41,2.09,4.83,3.19,7.22a3,3,0,0,0,.86.9,2.39,2.39,0,0,1,.7,2.91,2.06,2.06,0,0,1-2.46,1.32,1.77,1.77,0,0,1-1.54-2l0-.18c.81-2.81-.89-4.82-2-7.39-.2.6-.32.9-.4,1.21l-1.5,6.1c-.31,1.21-.83,2.33-.13,3.69a2.11,2.11,0,0,1-.92,2.68,2.74,2.74,0,0,1-3.05.16c-1.18-.69-1.21-3,.17-3.88a4.3,4.3,0,0,0,1.68-2.77A35.13,35.13,0,0,0,98,123a6.28,6.28,0,0,0-.57-2.62C92.76,110.81,88.62,101,84.93,91c-1.32-3.56-3.16-6.93-4.78-10.38a5.08,5.08,0,0,0-.64-.9c0,2.52-.06,4.91,0,7.3.2,6.82.47,13.64.65,20.46a3.26,3.26,0,0,0,1.59,3c2.09,1.39,4,3.11,6,4.63a3.12,3.12,0,0,0,1.66.56,2.37,2.37,0,0,1,2.45,1.71,2.69,2.69,0,0,1-.93,3,1.82,1.82,0,0,1-2.56-.33,2.27,2.27,0,0,1-.27-.48c-.79-2.39-2.74-3.63-4.51-5.08-.87-.71-1.78-1.36-2.87-2.18q-.1.61-.15,1.23c.08,2,.19,4,.28,6,.05,1.08.08,2,1.32,2.66,1,.5.78,1.61.51,2.6a13.76,13.76,0,0,0-.58,3.11c-.2,10.37-.45,20.74-.46,31.1a73.79,73.79,0,0,0,1,11.69c1.61,9.84,3.62,19.61,5.15,29.46a79.67,79.67,0,0,1,.74,13c-.07,7.89,0,15.83-.79,23.66-1,9.56-2.51,19.07-4.21,28.53C80,285.2,76.09,305,72.53,324.79a455.48,455.48,0,0,0-6.15,45.34c-.86,10.92-1.58,21.87-2,32.82-1,27.49-1.88,55-2.8,82.48a5.51,5.51,0,0,0,.25,2.06c.14-.38.31-.75.43-1.13a217.63,217.63,0,0,0,9-41,466.88,466.88,0,0,1,9.44-51c5.79-24.42,11.6-48.82,18.22-73,4.17-15.27,9.2-30.22,16.47-44.34,1.09-2.1,2.75-4.07,3.19-6.28s-.36-4.64-.61-7c-.94-8.89-.06-17.7,1.2-26.5.2-1.38.37-2.77.57-4.15a9,9,0,0,0-.56-4.49c-1.08-3.06-1.59-6.33-2.38-9.5-.19-.74-.64-1.41-.81-2.15a5.93,5.93,0,0,1-.25-2.71,2.29,2.29,0,0,1,1.8-1.16,2.61,2.61,0,0,1,1.77,1.27,2.66,2.66,0,0,1,.07,2c-1,3.15.27,6,1,8.87h.39c.38-2.41.78-4.81,1.13-7.23.13-1,.41-1.84,1.5-2,.84-.13,1.76-.2,2.26.76a2.38,2.38,0,0,1-.83,3c-1.09.46-1.18,1.27-1.31,2.17-.22,1.51-.43,3-.65,4.53l.31.13c1.83-1.71,3.67-3.4,5.46-5.15.27-.26.27-.79.41-1.19a2.31,2.31,0,0,1,2.42-1.43c1.27.34,1.27,1.49,1.32,2.49a1.66,1.66,0,0,1-1.62,1.82,4,4,0,0,0-1.95.83c-1.56,1.46-3,3-4.48,4.57,2.54.14,2.71.7,1.93,3.26-.37,1.22.09,2.69.17,4.05l.61.07a14.25,14.25,0,0,0,.61-2.6c.06-1.06.47-1.89,1.47-2a2.41,2.41,0,0,1,1.84.88c.58.85.08,1.6-.62,2.38a9,9,0,0,0-1.63,3.25c1.56-.63,3.52-.3,4.24-2.44.43-1.25,1.75-1,2.67-.72.43.13.86,1,.87,1.61,0,1.11-.38,2.35-1.71,2.33-2.28,0-4.16,1.09-6.06,2a4.48,4.48,0,0,0-1.73,2.84c-.9,3.92-1.62,7.89-2.35,11.85-.44,2.36-.79,4.75-1.24,7.52a10.11,10.11,0,0,0,.9-.95c2.4-3.44,4.81-6.87,7.15-10.35a3.54,3.54,0,0,0,.41-1.89c0-2.72-.22-5.44-.11-8.16,0-.59,1-1.41,1.64-1.63a2,2,0,0,1,1.8.8c.22.76.16,2.08-.33,2.47-1.87,1.47-1.1,3.22-1.08,4.91l.46.24,3-4.21c.12-.17.1-.5.24-.58a6,6,0,0,1,2.19-1.06c.32,0,.91,1,1,1.68.2.86,0,1.94-1,2.09-1.93.28-2.32,2.05-3.42,3.27,1.57.08,3.15.2,4.72.19.38,0,.72-.59,1.13-.7a4.92,4.92,0,0,1,2.37-.28,2.47,2.47,0,0,1,1.34,1.59,1.93,1.93,0,0,1-1.64,2.17,2,2,0,0,1-.84-.08,17.31,17.31,0,0,0-9.2,0,2.09,2.09,0,0,0-1,.68c-2.91,4.25-5.8,8.53-8.68,12.8,0,.07,0,.2-.06.52.58-.35,1.06-.62,1.53-.91,1.83-1.14,3.58-2.41,5.49-3.37s3.31-2.3,3.59-4.52c.09-.75,0-1.52.06-2.28a5.58,5.58,0,0,1,.09-1.41,2,2,0,0,1,2.49-1.17,1.76,1.76,0,0,1,1,2.29,1,1,0,0,1-.14.27c-.5,1.11-1.06,2.2-1.75,3.64,1.66-.54,3-.7,3.88-2,.59-.89,1.47-.74,2.3-.3a1.76,1.76,0,0,1,.87,2.2,1.42,1.42,0,0,1-1.62,1.19l-.22-.06c-1.84-.39-3.1.77-4.83,1.45a14,14,0,0,0,6.23,2.31c1.71.14,2.58,1.36,1.89,2.71a2.67,2.67,0,0,1-1.76,1.33c-.51.06-1.15-.7-1.68-1.14s-.61-.87-1-1.07c-1.69-.81-3.42-1.56-5.16-2.26a2.16,2.16,0,0,0-1.6-.14c-3.33,2.06-6.61,4.22-9.89,6.36a5.59,5.59,0,0,0-.61.68c.56-.07.88-.12,1.2-.15,2.24-.18,4.48-.51,6.72-.51,4.68,0,9.35.15,14,.28a2.59,2.59,0,0,0,2.6-1.45,20.63,20.63,0,0,1,2.49-2.71,9.61,9.61,0,0,0,1.54-2c.44-.87,1-1.46,2-1.29a1.78,1.78,0,0,1,1.56,1.95,1.71,1.71,0,0,1-1.51,1.91h-.06c-1.95.28-2.82,1.88-4,3.2,1.68,0,3.37.73,4.85-.73.68-.67,1.63-.39,2.33.29a2.12,2.12,0,0,1,.07,2.81,1.69,1.69,0,0,1-2.33.57l-.09-.06c-1.27-.87-2.53-.46-4.21-.37l2.71,3.05.16-.42a8.41,8.41,0,0,1,2.74.27,1.62,1.62,0,0,1,.78,2.17,1.15,1.15,0,0,1-.21.33,1.76,1.76,0,0,1-2.35.81,7.82,7.82,0,0,1-4-3.07,6.43,6.43,0,0,0-6.3-3.15c-4.6.19-9.23-.18-13.85-.27-1.38,0-2.76.12-4.14.19l-.07.37a5.91,5.91,0,0,0,1,.58c4.6,1.47,9.19,3,13.82,4.35a10.73,10.73,0,0,0,2.83.05c1.54,0,3.07,0,4.59.16,1.13.15,2.11.81,3.39.34.91-.34,1.57.46,1.92,1.33s.36,1.77-.51,2.11a3.29,3.29,0,0,1-2.18-.21c-1.46-.57-2.85-1.3-4.27-2l-.34.59c1.11.75,2.21,1.49,3.3,2.26a7.28,7.28,0,0,1,1.59,1.27c.87,1.11.7,2.4-.26,2.94a2,2,0,0,1-2.72-.76,2.83,2.83,0,0,1-.17-.4c-.48-2.24-2.32-2.91-4-4.18-.75,2.68-2.94,2.44-5,2.58,1.43.62,2.68,1.41,4.31,1a1.69,1.69,0,0,1,2,1.29s0,.06,0,.09a2.47,2.47,0,0,1-.61,2c-.7.68-1.49.2-2.32-.24-1.76-.92-3.64-1.62-5.47-2.41-.11.2-.23.4-.35.59l5.89,4.8a2.38,2.38,0,0,0,.29.13,1.79,1.79,0,0,1,1.07,2.29.61.61,0,0,1-.07.14,2.73,2.73,0,0,1-1.76,1.33,1.7,1.7,0,0,1-2-1.37,1.66,1.66,0,0,1,0-.32c0-1.4-.91-2-1.8-2.81-1.41-1.24-3.22-2.34-4-3.92-1-2.08-2.72-3-4.37-4.23-2.43-1.76-4.8-3.6-7.46-5.61.11.36.24.72.38,1.06a47.76,47.76,0,0,0,17.13,18,2.49,2.49,0,0,0,1.49.43c2.83-.28,5.65-.65,8.47-1a1.34,1.34,0,0,0,1.36-1.29c.13-.84.59-1.54,1.63-1.38a3,3,0,0,1,2.24,3,1.78,1.78,0,0,1-1.81,1.69,71.38,71.38,0,0,0-7.94,1.18c2.26,1,4.22,2.72,7,2a1.92,1.92,0,0,1,2.39,1.3,1.89,1.89,0,0,1,.05.23,2.44,2.44,0,0,1-1,2.95c-1,.48-1.89.08-2.65-1.11a2.35,2.35,0,0,0-1-1c-2.25-.86-4.53-1.64-6.9-2.35a16.11,16.11,0,0,0,4.78,3.91,3.67,3.67,0,0,0,.62.19c1.13.38,1.92,1.06,1.77,2.34a2,2,0,0,1-2,1.82c-1.1.15-2.52-.66-2.57-1.73-.07-1.29-.88-1.85-1.67-2.56-2-1.76-4.24-3.35-4.94-6.18-.07-.3-.48-.56-.79-.76a50.11,50.11,0,0,1-19.19-21.84,3.13,3.13,0,0,0-.48-.62c-.38.67-.7,1.21-1,1.77a206.55,206.55,0,0,0-15.49,39.55q-10,35.46-18.08,71.39c-2.9,12.94-5.85,25.88-8.37,38.9-1.63,8.48-2.47,17.12-3.76,25.67a206.9,206.9,0,0,1-7.38,32.34c-.58,1.79-1.05,3.61-1.6,5.41a27.44,27.44,0,0,0-1.34,8.24,6.48,6.48,0,0,1-.72,2,6,6,0,0,0-.52,1.75c.05,5.48.12,11,.24,16.44.17,7.79.49,15.58.56,23.37.16,19.07.07,38.15.37,57.22.18,11.33.93,22.65,1.39,34,.41,10.42,1,20.83,1.13,31.25.33,19.93.44,39.86.65,59.79,0,2.31.08,4.62.09,6.93a2.84,2.84,0,0,1-.22,1.41,1.29,1.29,0,0,1-1,.63c-.31,0-.66-.43-.89-.74s-.09-.52-.09-.79c0-10.1,0-20.2-.17-30.3-.16-13.43-.34-26.86-.7-40.28-.32-11.65-.94-23.3-1.37-35C60.66,613.8,60.15,602.42,60,591c-.2-12.68.07-25.36-.09-38-.17-13.43-.76-26.86-.9-40.29-.1-10,.07-20,.37-30,.71-24,1.43-47.91,2.41-71.85q.91-22.31,2.65-44.57a415.77,415.77,0,0,1,5.84-42c3.34-18.29,7-36.52,10.22-54.82,1.89-10.57,3.92-21.16,4.89-31.84,1.32-14.54,1.85-29.19-.7-43.71-1-6-2.35-11.9-3.57-17.84-2.46-11.91-1.82-24-1.62-36,.07-4,.26-8.05.29-12.08a9.15,9.15,0,0,0-.74-2.31,10,10,0,0,1-.51-2.44c-.07-2.77,0-5.53,0-8.3l-.44-.09a6.3,6.3,0,0,0-.55.8c-.86,2-1.65,4-2.57,5.9a4.7,4.7,0,0,1-1.41,1.69,2.17,2.17,0,0,1-2.84.08,2.46,2.46,0,0,1-.77-2.78A2,2,0,0,1,72,118.93c1.5.19,1.93-.66,2.41-1.76,1.06-2.41,2.22-4.78,3.3-7.17a2.62,2.62,0,0,0,.29-1.2Q77.57,95,77,81.1a2.19,2.19,0,0,0-.51-1.26c-.25.34-.71.67-.74,1-.68,8.8-3.66,17.11-5.49,25.66-1.46,6.83-3.18,13.6-4.72,20.41a4.1,4.1,0,0,0,.19,2.45c1.61,3.16,3.37,6.24,5,9.36a2.86,2.86,0,0,0,2.13,1.71,2.37,2.37,0,0,1,1.82,2.68,2.42,2.42,0,0,1-2,2.22,2.32,2.32,0,0,1-2.4-2c-1.1-4.23-4.15-7.45-5.6-11.5l-.38.08c-.14.37-.33.73-.44,1.11-.81,2.95-1.6,5.91-2.41,8.86-.19.69-.34,1.24.35,1.86a2.24,2.24,0,0,1,.2,3.18.68.68,0,0,1-.12.12,2.5,2.5,0,0,1-3.49.19c-1-.82-1.41-2.44-.51-3.3,1.29-1.23,1.48-2.81,1.92-4.32.79-2.72,1.5-5.47,2.34-8.53a8.49,8.49,0,0,0-1.16.6c-1.65,1.46-3.29,2.92-4.9,4.44a4.88,4.88,0,0,0-.77,1.37,2,2,0,0,1-2.48,1.2,2.36,2.36,0,0,1-1.62-2.64,2.22,2.22,0,0,1,2.37-1.67,2.38,2.38,0,0,0,1.53-.45c1-.83,2-1.81,3-2.69a9.64,9.64,0,0,1,2.53-2c2.22-.81,2.7-2.56,3.09-4.56.66-3.36,1.48-6.7,2.23-10a6.09,6.09,0,0,0,.39-1c2.11-8.93,4.25-17.86,6.29-26.8.51-2.27.65-4.63,1-7l-1.54-.32c-1,2.44-1.94,4.78-3,7.07-2.48,5.48-5,10.93-7.53,16.39-1.65,3.57-1.62,3.57.51,7A2,2,0,0,0,64,111.23c1.19,0,1.81.83,2,2,.07.53.06,1.07.08,1.61-1.9,1.72-2.55,1.6-3.87-.64-.75-1.29-1.59-2.53-2.58-4.09l-1.93,7.64c1,.83,1.89,1.73,1.21,3.24a2.32,2.32,0,0,1-2.9,1.52l-.21-.08a2.51,2.51,0,0,1-1.17-3.27c.94-3,1.76-6,2.61-8.93a8,8,0,0,0,0-1.38c-.64.67-1.11,1.09-1.49,1.57-1.33,1.69-2.69,3.36-3.9,5.13a12.63,12.63,0,0,0-1.64,3.26,2.22,2.22,0,0,1-2.41,1.68,2.39,2.39,0,0,1-2.35-2,2,2,0,0,1,1.44-2.43l.15,0c2.19-.17,3-1.78,4.1-3.2,2-2.63,3.85-5.45,6.73-7.3a2.5,2.5,0,0,0,.72-1q5.1-11.13,10.17-22.28a13.66,13.66,0,0,0,1-3.56,3.21,3.21,0,0,0-.51.46c-3.43,4.67-6.72,9.46-10.3,14-6.27,7.92-12.71,15.7-19.12,23.5a2.18,2.18,0,0,0-.44,2.59c1.13,2.55,2.11,5.17,3.2,7.74a4.93,4.93,0,0,0,1,1.39,2,2,0,0,1,.2,3,2.93,2.93,0,0,1-3.74.43,2.07,2.07,0,0,1-.43-2.9,2.23,2.23,0,0,1,.19-.24,1.76,1.76,0,0,0,.31-2.16c-.88-2-1.7-4-2.57-6.11-2.35,2-4.57,3.83-6.74,5.74a3.32,3.32,0,0,0-.57,1.27,3,3,0,0,1-2.72,2A1.93,1.93,0,0,1,25.4,128a2.3,2.3,0,0,1,1.14-3,2.37,2.37,0,0,1,1.2-.2,3.47,3.47,0,0,0,2-.64c1.42-1,2.75-2.23,4.1-3.38.38-.33.71-.74,1.06-1.11l-.11-.36H24.22a3.22,3.22,0,0,0-1.53.68,2.3,2.3,0,0,1-2.72.15,2.55,2.55,0,0,1-1.21-2.63,2,2,0,0,1,2.13-1.86,2,2,0,0,1,1.18.48,5.64,5.64,0,0,0,3.62,1c3.32,0,6.64,0,10-.22a2.85,2.85,0,0,0,1.87-1Q50.35,100,63.1,84.12c1.4-1.76,2.59-3.69,3.85-5.56a9.89,9.89,0,0,0,.75-1.49l-.27-.21c-.34.18-.67.38-1,.59-4.25,3.1-8.53,6.18-12.72,9.36a7.91,7.91,0,0,0-2,2.59c-1.63,3.15-3.16,6.34-4.64,9.56a3.65,3.65,0,0,0-.15,2.07,2.16,2.16,0,0,1-1.43,2.54,2.74,2.74,0,0,1-3-1.2,2,2,0,0,1,1-2.56A4.42,4.42,0,0,0,45,98.28c.83-1.56,1.53-3.19,2.28-4.79L47,93.23c-.46.36-.92.72-1.37,1.09L42,97.23c-.87.69-1.74,1.26-1.86,2.62-.11,1.19-1.71,2-2.86,1.8a1.94,1.94,0,0,1-1.67-2.06,2.56,2.56,0,0,1,2.22-2.54A2.65,2.65,0,0,0,39,96.74c2.44-1.91,4.85-3.87,7.26-5.81l-.14-.32a5.71,5.71,0,0,0-1,.13c-2.45.78-4.91,1.55-7.35,2.39a11,11,0,0,0-2.15,1.06,2.42,2.42,0,0,1-3.12,0,2.27,2.27,0,0,1-.52-3,3,3,0,0,0,.18-.6,3.73,3.73,0,0,1,3.07.45,2.25,2.25,0,0,0,1.63.12c4-1.25,8-2.55,12-3.87a6.14,6.14,0,0,0,1.74-.81c5-3.64,10-7.32,14.94-11a1.16,1.16,0,0,0,.22-2,13.56,13.56,0,0,0-1.39.37c-4.41,1.81-9,3.32-13.19,5.54C45,82.66,39,86.39,33,90a8.42,8.42,0,0,0-.72.62c-.44.17-.9.31-1.33.52-3.81,1.85-7.61,3.74-11.45,5.54a1.56,1.56,0,0,0-1.13,1.66c.1,3.59.12,7.18.25,10.77a13,13,0,0,0,.57,2.33A2,2,0,0,1,18.08,114a2,2,0,0,1-2.59-.63c-.73-.91-.88-2.31,0-2.93,1.1-.79.82-1.69.75-2.7-.17-2.72-.27-5.44-.42-8.45-1.47,1.36-2.92,2.53-4.15,3.91s-3.09,2.38-3.43,4.51c-.05.3-.87.79-1.1.69a6.18,6.18,0,0,1-2.41-1.63,2.75,2.75,0,0,1,.12-2.21,1.78,1.78,0,0,1,2.3-.93,1.5,1.5,0,0,0,1.28-.31c1.81-1.9,3.54-3.86,5.35-5.85-2.71-.31-5.67-.67-8.63-.92-.43,0-.92.45-1.35.74a2.12,2.12,0,0,1-3-.3h0a2.49,2.49,0,0,1-.46-3.09c.63-.86,1.8-.91,3.06-.29a6.8,6.8,0,0,0,2.23.69c2.72.37,5.44.63,8.16,1A9.67,9.67,0,0,0,19,94.62a140,140,0,0,0,18.77-10c3.22-1.93,6.44-3.88,9.7-5.75a76.48,76.48,0,0,1,16.82-7.28A15.42,15.42,0,0,0,65.9,71c.07,0,.08-.18.18-.46-.53.06-1,.08-1.41.16-6,1.08-12.05,2.19-18.08,3.25a4.49,4.49,0,0,0-2.51,1.47c-3,3-6.23,5.92-9.33,8.88a18.14,18.14,0,0,0-1.87,2.14,2.64,2.64,0,0,1-2.62,1.23,2.36,2.36,0,0,1-1.87-2.47,2,2,0,0,1,2.12-1.87,1.27,1.27,0,0,1,.28,0,3,3,0,0,0,2.86-1l7.17-6.44-.17-.36c-.84.2-1.67.41-2.5.59l-8,1.75a1.91,1.91,0,0,1-2.38-1.16,3.26,3.26,0,0,1,.13-2.36,1.62,1.62,0,0,1,2.19-.67,1.07,1.07,0,0,1,.21.13c1.94,1.64,3.93.81,5.92.42,1.67-.32,3.31-.76,5-1.16V72.7c-.35-.16-.68-.36-1-.49-2.43-.85-4.86-1.72-7.31-2.5a7.74,7.74,0,0,0-2.35-.3c-1.2,0-2.15-.31-2.51-1.54A1.78,1.78,0,0,1,29,65.68a2.13,2.13,0,0,1,2.91.5A5,5,0,0,0,34.78,68c3.43,1.25,6.85,2.52,10.28,3.75a2.23,2.23,0,0,0,1.09,0Q56,70,65.82,68.18a8.55,8.55,0,0,0,1.23-.44l-2-.76a75.81,75.81,0,0,0-21.47-4q-6.51-.39-13-.63a2.54,2.54,0,0,0-1.82.63c-2.06,2.68-4,5.45-6,8.2a4.27,4.27,0,0,0,.29.65,1.9,1.9,0,0,1,0,2.65c-.5.51-1.52,1.08-2,.88a4.65,4.65,0,0,1-2.09-2c-.23-.39.13-1.35.5-1.84,2.09-2.75,4.28-5.44,6.43-8.15L25.73,63l-3.86.52c-1.06.15-2.13.3-3.2.42a2.63,2.63,0,0,0-2.35,1.34,1.92,1.92,0,0,1-2.52.84,2.7,2.7,0,0,1-1.86-2.55c.11-1.3,1.06-2.2,2.3-1.81,1.81.58,3.51.07,5.25-.13s3.58-.53,5.67-.85c-.42-.38-.56-.6-.77-.69-3.09-1.36-6.17-2.73-9.27-4C14,55.64,13.24,55,13.29,53.74c.05-1,1.09-1.8,2.46-1.89s2.43.52,2.5,1.72.77,1.61,1.67,2c2.91,1.39,5.78,2.85,8.71,4.2a5.22,5.22,0,0,0,2,.33c8.25.4,16.56.44,24.7,2C59,62.82,62.6,64,66.23,65l1.58.44c.07-.15.13-.29.2-.43a6.84,6.84,0,0,0-.92-.59L43.74,54.8a2.82,2.82,0,0,0-1.07-.31c-3.75.12-7.5.26-11.25.45a2.68,2.68,0,0,0-1.24.61,2,2,0,0,1-2.77,0,2.37,2.37,0,0,1-.62-2.92,2.07,2.07,0,0,1,2.79-.85h0c3.33,2,6.8.2,10.16.79l.09-.33c-1.31-1.15-2.6-2.33-4-3.42a1.87,1.87,0,0,0-1.19-.13c-1.11.16-2.08,0-2.49-1.18a2.66,2.66,0,0,1,1.23-2.9,2.15,2.15,0,0,1,2.81.89c1.2,2.15,3.16,3.46,5,4.9a1,1,0,0,0,.7.18c-.8-2.13-.7-4.72-3.37-5.83a1.87,1.87,0,0,1-1.06-2.42l.06-.14a1.82,1.82,0,0,1,2.23-1.28h.06a9.07,9.07,0,0,1,.93.26A19,19,0,0,1,42,43.49a14.1,14.1,0,0,1,.46,2c.63,2.14,1.25,4.28,2,6.39a2.36,2.36,0,0,0,1.11,1.33c6.92,2.92,13.86,5.78,20.8,8.64a5.09,5.09,0,0,0,.93.18,4.6,4.6,0,0,0-1.18-1.23c-3-2.37-6.12-4.71-9.14-7.12C52.21,49.87,47.48,46,42.7,42.2A11.43,11.43,0,0,0,40.76,41.21ZM120.7,266.89c.19-1,.3-1.54.41-2.12,1.43-7.7,2.88-15.4,4.3-23.1a5.05,5.05,0,0,0,.06-1.9c-.65-3.27-1.37-6.53-2.1-9.93C120.62,232.06,118.73,259.44,120.7,266.89Zm20,12.68-16-5.32c3.3,2.79,6.51,5.74,10.51,7.63a1.33,1.33,0,0,0,.92.05c1.46-.43,2.92-.91,4.52-1.41a4.43,4.43,0,0,1,0-.95Z"/></g></g></svg>