<svg xmlns="http://www.w3.org/2000/svg" viewBox="0 0 230.65 763.54"><defs><style>.cls-1{fill:#fff;}</style></defs><g id="Layer_2" data-name="Layer 2"><g id="Layer_1-2" data-name="Layer 1"><path class="cls-1" d="M140.9,763.54c-.22-3.27-.42-6.42-.63-9.57-1.51-23.72-2.86-47.46-4.6-71.16-1.23-16.76-3-33.49-4.54-50.23s-2.56-33.53-2.58-50.36q-.06-47.21-.16-94.42c0-2.33-.4-4.09-2.46-5.68-13.57-10.51-21.22-25.31-28.49-40.29-2.89-6-5.48-12-9.34-17.46a32.3,32.3,0,0,1-3.1-6.76c-.43-1.09-.51-2.33.83-3s2.26,0,3,.92c1,1.17,1.89,2.46,2.85,3.68,2.19,2.83,4.44,5.6,6.57,8.47,2.87,3.83,5.59,7.77,8.48,11.6a67.78,67.78,0,0,0,5.76,7,41.67,41.67,0,0,1,9.39,13.84c.86,2.11,2,4.09,3.08,6.13.9,1.8,1.8,3.59,2.87,5.75v-1.94c-.44-12.63-.76-25.25-1.38-37.86a125.29,125.29,0,0,0-1.78-13.79q-1.24-7.79-2.8-15.53c-1.61-8.11-6.23-14.55-11.68-20.5-1.09-1.19-2.32-2.28-3.32-3.54a5.49,5.49,0,0,0-4.62-2,14,14,0,0,0-2.42,0c-6.14.87-11.9-.93-17.64-2.58C80,373.63,78,372.18,76,371a4.19,4.19,0,0,1-1.67-2,4.36,4.36,0,0,1-.16-3c.27-.52,1.77-.65,2.67-.54,3.28.38,6.54.91,9.8,1.45a13.88,13.88,0,0,1,7.4,3.55,27.92,27.92,0,0,1,2.71,3.52h5.47c-.88-.91-1.4-1.48-2-2-5.44-5.14-11-10.21-16.32-15.43a55.25,55.25,0,0,1-10.22-14,5.81,5.81,0,0,0-2.41-2.2c-4.54-2.4-8.58-5.23-9.76-10.65a16.53,16.53,0,0,1,.54-8.4c.49-1.62,1.63-1.91,2.91-.82,2.41,2.05,4.85,4.09,7.2,6.21,3.17,2.86,4.47,6.19,2.41,10.33a2.1,2.1,0,0,0,0,1.63c1,1.9,2.18,3.72,3.21,5.62,3.21,5.88,8.12,10.33,12.8,15.59.41-3.37,0-6.16-2-8.17-3.56-3.49-2-12.33,1.49-16.35,1-1.12,1.93-1,2.85.19,3.45,4.5,3.57,9.14.2,13.77a4,4,0,0,0-.55,3.71,31.68,31.68,0,0,1,.83,7.58,3,3,0,0,0,1.1,2.71,169,169,0,0,1,22,22.36A42.11,42.11,0,0,1,125,403.8a4.77,4.77,0,0,0,.91,2.1c-.45-16.54-.89-33.07-1.33-49.08a32,32,0,0,1-3.54-3.25c-5.39-6.75-10.68-13.58-16.06-20.34-2.18-2.75-4.43-5.46-6.8-8-3.73-4-5.13-8.66-3.76-14a51,51,0,0,1,2.21-6.7,2.6,2.6,0,0,1,1.93-1.34c.48,0,1,1,1.48,1.63a1.06,1.06,0,0,1,.17.58c.53,5.34,3.54,9.16,7.44,12.55,3.56,3.1,7,6.38,10.38,9.65a18.53,18.53,0,0,1,5.23,9c.14.44.31.88.49,1.31a.8.8,0,0,1,.32.1v-1.57c-.28-13.91-.54-27.82-.87-41.72a6.48,6.48,0,0,0-.91-2.23c-.29-.67-.65-1.3-.89-2-1.06-2.91-2-5.86-3.15-8.75s-3.63-3.61-6.22-4.29a1.25,1.25,0,0,0-1,.08c-2.31,1.83-5,1.41-7.59,1.18A65.66,65.66,0,0,1,96,277.42c-2.3-.47-3.46-1.71-3.41-3.38a3.87,3.87,0,0,1,3.61-3.53c4-.51,8-.12,11.27,2.25,2,1.45,4.15,1.63,6.7,2.2A47.68,47.68,0,0,0,106,264.59c-3.73-3.42-7.6-6.69-11.4-10a14.43,14.43,0,0,0-5.73-3.26c-2.08-.58-4.13-1.26-5.38-1.64a65.73,65.73,0,0,1-6.87,2.41,94.6,94.6,0,0,1-9.76,1.63,4,4,0,0,1-4.34-2.66,4.13,4.13,0,0,1,1.62-4.82,10.28,10.28,0,0,1,3.19-1.68,22.65,22.65,0,0,1,11.81-.32,16.76,16.76,0,0,1,3.56,1.8c.79.42,1.56.89,2.34,1.34l.28-.4c-2.36-2.26-4.63-4.64-7.16-6.71-.87-.71-2.38-.67-3.62-.92C67.85,238,62.71,234,58.16,229.18c-.57-.6-.53-1.78-.78-2.7a8.42,8.42,0,0,1,2.74-.68c2.6.33,5.19.88,7.77,1.4,4.43.9,7.25,3.71,8.87,7.79a4.34,4.34,0,0,0,2,2.34,20.11,20.11,0,0,1,3.14,2.53c4.15,3.66,8.27,7.35,12.41,11,.48.42,1,.75,1.93,1.37-.91-3.38-1.39-6.2-4.26-8.35-4.82-3.6-4.17-11.34.85-14.55,1.63-1.05,2.79-.84,3.76.74,2.4,3.91,3.84,8,2.91,12.71-.18.93-.14,2.09-.69,2.71-1.29,1.45-.77,2.81-.36,4.3s.7,3,1.08,4.52a4.34,4.34,0,0,0,.56,1.24,2.75,2.75,0,0,0,.59.54c3.14,2.84,6.28,5.69,9.69,8.39-.66-1.81-1.25-3.66-2-5.44-2.16-5.16-1.36-9.92,1.85-14.34.5-.69,1.55-1.58,2.14-1.45a2.91,2.91,0,0,1,1.9,2c.32,3.95.45,7.91.44,11.87a4.53,4.53,0,0,1-1.28,2.69,3.16,3.16,0,0,0-.56,3.69,5.67,5.67,0,0,1,.54,2.56c-.22,2.5,1.09,4.3,2.31,6.27,2.52,4,4.82,8.23,7.14,12.25V283q-1.08-25.41-2.18-50.8a16.85,16.85,0,0,0-2.85-9.17c-5.17-7.42-10.24-14.91-15.62-22.18-2.34-3.17-5.33-5.86-8.21-9a20.47,20.47,0,0,0-.82,2c-1.38,5.28-4.76,9.33-8.24,13.3a16.28,16.28,0,0,1-7.89,4.7c-5.25,1.55-10.5,3.09-15.66,4.87a40.63,40.63,0,0,0-7.05,3.43c-1,.6-1.74,1.8-2.69,2.63-.44.39-1.31.9-1.62.72a2.21,2.21,0,0,1-1-1.69c.89-10.66,6-18.88,14.79-24.81a68.37,68.37,0,0,1,23.66-10.2,3.67,3.67,0,0,0,.6-.36c-.74-.65-1.39-1.28-2.1-1.84-3.23-2.55-6.41-5.18-9.76-7.57a5.58,5.58,0,0,0-3.58-.69c-4.9.57-4.67-.43-5.67,4.92a8.12,8.12,0,0,1-5.81,6.66c-3.32,1.08-6.79,1.73-10.2,2.49-1.45.33-2.94.42-4.39.71-2.27.47-3.36-.51-2.58-2.74a16.24,16.24,0,0,1,8.31-9.75,24,24,0,0,1,10.17-2.43,3.67,3.67,0,0,0,1.4-.12c2.34-.91,4.66-1.89,7.35-3-3.25-1.63-6.39-3.42-9.7-4.83-3.72-1.58-7.6-2.8-11.39-4.24a24.06,24.06,0,0,1-5.16-2.3c-2.91-2-5.92-1.24-8.94-.78A1.84,1.84,0,0,0,34.81,162c-1,4-4,6.12-7.23,7.75-4.77,2.4-9.85,3.68-15.27,2.36-2.6-.64-3.2-2-1.69-4.23a9,9,0,0,1,2.08-2.18,48.48,48.48,0,0,1,15.1-7.61,10,10,0,0,1,5.77,0,14.78,14.78,0,0,0,3.93.07l.12-.5c-.37-.33-.73-.67-1.11-1-4-3.41-8-6.84-12.06-10.19a8.13,8.13,0,0,0-2.79-1.43c-3.43-1-6.94-1.78-10.33-2.89-7-2.3-9.74-6.79-11.31-14.89a2.54,2.54,0,0,1,.7-2.1c.46-.3,1.47.06,2.16.32,2.32.87,4.57,2,6.92,2.73,1.85.62,3.81.91,5.71,1.38a9.33,9.33,0,0,1,7,6.61,75.41,75.41,0,0,0,3.41,7.49,3.64,3.64,0,0,0,.69,1c6.1,5.78,12.48,11.17,20.08,14.93a7.85,7.85,0,0,0,2.14.73c-1.31-2.56-2.27-5.26-4.58-7.17-3.58-3-7.31-5.81-9.59-10-1.85-3.43-3.53-6.88-2.66-11a3.56,3.56,0,0,1,.39-1.35c.63-.72,1.34-1.79,2.11-1.87s1.8.72,2.44,1.39c1.62,1.69,3,3.65,4.64,5.27a16.7,16.7,0,0,1,5,8.35c.46,2,1.24,3.85,1.85,5.78a8.47,8.47,0,0,1,.76,2.92c-.28,3.64,2.55,6,3.57,9.07a1.55,1.55,0,0,0,.9.73c3,1.11,6.07,2.17,9.29,3.31.08-.68.19-1.19.2-1.7.11-3.91.18-7.82.3-11.73.09-3.06.4-6.06,2.48-8.58a8.4,8.4,0,0,1,7.8-3.39c1.67.18,3.34.5,5,.82,1.3.25,1.57,1.07,1.14,2.27-.52,1.46-1,2.91-1.43,4.41-1.43,5.41-4.7,9.06-10.16,10.5-1.75.45-2.16,1.33-2.39,3.07-.51,4,.73,6.27,4.41,8.33,7.79,4.36,14.54,10.26,21.27,16.12,11,9.59,19.42,21.27,27.24,33.44.27.43.59.82,1.17,1.64-1.14-25.56-4-50.36-10.12-73.88a43.44,43.44,0,0,1-4.06-3.49,35.87,35.87,0,0,1-3.56-4.66,4,4,0,0,0-3.64-2.12c-3.82,0-6.62-1.81-9.16-4.46-2.9-3-6-5.83-9-8.8-.56-.56-1.28-1.71-1.06-2.12a3.3,3.3,0,0,1,2.22-1.28,70.12,70.12,0,0,1,7.64-.78,9.55,9.55,0,0,1,7.7,3.4,18.92,18.92,0,0,1,5.07,9.52c.73,4.17,3.91,6.76,6.12,10l.43-.2c-.86-3.23-1.59-6.5-2.62-9.68q-4.56-14.16-9.37-28.24c-.39-1.11-1.66-2-2.58-2.86-2.16-2.12-4.36-4.2-6.82-6.56A13,13,0,0,0,87,96.56c.14,4-1.67,6.8-5,8.85-3.1,1.91-6.13,3.94-9.14,6a20.46,20.46,0,0,0-2.56,2.28c-1.2,1.19-2.13,1.25-3.22-.07a7.4,7.4,0,0,1-1.37-2.45c-2.37-7.42,1.54-16.35,8.54-19.72,2.52-1.22,5.17-1.24,7.9-1.29,3.33-.06,5.76,1.43,8,3.63a19.5,19.5,0,0,0,3.72,3.06c-.15-.49-.26-1-.46-1.48-3.6-8.81-7.18-17.63-10.86-26.4a4.37,4.37,0,0,0-2.09-2.27c-5-2-10.11-3.75-15.19-5.56-.83-.29-1.7-.52-2.23.62a1.68,1.68,0,0,1-1,.64c-5.13,1.6-8.42,5.44-11.49,9.51-1.39,1.84-2,2-3.67.38-2-1.89-4-3.81-4.44-6.79C42,62.12,43,59.61,46,58.12c4.44-2.3,9.09-2.14,13.79-.77a14.19,14.19,0,0,0,2.73.54c4.79.33,9.19,2.06,13.61,3.74,1.18.45,2.33.94,3.51,1.41.09-.29.2-.44.16-.52-2.51-5.24-5-10.46-7.53-15.7a4.73,4.73,0,0,0-3.06-2.73c-6.71-1.94-10.46-6.87-12.94-13a37.1,37.1,0,0,1-2.92-15.21c.14-4.65.13-9.31.3-14,0-.64.72-1.25,1.1-1.88.57.47,1.54.86,1.63,1.41.41,2.44,2,3.94,3.79,5.3,3.82,2.9,7.69,5.73,11.53,8.6,3.4,2.54,6.23,5.51,6.41,10a18.67,18.67,0,0,1-.52,5.16c-.79,3.27-1.8,6.49-2.74,9.73-.31,1.08-.69,2.15-1,3l18.56,40.8c.43-3.54.93-6.76,1.18-10a48.49,48.49,0,0,1,5.6-19.72c3.56-6.52,9.32-9.71,16.4-10.9a5.12,5.12,0,0,1,1.61,0c1.27.21,1.84,1.25,1,2.18-1.22,1.38-1.14,2.95-1.2,4.57s0,3-.23,4.44c-.65,5.15-3.62,8.78-7.85,11.47-1.7,1.08-3.55,1.93-5.35,2.85-1,.53-2.09,1-3.09,1.51-2.54,1.41-4.37,3-4.49,6.45-.14,3.85-1.33,7.66-2,11.5a2.94,2.94,0,0,0,.25,1.34q6.69,19.11,13.4,38.22a6.27,6.27,0,0,0,.5.73,32.1,32.1,0,0,0,1.91-10.4c0-4-.26-8.1-.14-12.15a35.43,35.43,0,0,1,6.28-19.16A14,14,0,0,1,124,81.12a9.44,9.44,0,0,1,2.79-.38c1.73,0,2.29.93,2.09,2.67a35.38,35.38,0,0,0-.43,6.82c.6,7.11-2.15,12.43-8,16.35a80.35,80.35,0,0,0-6.45,4.89,3.14,3.14,0,0,0-1.08,2.15,49.45,49.45,0,0,1-3.18,19.26,5.22,5.22,0,0,0,.12,2.93,349.94,349.94,0,0,1,9.68,47.31c.75,5.75,1.31,11.53,2.14,17.36.12-.53.26-1.06.35-1.6a51.91,51.91,0,0,1,15-28.76,19.72,19.72,0,0,1,3.47-2.77c.54-.33,1.44-.06,2.18-.07,0,.69.26,1.54,0,2-3.07,5.07-3.73,10.62-3.52,16.38s.49,11.33-.61,17a28.42,28.42,0,0,1-6,12.65c-2.37,2.94-4.52,6.05-6.85,9a9.77,9.77,0,0,1-2.2,1.62c1.12,31.36,2.24,62.92,3.36,94.47l.11.06c.39-2.6.77-5.2,1.17-7.79,4.13-26.65,9.28-53.09,17.6-78.78,3.15-9.74,7.45-19.11,11-28.73,2.45-6.63,4.67-13.36,6.77-20.12q7.29-23.47,14.32-47a10.56,10.56,0,0,0,.38-4.57c-.51-3.18-1.37-6.31-2.08-9.45l-.41.38a21.57,21.57,0,0,1-3.12-1.8c-4.53-3.73-9-7.49-13.47-11.33a53.39,53.39,0,0,1-4.56-4.59c-1.58-1.74-1-3.77,1.25-4.35,5.6-1.42,13.61-.15,17.64,5.73a59.86,59.86,0,0,1,4.77,9.33,7.69,7.69,0,0,1,.57,3.76c-.3,3.15,1.07,5.89,2,8.85.27-.58.56-1.16.79-1.76,1.91-5.11,3.8-10.23,5.74-15.33.86-2.27,1.85-4.48,2.75-6.73a5.35,5.35,0,0,0,.21-3.26c-.87-4.29-1.36-8.65-2-12.74a28.6,28.6,0,0,1-2.43-3.62c-2.53-5.36-4.47-11-8.08-15.84-.71-1-1.22-2.27-.25-3.14a4.26,4.26,0,0,1,3.06-1c4.76.71,8,3.74,9.82,7.91,2.15,4.81,3.41,9.84,1.15,15.09a6.12,6.12,0,0,0-.22,3c.23,2,.65,4,1.07,6.47.43-.88.7-1.31.86-1.77,1.76-4.89,3.56-9.77,5.24-14.69,2.89-8.44,4-17,2.24-25.91-.34-1.64-.38-3.35-.6-5a7.57,7.57,0,0,1,3.15-7.26,33.42,33.42,0,0,1,12.32-5.92,2.82,2.82,0,0,1,1.94.59c.22.15.2,1.13-.07,1.43-2.29,2.64-1.67,5.75-1.36,8.72.33,3.14,1.13,6.24,1.56,9.38.92,6.84-2.18,12-8.75,14.07-3.63,1.17-5.52,3.4-6.69,7-2.89,8.92-6.19,17.71-9.32,26.56-.34,1-.68,1.9-1,2.84.11.15.22.29.32.44,2-1.38,4-2.67,5.93-4.15s3.79-3.25,5.64-4.92a9.72,9.72,0,0,1,8.81-2.5c2.58.49,5.17,1,7.73,1.59,2,.48,2.31,1.3,1.1,3a68.32,68.32,0,0,1-4.44,6c-3.52,4-7.88,3.91-12.42,2.09-1.68-.67-3.26-1.6-5-2.47-2.86,1.74-5.88,3.5-8.8,5.41a4.4,4.4,0,0,0-1.24,2q-4.35,11.34-8.63,22.7c-1.42,3.79-2.72,7.63-4.07,11.44a6,6,0,0,0-.32,1.82c3.06-2.32,6.56-3.85,8.55-7.61,4-7.59,13.35-11.2,21.56-8.82a9.18,9.18,0,0,1,1.7.65c2.31,1.21,2.38,2.54.42,4.27a52,52,0,0,0-3.63,3.79c-.59.65-1.09,1.38-1.64,2.06-3.82,4.76-8.7,6.74-14.54,4.69-3.48-1.22-6-.29-8.66,1.76-5.55,4.19-5.67,4.07-7.62,10.73-1.38,4.72-2.63,9.47-3.94,14.21l.4.21c.42-.55.82-1.11,1.26-1.64,2-2.41,3.85-4.87,5.92-7.18A22.12,22.12,0,0,1,192,161.12c10.24-.59,20.49-1.06,30.74-1.52a48.49,48.49,0,0,1,5.26.22c1,.07,2.11.36,2,1.54-.08.63-1,1.29-1.65,1.68-2.2,1.28-4.5,2.38-6.7,3.66a29.79,29.79,0,0,0-3.45,2.48,48.3,48.3,0,0,1-19.08,9c-10.41,2.56-20.79,5.28-31.19,7.9a2.75,2.75,0,0,0-2.17,1.84q-7.44,19.91-15,39.78c-5.25,13.87-8.7,28.24-11.81,42.7q-2,9.21-3.92,18.43a5.56,5.56,0,0,0-.1,2.26c.28-.58.55-1.16.84-1.74,3.78-7.79,7.8-15.46,13-22.41,3.05-4.1,6.61-7.82,10-11.63a3.24,3.24,0,0,0,1.21-2.78c-.43-3.68-.68-7.37-1.14-11-.75-5.88,0-11.45,3.06-16.59,1-1.61,2.2-2.94,4.22-3.14,1.86-.19,2.9.74,2.7,2.6a109.14,109.14,0,0,1-1.56,12.22,27.35,27.35,0,0,1-3.29,7.75c-.9,1.52-1.63,2.84-1.31,4.62a20.82,20.82,0,0,0,.24,2.23c8.51-7.82,18.28-13.71,27.65-20a18.65,18.65,0,0,1,1.09-8.66,9,9,0,0,0,.4-3.17c0-5.35.21-10.67,1.82-15.84.14-.45.25-.91.43-1.34.65-1.51,1.32-3.23,3.18-3.32s3.39,1.19,4.42,2.78a4.36,4.36,0,0,1,.69,2.09c.51,7.87-1.12,14.9-7.93,19.89-1.82,1.33-1,3.45-1.58,5.23.37,0,.53.08.62,0,5.72-3.76,11.39-7.76,16.14-12.76a23.12,23.12,0,0,0,4.66-8.21c1.05-2.78,2.09-5.56,3.29-8.27,1.32-3,3.83-4.25,7-4.17a28.34,28.34,0,0,1,4.22.43c1.58.27,2,1.17,1.48,2.63q-1.22,3.41-2.09,6.91c-.92,4.12-3.05,6.95-7.34,7.95-2.33.55-4.62,1.31-6.92,2a1.41,1.41,0,0,0-.59.52c-4.65,5.86-10.74,10-16.79,14.21-6.45,4.45-13,8.81-19.43,13.21a6.25,6.25,0,0,0-1.57,1.42,6.29,6.29,0,0,0,1.15-.2c3.87-1.35,7.93-2.07,11.64-4a18.89,18.89,0,0,1,10-1.83,12.08,12.08,0,0,1,8.61,4.37c1.93,2.21,1.09,4.95-1.8,5.23-4.83.46-9.7.58-14.55.79a7.79,7.79,0,0,1-2.19-.37c-1.87-.48-3.59-1.2-4.14-3.62-3.34,1-6.54,2-9.77,2.94a35,35,0,0,1-3.69.43,3.18,3.18,0,0,0-1.39.65c-9.46,7.76-17.9,16.4-23.94,27.21A271.63,271.63,0,0,0,133.41,301c-2.08,4.79-2,9.83-3.06,14.72a10.61,10.61,0,0,0-.19,3.13c.31-.65.63-1.3.93-2,4.62-9.89,11.79-17,22.3-20.47a5.35,5.35,0,0,1,1.55-.43c.48,0,1.22.18,1.39.51a1.79,1.79,0,0,1-.05,1.64c-4.38,4.75-5.07,10.94-6.49,16.79-1.25,5.16-3.83,9.18-8.4,11.85-2.91,1.71-5.87,3.33-8.84,4.93a6.13,6.13,0,0,0-3.14,3.47c-.5,1.38-1.64,2.5-1.77,4.11-.08,1-.63,1.9-.61,2.85q.63,29.55,1.33,59.12a3.5,3.5,0,0,0,.4,1.62c.18-.53.37-1.06.56-1.59,4.3-11.35,11.09-20.62,22-26.52,4.6-2.49,9.62-3.48,14.69-4.26a2.25,2.25,0,0,1,1.69.72,1.45,1.45,0,0,1-.2,1.42c-2.2,1.95-1.8,4.51-1.79,7,0,1.41.19,2.83.12,4.24a15,15,0,0,1-4.28,9.81,3,3,0,0,0-.76,3.27,18.47,18.47,0,0,1-.38,12.34c-1.31,3-.44,5.84-.91,8.74h.59c6.88-9.92,14.52-19.36,19.74-30.34,2.61-5.48,4.9-11.12,7.28-16.71a4.62,4.62,0,0,0,.2-2.12c-.55-7.25-1.67-14.53,0-21.75,1.29-5.7,5-9.5,10.42-11.45a3.9,3.9,0,0,1,2.94.31c.37.22.08,1.67,0,2.55a44.67,44.67,0,0,0-.53,5.77c.21,4,.55,8-.4,11.89a19.39,19.39,0,0,1-7.65,11.33,4.2,4.2,0,0,0-1.36,1.62c-3.79,10.35-8.08,20.46-13.94,29.84a2.18,2.18,0,0,0-.35,1.14c5-3.3,10.28-6.17,14.05-11a32.49,32.49,0,0,1,3.82-4.45c6.29-5.58,13.44-5.52,20.9-2.86a13.75,13.75,0,0,1,2.73,1.32c1.75,1.1,1.69,3.41-.27,3.87-2.9.67-4.11,2.82-5.49,5-3.69,5.75-7.88,7.26-14.37,5.3-2.64-.79-5.32-1.44-8-2.06a2.62,2.62,0,0,0-1.77.31q-7.5,4.77-14.93,9.67a6.3,6.3,0,0,0-1.56,1.53c-6.06,8.53-12.25,17-18.11,25.65-9.38,13.88-15.08,29.36-19.08,45.53l-3,11.77a10.16,10.16,0,0,0-.24,2.2q.06,46.5.15,93c0,17.31,1.28,34.55,2.92,51.76,2.65,27.77,5.22,55.54,6.73,83.39.75,13.76,1.65,27.5,2.48,41.26C143.56,763.34,143.5,763.37,140.9,763.54ZM90.13,422.12c-.15-.24-.3-.48-.44-.72l-.2.16.68.53a14.86,14.86,0,0,0,1.13,2.3,66,66,0,0,1,7.15,13.1,174.28,174.28,0,0,0,17.63,31.09c2.76,4,6.48,6.91,10.4,9.8a108.88,108.88,0,0,0-4-10.92c-.87-2-2.15-3.91-3-6A38.45,38.45,0,0,0,110.34,448a29.38,29.38,0,0,1-5-6C101,434.72,95.29,428.65,90.13,422.12Zm40.75,56.63.4.09c.17-.64.34-1.29.5-1.93,4.43-17.75,10.94-34.59,21.77-49.53,1.38-1.91,2.83-3.75,2.87-6.23,0-2.91,1.93-6-.95-8.64-.19-.17-.07-.66-.18-1-.83-2.15-1.68-4.3-2.44-6.25-2.26.7-4.17,1.35-6.11,1.88-6,1.66-11.74,3.89-16.13,8.73a5.65,5.65,0,0,0-1.73,4.41c.57,15.65,1.07,31.29,1.59,46.94.14,3.84.27,7.67.41,11.5Zm28.16-87h.6a10.54,10.54,0,0,0,3.31-6.68c.18-3.67,0-7.35,0-11-14.16-.53-34.57,23.17-32.53,37.94q2.47-1.87,5.12-3.5a36.94,36.94,0,0,1,5.75-2.48c2.67-.92,5.44-1.59,8.12-2.48,2.07-.69,2.23-1.35,1.87-3.51-.49-2.92-.87-5.86-1.1-8.8a6.53,6.53,0,0,1,2-5.35,5.53,5.53,0,0,1,3.2-1.24c1.35-.06,1.76,1.23,2.1,2.37.55,1.56,1,3.1,1.55,4.72ZM168.6,183c.87-.12,1.26-.13,1.64-.23,9-2.32,18-4.79,27-6.93A50.59,50.59,0,0,0,217.86,166c1-.84,2.17-1.59,3.25-2.41.39-.29.73-.65,1.36-1.21-1.94,0-3.48-.07-5,0-8.15.43-16.29.92-24.44,1.37a21.34,21.34,0,0,0-15,6.92c-3.48,3.72-6.25,7.89-9.43,12.32Zm-76.9,6.18A60.65,60.65,0,0,0,85,190.24a65,65,0,0,0-20.26,9.46A30.8,30.8,0,0,0,54,212.36a39.52,39.52,0,0,0-1.53,5c4.27-1.65,8.23-3.33,12.28-4.73,3.7-1.28,7.51-2.2,11.23-3.41A14.71,14.71,0,0,0,80.94,207a31.16,31.16,0,0,0,10.76-17.8ZM71.37,41.65c.36-1,.69-1.91.94-2.8.74-2.59,1.28-5.24,2.18-7.77,1.92-5.39,1.19-8.93-3.3-12.54-4.67-3.75-9.54-7.26-14.33-10.86-.07,0-.23,0-.79.16,0,3.19-.07,6.47,0,9.76a33.61,33.61,0,0,0,5,17A14.15,14.15,0,0,0,71.37,41.65Zm52.85,179.47c2.51-3.13,5.07-6.22,7.52-9.41a21.77,21.77,0,0,0,3.76-8.21c1.25-5,1.08-10,1-15.1,0-3.17-.07-6.35.09-9.51a43.09,43.09,0,0,1,1-5.28c-.6.54-.92.77-1.17,1.06a52.78,52.78,0,0,0-10.57,19.62C123.26,203.12,124.66,212.12,124.22,221.12ZM98,309c-2.12,5.36-1.87,10.23,2.35,14.43a37,37,0,0,1,2.83,3.17q9.26,11.64,18.47,23.3c.79,1,1.61,2,2.41,2.93l.37-.26c-.09-.45-.16-.9-.27-1.35-1.06-4.24-2.16-8.48-3.19-12.74a18.16,18.16,0,0,0-5.07-9.27c-3.09-2.91-6.16-5.85-9.32-8.68C102.89,317.31,99.34,314,98,309ZM213.41,42.32l-.41-.27c-2,1-4.06,2-6.06,3.09-3.21,1.7-4.77,4.25-4,8a21.45,21.45,0,0,1,.46,3.2c.28,4.23.52,8.45.75,12.68a22.36,22.36,0,0,1-.14,2.59l4-1.44c5.34-1.88,7.68-5.57,7-11.21S212.42,48,213.41,42.32ZM150.92,300.43c-10,3.57-20.58,18.51-20.77,29.85,4.25-2.61,8.33-5,12.24-7.57a10.48,10.48,0,0,0,4.12-6.1C148,311.25,149.45,305.86,150.92,300.43ZM114.22,46.5c-4.6,1.17-8.52,3.15-11.29,7.06-2.91,4.12-6,12.51-5.56,15.43,3.24-1.66,6.55-3.18,9.68-5,4.06-2.35,6.8-5.76,7.14-10.62C114.35,51.12,114.22,48.94,114.22,46.5Zm11.48,37c-3.74.76-6.07,3-7.89,5.88a31,31,0,0,0-5.13,19.34c3.28-2.43,6.29-4.37,9-6.72a11.6,11.6,0,0,0,4.08-9.14c-.09-3-.06-6-.06-9.34Zm88.86,301.11c-10-4.65-18.48-.63-22.8,7.72,1.74.56,3.47,1.1,5.2,1.68,7.14,2.43,9.54,1.59,13.68-4.79a7.83,7.83,0,0,1,.45-.67l3.47-3.92ZM68.43,110.84c4.15-2.69,8-5.25,11.93-7.73,3.66-2.32,4.87-5.55,3.55-10-5.17-1.14-9.69,0-13,4.29C67.81,101.41,67.44,106,68.43,110.84ZM189.72,365.12l.55.24c.62-.47,1.28-.91,1.86-1.44,4.75-4.33,5.89-9.93,5.54-16-.17-3-.29-6-.45-9.2a13.51,13.51,0,0,0-7,8C188.35,352.8,189.71,359,189.72,365.12ZM206.32,138c-7-3.15-18.07,2-19.61,9,7,2.89,10.91,1.86,15.54-4,1.29-1.64,2.65-3.21,4.07-4.93Zm-49.39-32.87c6.12,5.53,11.79,11.57,18.94,16a6.75,6.75,0,0,0-.3-3.09,59.47,59.47,0,0,0-3.08-6.57C169.32,106,163.46,103.52,156.93,105.17ZM3.44,129.26c.65,3.58,2.22,6.43,4.64,8.17,4,2.84,8.74,3.24,13.54,4.84-.79-2.33-1.42-4.16-2-6a5.49,5.49,0,0,0-3.91-3.78C11.66,131.38,7.62,130.36,3.44,129.26Zm198.67-23.14c7.25,5.16,13,3.28,16.08-4.06C208.84,99.47,207.81,99.7,202.11,106.12ZM83.65,122.8c3.54,3.41,6.83,6.67,10.24,9.8,1.53,1.41,3.5,1.47,5.49,1.27C98.67,127.06,93.46,119.54,83.65,122.8ZM64.4,179.31c-6.36-1.67-14.89,2.63-17.06,8.53,3.13.34,11.71-1.57,14.24-3.11A5.82,5.82,0,0,0,64.4,179.31Zm12.14-35.55c-4.73-1.6-8.15-.3-9.57,3.69-1,2.7-.81,5.51-.65,8.33C71.93,155.36,75.26,151.41,76.54,143.76ZM32.2,160.67c-4-1-16.69,5-19.05,8.91a17.66,17.66,0,0,0,3.62.38c4.75-.48,9.28-1.61,13-4.88a7,7,0,0,0,2.43-4.41Zm183.49,51.45c1.94-.59,3.45-1.13,5-1.48a6,6,0,0,0,4.79-5.13c.49-2.29,1-4.58,1.44-6.88-3.3-1.08-5.58-.34-7,2.71C218.43,204.66,217.22,208.12,215.69,212.12ZM48,69.69l10.77-9.78a16,16,0,0,0-9.79-.13c-4,1.17-5.07,4.7-2.51,8C47,68.48,47.52,69.12,48,69.69ZM154.59,387.45c-3,3.29-.83,17,3.16,21.4C160.68,401.18,157.12,394.52,154.59,387.45Zm50.64-141.84c-2.63-5.1-12.38-5.62-18.34-.94a11.68,11.68,0,0,0,3,1.49,34.27,34.27,0,0,0,6.24.25C199.16,246.27,202.14,245.9,205.23,245.61ZM45.64,150.41c-2.18-9.23-2.18-9.23-10.77-17.59-1.4,4.87,4.09,13.84,10.77,17.59ZM71.29,337c2.22-3.68,2.07-5.55-.89-8.29-1.85-1.71-3.92-3.2-5.94-4.84-1.7,5.65,1.12,10.26,6.83,13.13ZM198,201.27c-2.5,3.52-4,13.71-2.77,18.38.31-.23.42-.64.67-1,3.45-4.24,4.25-9.22,3.85-14.45C199.68,203.31,198.72,202.44,198,201.27ZM189.28,87.12c2.56-6.78-2.59-16.91-8.51-17.58Zm-109,160.74-.12-.47a18,18,0,0,0-13.45.42,2.8,2.8,0,0,0-1.46,2.09c.14,1.28,1.46,1.21,2.45,1q5.46-1,10.88-2.21a7.34,7.34,0,0,0,1.69-.82Zm14-16c-4.65,3.12-3.59,8.82,2.18,11.79a13.11,13.11,0,0,0-2.16-11.8Zm67.62,10.26c2.39-2.88,3.21-6.68,3.74-17.11C162.52,226.57,159.88,236.27,161.9,242.12ZM77.49,368.47c3,2.76,11.1,5.37,15.39,5.11C91.48,370.12,84,368.57,77.49,368.47Zm-3.39-132c-1-4.71-4.93-7.07-12.2-7.28,3.73,3.24,7.44,5.93,12.2,7.25ZM89.85,348.82c3.39-3.72,3.89-8.2,1.32-10.32-1.65,3.18-2.47,6.42-1.32,10.29Zm5.59-74.7c2.33,1.26,8.89,2.2,11,1.65-1.82-2.51-8.52-3.58-11-1.65ZM112,247.84c-2.58,3.11-2.77,7.7-.48,10.13C113,254.58,112,251.19,112,247.84Z"/></g></g></svg>