<svg xmlns="http://www.w3.org/2000/svg" viewBox="0 0 344.9 829.89"><defs><style>.cls-1{fill:white;stroke:white;stroke-miterlimit:10;stroke-width:1.1px;}</style></defs><g id="Layer_2" data-name="Layer 2"><g id="Layer_1-2" data-name="Layer 1"><path class="cls-1" d="M201.81,518.18q.6-5.37,1.18-10.75l5.22-47.59c.1-.93.22-1.74-.64-2.45-9.52-7.87-14.23-18.49-16.91-30.16-1.25-5.45-2-11-2.85-16.54-.09-.57.58-1.26.9-1.89.52.39,1.35.67,1.53,1.19,1.84,5,5.68,8.15,10,10.85,3.71,2.34,7.54,4.49,11.61,6.91v-2q-.43-21.5-.89-43c-.24-11.2-.55-22.4-.75-33.6a12.83,12.83,0,0,0-1.69-6.14,45.3,45.3,0,0,1-3.79-8.76c-1.64-5.52-5.4-9.52-9.13-13.52a53,53,0,0,0-7.24-6.23c-2.82-2.1-5.89-2.49-9.54-1.79-3.49.66-5.75,2.88-8.37,4.61-5.48,3.6-10.75,7.53-16,11.39-5,3.67-10.19,7.05-16.15,9.09-4.12,1.41-8.37,1.59-12.64,1.79-9.27.42-18.53.92-27.8,1.33-8.89.4-16.69,3.86-24.1,8.46a18.59,18.59,0,0,1-2.29,1.42,1.62,1.62,0,0,1-1.43-.24c-.27-.29-.16-1-.16-1.47,0-.15.17-.31.3-.44,4.89-5.12,7.4-11.64,10.5-17.82,1.11-2.2,2.1-4.47,3.14-6.71,7.09-15.33,19.32-22.84,36-22.94a146.87,146.87,0,0,1,39.29,5.19c4.77,1.29,9.53,2.58,14.29,3.92a9.48,9.48,0,0,0,6-.09,9.2,9.2,0,0,1,7.85.87,72.26,72.26,0,0,1,6.92,4.86,27.55,27.55,0,0,0,2.32,1.84,5,5,0,0,0-.2-.69c-2.53-4.93-5-9.88-7.6-14.78a55.09,55.09,0,0,0-14.95-17.9,40.16,40.16,0,0,0-8.59-4.9,85.27,85.27,0,0,1-13-7.11c-6-4.06-12.15-8.08-18.51-11.62A71.1,71.1,0,0,0,120,255.05c-2.78-.85-6-.68-8.94-.51-3.53.2-7,1.17-10.59.37-4.74-1.08-9.53-2-13.8-4.61a3.62,3.62,0,0,0-2.43,0,11.06,11.06,0,0,0-2.79,1.24A36.29,36.29,0,0,0,71.09,261a15.61,15.61,0,0,0-3.3,10.46,24,24,0,0,1-2.59,12c-2.5,5-4.48,10.13-4.77,15.8a2.55,2.55,0,0,1-1.2,2,2.71,2.71,0,0,1-2.42-.55,16.22,16.22,0,0,1-2.55-4.65,33.16,33.16,0,0,1-1.1-5.85,14.11,14.11,0,0,0-6.41-10,35.33,35.33,0,0,1-5.58-4.55c-3.61-3.81-4-8.45-2.77-13.34.18-.73.28-1.48.44-2.39-1-.15-1.84-.25-2.65-.39a56.08,56.08,0,0,1-17.89-6c-2.9-1.6-5.94-2.93-8.91-4.38a15.88,15.88,0,0,1-6.83-6c-1.07-1.76-1.7-3.6-.88-5.66.9-2.28,1.77-4.57,2.65-6.85a27.56,27.56,0,0,0,1.54-4.21c.7-3.55,3.29-5.34,6.13-6.88.64-.34,1.62-.05,2.26-.05-2.32-3.88-4.79-7.78-7-11.8s-4.06-7.93-6.12-11.89c-1.4-2.69-.22-4.74,2.63-5.93,4.44-1.85,8.79-1.64,13.29-1.26,1.24.1,2.47.43,4,.69a10.84,10.84,0,0,1-.22-1.7,22,22,0,0,1,.28-4.79c.73-2.79,2.08-3.7,5-3.79a22.09,22.09,0,0,1,9.33,1.66c6.56,2.73,13.13,5.42,19.78,7.91,6.16,2.3,11.61,5.53,15.91,10.58,2,2.29,4,4.5,6,6.73a34,34,0,0,1,8.42,19c.6,4.72,1.15,9.45,1.59,14.18a11.89,11.89,0,0,1-.33,4.28,4.72,4.72,0,0,0,2.87,5.85c6.76,2.54,13.54,4.48,21,2.93,5.14-1.06,10.18.11,15,2.12a74,74,0,0,1,12.86,6.52c6.11,4.08,12.36,7.94,18.55,11.89,1.07.67,2.18,1.27,3.68,2.15-1.64-4.89-2.13-9.71-4.82-13.79q-6.47-9.81-13-19.57-7.57-11.35-15.16-22.69c-7.92-11.89-9.9-24.78-6.24-38.5,1.22-4.58,3-9,4.47-13.54a6,6,0,0,1,.52-1.15c.85-1.43,2.14-1.44,2.89,0a15.41,15.41,0,0,1,.86,2.56,21.85,21.85,0,0,0,8.36,12.26,127.39,127.39,0,0,1,17.89,15.73c4.35,4.49,7.67,9.56,8.68,15.92.7,4.38.07,8.64-.74,12.91-1.5,8-3.3,15.91-3.91,24-.22,2.81-.32,5.63-.55,8.44-.11,1.26-.42,2.51-.71,4.21,1.36,4.34,2.91,9.25,4.53,14.42a10.37,10.37,0,0,0,1.17.55c7.67,2.76,13.53,8,18.75,14a70.37,70.37,0,0,1,9,14.11c3.21,6.27,6.55,12.48,9.64,18.81,2.14,4.38,4,8.91,5.91,13.37.41.93.77,1.88,1.15,2.82h.42c0-.65,0-1.31,0-2-.86-9.47-1.55-19-2.65-28.41-1.44-12.32-3.26-24.6-4.8-36.91-1.73-13.89-2.13-27.86-2.59-41.83q-.84-26.34-2.14-52.72a95.15,95.15,0,0,0-6.2-29.58c-4-10.57-7.77-21.26-11.59-31.92a6.15,6.15,0,0,0-2.91-3.5,59,59,0,0,1-11.5-8,34.38,34.38,0,0,0-3-2.24c-2.83,1.44-5.41.39-6.3-2.6a4.53,4.53,0,0,0-1.91-2.69,20.3,20.3,0,0,1-6-6.64c-4.16-6.87-8-13.91-10-21.76a31.06,31.06,0,0,1-1-5.31q-.84-10.08-1.46-20.18a64,64,0,0,1,1.3-17.24c.41-2.49.69-5,.85-7.51a26.9,26.9,0,0,1,.28-3.23c1-4,1.78-8,1.24-12.14-.14-1.07-.13-2.46,1.13-2.75a4.19,4.19,0,0,1,3,.63,22.66,22.66,0,0,1,3.77,3.35c8.59,9,17.21,17.92,24.75,27.79A103.65,103.65,0,0,1,191.56,76c.33,1.7.34,3.47.55,5.2.11.82.38,1.62.48,2.44a4.11,4.11,0,0,1,0,2.09C190.3,90.59,189.86,96,188.36,101c-1.39,4.72-2.93,9.4-4.48,14.08-.18.54-.83.93-1.37,1.51.29.85.6,1.82,1,2.77q5.68,15.7,11.4,31.41A88.9,88.9,0,0,1,200,176.9c.79,15.34,1.35,30.69,2,46,.35,8.91.54,17.83,1,26.73.31,6.31.88,12.61,1.34,18.92h.4a24.25,24.25,0,0,0,.47-4.24c-.41-7.71,1.76-15,3.31-22.44,1.34-6.43,2.66-12.86,4-19.27a48.37,48.37,0,0,1,4.65-12.87c6.3-11.71,10.13-24.3,13.46-37.09,2.09-8,4.64-16,7-23.94.94-3.22,1.79-6.46,2.73-9.85a6.79,6.79,0,0,1-1.91,0c-1-.38-2.33-.7-2.68-1.45-3.65-7.78-8.66-14.93-11.07-23.28a42.18,42.18,0,0,1-1.09-6c-1.4-10.57-1-21.16-.14-31.74.37-4.47,2.24-8.5,4-12.49,3.68-8.1,8.15-15.73,14.77-21.86a27.08,27.08,0,0,1,5.34-4c2.56-1.41,4.28-.42,4.85,2.43,1.8,9,4.91,17.6,7.67,26.3A44.48,44.48,0,0,0,263,73,58.37,58.37,0,0,1,268.73,95c.37,4.65-1.23,8.92-2.66,13.19-2,5.81-4.12,11.56-6.3,17.3a5.82,5.82,0,0,1-2,2.5c-3.88,2.74-7.84,5.38-11.82,8a27.7,27.7,0,0,1-3.24,1.58c-.53,4.95-2.2,9.6-3.59,14.33-2.87,9.7-5.7,19.41-8.28,29.19a123.11,123.11,0,0,1-10.3,27.13c-4,7.49-6,15.61-7.73,23.79-1.66,7.65-3.13,15.33-4.61,23a40.47,40.47,0,0,0-.51,5.38c-.25,4.27-.39,8.54-.72,12.8,0,.66-.84,1.27-1.28,1.9l-.54-.19c.52,3.93,1,7.86,1.57,11.78,2.31,16.34,4.69,32.68,5.44,49.19.48,10.63.46,21.29.69,31.93a81.13,81.13,0,0,0,.65,9.21c.21-.46.44-.9.62-1.36,2.66-6.78,5.79-13.42,7.88-20.37,4.46-14.82,8.53-29.78,10.43-45.19a127.27,127.27,0,0,0,.87-18.92c-.29-10.44,1.2-20.65,2.81-30.9,1-6.12,1.52-12.31,2.32-18.46.9-6.79,3.29-13.18,5.2-19.71a106.35,106.35,0,0,1,25-43.46c7-7.51,15.15-13.57,24.91-17.19a6.63,6.63,0,0,1,1.37-.44c1.2-.13,1.84.7,1.39,1.81a6.78,6.78,0,0,1-.86,1.38,58.69,58.69,0,0,0-8.63,17.39c-1.95,6-4.11,12-6.41,17.84-4,10.34-6.12,21.14-8.07,32a49,49,0,0,1-2.8,9.47c-3.15,7.84-8,14.69-13.19,21.26a64.14,64.14,0,0,0-11.5,21.54c-1.55,5.1-3.85,10-5.9,14.94-.94,2.26-2.1,4.42-3.13,6.64a4.63,4.63,0,0,0-.4,1.36,218.51,218.51,0,0,1-5.86,30.22,1.66,1.66,0,0,0,0,1.08l2.32-2.91c-.68-2.11-.6-2.58,1.16-3.81,9.74-6.79,18.07-15.1,26-23.87a50,50,0,0,1,14.53-11.49c3.83-1.93,7.95-2.64,12.15-3.25,13-1.85,24.71,1.36,35.62,8.29,4.67,3,9.33,6,14.09,8.82,2.37,1.41,4.94,2.49,7.42,3.72.81.4,1.77.77,1.45,2s-1.22,1-2.08,1c-7.64-.62-14.67,1.59-21.42,4.82a252.54,252.54,0,0,1-27.64,11.09,36.11,36.11,0,0,1-29.08-1.95c-1.24-.63-2.54-1.11-3.79-1.7-4.65-2.16-9.22-1.74-13.77.35-2.72,1.26-5.52,2.37-8.24,3.63a8,8,0,0,0-2.48,1.71,45.53,45.53,0,0,0-10.73,19.17c-1.83,6.64-4.81,13-7.18,19.46-1.53,4.23-2.89,8.52-4.29,12.79a4.35,4.35,0,0,0,0,1.44c.21,13.85.4,27.7.66,41.55a9.22,9.22,0,0,0,.9,3.17c1.26,3.05,3,6,3.85,9.1a62.65,62.65,0,0,0,4.92,12.59,31,31,0,0,1,3.08,9.76c.58,3.49,1.49,6.93,2.25,10.38,0,.24.19.5.13.71-.95,3.13,1.7,5.46,1.56,8.41h.45c.46-1.73.87-3.47,1.38-5.19,1.49-4.95,2.92-9.93,4.56-14.84a37.05,37.05,0,0,1,7.6-13,159.91,159.91,0,0,0,16.1-22,83.39,83.39,0,0,1,16.89-19.66,2.67,2.67,0,0,0,.53-3.35c-1.92-3.94-4-7.82-5.63-11.88a38.59,38.59,0,0,0-5.55-9.46c-.81-1-1.55-2.16-2.45-3.12-3.87-4.15-4.05-8.89-2.5-14a42.8,42.8,0,0,0,1.4-6,6.67,6.67,0,0,0-.69-2.63,13.21,13.21,0,0,1-1-3.12,2.37,2.37,0,0,1,2.06-2.66,2.15,2.15,0,0,1,.67,0,8,8,0,0,1,3.34.63c5,2.51,10.07,1.68,15.13.22,1.39-.4,2.76-.85,4.14-1.3a11.3,11.3,0,0,1,7.61,0,2,2,0,0,0,1.61-.34c2.2-1.77,4.32-3.66,6.51-5.44.46-.37,1.24-.79,1.67-.64a1.91,1.91,0,0,1,.87,1.55,9.3,9.3,0,0,0,2.3,6.24c1.45,1.88,2.33,4.19,3.54,6.26a3.66,3.66,0,0,0,1.58,1.51,24.77,24.77,0,0,0,9.5,1.89,16.41,16.41,0,0,1,3.76.41,2.36,2.36,0,0,1,2.22,2.51,2.78,2.78,0,0,1-.08.49,8.64,8.64,0,0,1-1.12,3.18,23.73,23.73,0,0,0-3.42,8.68,18.4,18.4,0,0,1-7.64,12c-2.22,1.63-4.39,3.35-6.81,5.2,2,.27,3.69.49,5.38.75a12.65,12.65,0,0,1,7.24,3.76c3.79,3.78,7.65,7.49,11.48,11.23.21.21.52.4.61.66.23.63.62,1.39.44,1.93s-1,.67-1.63.75a16.64,16.64,0,0,1-2.34-.08c-3.25,0-6.5-.06-9.75-.06q-6.31,0-12.64.06a9,9,0,0,1-6.81-3.21c-1.62-1.7-3.24-3.47-5.82-3.65-1.13-.08-2.27,0-3.41-.06-2.45-.07-4.89-.19-7.34-.23a3.51,3.51,0,0,0-2.16.33c-6.34,5.31-12.38,10.92-17,17.89-2,3-4.08,6-6,9A131.28,131.28,0,0,1,247,451a37.86,37.86,0,0,0-5.79,8.8c4.85-1.41,9.71-1,13.74-3.86,1.72-1.21,3.44-2.44,5.1-3.73a61.18,61.18,0,0,1,25.55-12.14c10.79-2.2,20.47.36,28.61,7.89,3.89,3.6,7.52,7.48,11.26,11.23.21.21.51.42.57.68.15.66.45,1.47.2,2s-1.11.63-1.7.62a41.91,41.91,0,0,0-5-.38c-4.61.39-9.2,1-13.8,1.54-1.74.21-3.46.51-5.18.78a31.55,31.55,0,0,1-12.35-.74c-4.9-1.19-9.89-2-14.88-2.8a31.86,31.86,0,0,0-5.94.11c-2.1.08-4.21.17-6.31.32-2.38.16-4.77.37-7.15.59-1.27.12-2.5.32-3.49-.86a1.79,1.79,0,0,0-1.44-.26c-2.49.44-5,1-7.45,1.45a2.54,2.54,0,0,0-2.23,2c-1.64,5.61-3.34,11.19-4.93,16.81-.73,2.6-1,5.32-1.9,7.87-2.19,6.49-4.44,13-6.92,19.35-2.8,7.24-5.7,14.45-8.89,21.52s-6.6,13.93-10.22,20.73c-2.89,5.41-6.23,10.57-9.35,15.86a6.89,6.89,0,0,0-.87,2.14c-5.1,27.48-11.7,54.64-17.78,81.91-2.58,11.58-5.2,23.16-6.44,35-.42,4-.76,8.12-1.15,12.17l.4.21a15.13,15.13,0,0,0,1.45-1.2c1.27-1.36,2.58-2.7,3.75-4.15a141.86,141.86,0,0,0,26.3-51,599.51,599.51,0,0,0,13-59.26,107.79,107.79,0,0,1,3.32-13.48,47.5,47.5,0,0,1,9.68-17.41A119.84,119.84,0,0,1,256,528.71a17.07,17.07,0,0,1,3.5-1.81,8.26,8.26,0,0,1,2.53,0,8.56,8.56,0,0,1-.46,2.46c-.77,1.42-1.81,2.7-2.67,4.08-4.64,7.46-7.71,15.64-10.74,23.84q-2,5.41-3.67,11a32.41,32.41,0,0,0-1.18,13.06,29,29,0,0,1-3.55,17.94c-5,8.84-10.27,17.48-17.63,24.57-5.34,5.16-9,11.44-12.43,17.86-1.21,2.24-2.5,4.36-5.23,5.12-.51.15-1,1-1.17,1.62a146.84,146.84,0,0,1-10.75,24.64,131.2,131.2,0,0,1-16.28,23.39c-1.38,1.55-3.18,2.72-4.7,4.16a2.8,2.8,0,0,0-.85,1.78c-.25,4.51-.37,9-.61,13.54-.8,15.32,1.22,30.42,3.38,45.51a289.68,289.68,0,0,1,2.83,55.68c-.16,3.13-.09,6.26-.12,9.4a8.65,8.65,0,0,1-.09,1.61c-.2.9-.88,1.49-1.71,1a2.42,2.42,0,0,1-1-1.75c0-1.29.38-2.59.41-3.89.15-8.55.29-17.1.35-25.65.09-12.69-1.43-25.27-3.33-37.77a256.62,256.62,0,0,1-2.66-56c.06-.92.3-1.78-.94-2.39-.85-.42-.37-1.29.22-2a3.55,3.55,0,0,0,1.06-1.88c1.11-20.32,5.94-40,10.3-59.75,4.88-22.11,9.62-44.25,14.41-66.38.22-1,.63-2.05-.32-3.05-.21-.22.24-1.14.48-1.7a13.31,13.31,0,0,0,1.18-2.54q2.88-16.74,5.64-33.5a2.25,2.25,0,0,0-.61-2.46c-.44-.36-.49-1.18-.7-1.81-1.07-3.24-2.1-6.5-3.23-9.73a2.3,2.3,0,0,0-1.2-1.16,74,74,0,0,0-8.86-3.6,79.85,79.85,0,0,0-9.21-1.59,23.38,23.38,0,0,1-3.91-.6,29.88,29.88,0,0,0-11.23-1.38c-9.09.39-18-1-27-2.19-6.45-.9-12.86-2-19.33-2.71a65.53,65.53,0,0,0-24,1.43,14.26,14.26,0,0,1-3.74.41,1.72,1.72,0,0,1-1.33-.92,1.84,1.84,0,0,1,.51-1.56,23,23,0,0,1,3.07-2.22,244.27,244.27,0,0,1,48.91-23.08c11.86-4.14,22.77-1.85,32.66,5.74a60.09,60.09,0,0,1,10.5,10.4c2,2.59,4.21,5.11,6.42,7.58,4.25,4.72,8.15,9.66,10.81,15.58-.13-1.18-.26-2.36-.37-3.54s-.2-2.52-.32-3.78c-1-10.25-1.92-20.5-4.14-30.59a62,62,0,0,0-6.6-16.36c-4.94-9-10.08-18-15.14-26.93a10.71,10.71,0,0,0-.59-.9,18,18,0,0,1-3.28,0,16,16,0,0,1-7.84-4.17c-3.53-3.27-7-6.56-10.62-9.78a39.27,39.27,0,0,1-8.29-10.63,17.69,17.69,0,0,1-2.13-11.17c.31-2.15.86-2.36,3-2.24,8.86.52,16.53,4.45,24.22,8.32,4,2,6.16,5.44,7,9.76,1,5.22,1.11,10.41-.94,15.47a2.47,2.47,0,0,0,.1,1.81c2.69,4.84,5.46,9.64,8.19,14.46,3.46,6.13,6.94,12.26,10.34,18.43,4.67,8.46,6.17,17.82,7.36,27.21,1,8,1.68,15.93,2.52,23.9.07.64.24,1.28.36,1.92ZM76.41,344.9c1-.46,1.7-.8,2.43-1.19a43.71,43.71,0,0,1,18.28-5.17c9.5-.48,19-1.11,28.51-1.35,6.65-.16,12.93-1.43,18.68-4.77,3.06-1.78,5.94-3.87,8.85-5.91,5.41-3.81,10.78-7.68,16.18-11.51.57-.41,1.17-.77,1.75-1.15a5.19,5.19,0,0,0-2.31.28,70.59,70.59,0,0,1-19.48,3.57c-10.37.25-20.46,2.23-30.43,4.87-4,1.07-7.87,2.62-11.83,3.85-.54.17-1.26-.21-1.89-.34.27-.58.4-1.37.86-1.71a8.84,8.84,0,0,1,2.59-1.24c12.53-4.07,25.25-7.19,38.48-7.71a73.58,73.58,0,0,0,19.37-3.15c.52-.16,1-.37,1.52-.56a94.06,94.06,0,0,0-10-3.11,145.61,145.61,0,0,0-38.4-5c-14.47.11-25.73,6.12-32.49,19.28C83.41,330,80.05,337.35,76.41,344.9Zm159.74-55.84c.91-2.78,1.84-5.55,2.73-8.33,2.33-7.28,4.56-14.59,7-21.83,2.06-6.16,4.36-12.24,6.51-18.38a17,17,0,0,0,.81-3.51,72,72,0,0,1,4.56-17.24,80.58,80.58,0,0,1,3.35-7.4,2,2,0,0,1,1.59-1c1,.23.83,1.16.55,1.95a12.72,12.72,0,0,1-.58,1.31,74.61,74.61,0,0,0-7.11,23,18.61,18.61,0,0,1-.88,3.68c-1.6,4.73-3.07,9.52-5,14.14-4.91,12-7.84,24.65-12,36.91-.55,1.63-.88,3.33-1.32,5l.44.14c1.9-4.8,4.15-9.49,5.62-14.41a66.05,66.05,0,0,1,11.9-22.33c5.08-6.38,9.79-13,12.84-20.63a47.53,47.53,0,0,0,2.7-9.12c1.87-10.44,3.84-20.84,7.59-30.82q3.9-10.38,7.51-20.89A54.55,54.55,0,0,1,291.28,166a7.09,7.09,0,0,0,.46-1.1c-.87.38-1.48.63-2.07.92a66,66,0,0,0-18.37,13.57c-11,11.58-19.43,24.79-24.28,40.14-2.79,8.83-5.83,17.58-6.86,26.89-.9,8.14-2.09,16.24-3.3,24.33a77,77,0,0,0-.71,18.33ZM158.67,97.78c1.43-3.77,3.09-7.13,6.09-9.17a104.47,104.47,0,0,1,11.85-6.46,8.5,8.5,0,0,1,3.53-.55c3.11-.07,6.22,0,9.59,0-.17-1.58-.24-3.44-.59-5.24a100.27,100.27,0,0,0-18.75-42.23c-8-10.5-17.13-20.06-26.4-29.46-.53-.53-1.14-1-1.71-1.47a19.06,19.06,0,0,0,.57,6.11c1,3.27,2.35,6.44,3.63,9.62a35.35,35.35,0,0,1,3,12.39c.16,7.46.33,14.93.43,22.39a52.44,52.44,0,0,0,1.65,14,203.66,203.66,0,0,1,6.29,28.36A8.4,8.4,0,0,0,158.67,97.78Zm99.72,22c0-1.7.08-3.14,0-4.57-.2-3.06-.44-6.11-.79-9.15-.36-3.22-.85-6.43-1.33-9.64-.39-2.67-.84-5.33-1.27-8a82.6,82.6,0,0,0-1.51-8.85c-1.79-6.46-3.44-12.93-3.51-19.67-.06-5.66.09-11.31.12-17,0-.91-.17-1.83-.29-3.08A15.83,15.83,0,0,0,247.42,41a36.75,36.75,0,0,0-3.49,2.85c-6.36,6-10.67,13.3-14.23,21.12-1.73,3.82-3.55,7.68-3.88,12a158.42,158.42,0,0,0,.06,30.64A40.37,40.37,0,0,0,229,119c.84,2,1.89,3.81,2.94,5.88,1.64-3.35,3.72-4.27,7.15-4a25.92,25.92,0,0,0,6.21-.54c1.47-.24,2.87-.91,4.33-1.23,2.93-.65,5.9-1.18,8.8.66ZM83.3,245.06l.23-.29c-.44-.76-.85-1.55-1.32-2.29Q76.62,233.74,71,225a55.22,55.22,0,0,0-22.54-20.49c-7.32-3.52-14.3-7.73-22-10.49-1.4-.5-2.84-.86-4.26-1.3a33.39,33.39,0,0,0-5.62-1.7c-4.12-.53-8.24-.85-12.16,1.28-1.53.84-1.91.87-1.07,2.45,3.6,6.74,7.21,13.47,10.94,20.13a19.92,19.92,0,0,0,3.26,3.84c2.46,2.5,5.64,3.83,8.75,5.31C34.61,228,42.91,232,51.22,235.92a58.45,58.45,0,0,0,16.35,5.52c4.52.68,9.06,1.27,13.37,2.9C81.73,244.63,82.52,244.82,83.3,245.06Zm163.42,80.67.1.21a2.26,2.26,0,0,0,.52,0c5-1.45,9.83-1.65,14.57.8,1.07.56,2.22.95,3.29,1.49a33.52,33.52,0,0,0,27,1.89,234.71,234.71,0,0,0,27.3-10.93,49.47,49.47,0,0,1,16-5c.54-.07,1.08-.18,2-.34-7.26-4.48-14-8.83-21-12.9A46.38,46.38,0,0,0,286,295.07c-4.39.6-8.76,1.31-12.54,3.7a54.84,54.84,0,0,0-8.81,6.57c-5.24,5-10.15,10.42-15.2,15.67v.31c.62-.31,1.19-.58,1.75-.87,4-2,7.85-4.24,11.92-6,10-4.4,20.35-6.66,31.29-5a77.8,77.8,0,0,1,10,2.28,30.22,30.22,0,0,0,11.22,1.32,2.85,2.85,0,0,1,1.42,0,2.14,2.14,0,0,1,1.09,1.16c.06.28-.54.82-1,1.06a3.26,3.26,0,0,1-1.24.16c-5,.61-9.8-.65-14.55-2.07-12.86-3.87-25.28-2-37.28,3.32-5,2.24-9.85,5.06-14.76,7.62-.86.43-1.72.94-2.6,1.43ZM127.54,169.05c-1.41,4.51-3,8.75-4.05,13.12a42.77,42.77,0,0,0,6,34.9c5.45,8.23,11,16.43,16.46,24.64,1.93,2.88,3.92,5.71,5.89,8.57a1.1,1.1,0,0,0,0-.94,77.77,77.77,0,0,1-4.35-19.15A49.38,49.38,0,0,0,142,212a93.49,93.49,0,0,1-3.8-9.55,1.22,1.22,0,0,1-.12-.7c.14-.43.32-1.08.6-1.15a1.55,1.55,0,0,1,1.37.4,13.93,13.93,0,0,1,1.13,2.45c1.17,2.83,2.13,5.77,3.53,8.49a47.66,47.66,0,0,1,5.16,17,82.43,82.43,0,0,0,6,23.91c.39.9.84,1.78,1.39,2.94.3-2.51.62-4.63.79-6.76.66-8.36,2.5-16.53,4-24.75a34.9,34.9,0,0,0,.73-11.48c-.86-6-4-10.76-8.12-15A144,144,0,0,0,136,181.54a15.89,15.89,0,0,1-4.86-5.26C130,174,128.87,171.69,127.54,169.05Zm80.14,463.69c2.73-5.4,5.36-10.89,6.82-16.81s4-11.59,6.41-17.23a152.33,152.33,0,0,0,6.74-17.89c1.69-5.86,3.07-11.76,6.46-16.94.57-.87.73-2.66,2.25-1.87s.44,2.1-.13,3a46.38,46.38,0,0,0-6.12,16.49,9.53,9.53,0,0,1-.44,1.56q-3.76,9.48-7.54,18.94c-1.36,3.41-3.07,6.73-4,10.25a133.9,133.9,0,0,1-7.83,21.33c-.69,1.49-1.25,3-1.87,4.57a4.21,4.21,0,0,0,1.14-1.44c2.88-5,5.85-9.82,10.06-13.82,7-6.62,12-14.69,16.92-22.87a29.16,29.16,0,0,0,4.27-19.18A30.69,30.69,0,0,1,242,568c3.82-12.51,8.25-24.79,15-36.11.17-.29.29-.6.44-.9a8.31,8.31,0,0,0-2.46,1.17,165.57,165.57,0,0,0-17.89,14,56.59,56.59,0,0,0-18.27,33.22c-1.75,9.78-3.46,19.57-5.47,29.3-1.71,8.1-3.79,16.09-5.68,24.11ZM190.62,509.16l.25-.23c-.42-.54-.81-1.11-1.25-1.63-3.66-4.32-7.21-8.74-11-12.9a80.81,80.81,0,0,0-9.47-9.12c-9-7-19-9.06-29.92-5.28a244.51,244.51,0,0,0-45.79,21.21,12.11,12.11,0,0,0-1.15,1l2-.36a72,72,0,0,1,19.44-.7c7,.67,13.84,1.87,20.75,2.87,9.48,1.38,19,2.56,28.59,2.21a34.35,34.35,0,0,1,6.64.55c5.49.88,11,1.89,16.59,2.88-.19-.26-.27-.44-.39-.51-5-2.8-10-5.93-15.18-8.31-5.87-2.68-12.1-4.5-18.71-4-5.29.36-10.56.89-15.84,1.27-2.4.16-4.81.19-7.21.13-.44,0-.87-.75-1.31-1.15.53-.43,1-1.19,1.58-1.23,5.27-.38,10.55-.61,15.82-1,4.62-.3,9.24-1,13.87-.11A63.59,63.59,0,0,1,181,503.3Zm20.06-49c-4.41,33.65-6.21,67.18-12.87,100.11a2.43,2.43,0,0,0,.93-.87c1.45-2.5,3-4.94,4.31-7.52,3.13-6.24,5.91-12.66,9.23-18.79,7.57-14,12.41-29.07,17.29-44.13a4.11,4.11,0,0,0,0-2.09c-.46-2-1-4-1.57-5.92-1.4-4.74-3.34-9.09-7.55-12.17-2.61-1.91-4.88-4.29-7.3-6.46C212.47,461.69,211.74,461.08,210.68,460.16ZM79.53,246.77a1.24,1.24,0,0,1,.11-.36,49.37,49.37,0,0,0-6.78-1.68,66.71,66.71,0,0,1-24.66-7.64c-2.81-1.51-5.68-2.91-8.57-4.27-6-2.84-12.18-5.49-18.15-8.48-2.34-1.17-4.53-2.34-7.22-2.13-.64,0-1.43-.33-1.9-.06-1.89,1.08-3.55,2.35-4.08,4.75a37.16,37.16,0,0,1-1.88,5c-.77,2-1.53,4-2.32,6A4.26,4.26,0,0,0,4.77,242a13.71,13.71,0,0,0,5.68,4.88c2.92,1.42,5.93,2.7,8.74,4.3a61.06,61.06,0,0,0,12.92,5c7.64,2.28,14.65.65,21.28-3.32,7.56-4.54,15.53-7.34,24.53-6.16A14.35,14.35,0,0,0,79.53,246.77Zm4.75-5.58.39-.14a16.68,16.68,0,0,0,0-2c-.48-4.43-1-8.85-1.49-13.27A32.42,32.42,0,0,0,74.84,207c-1.64-1.77-3.27-3.54-4.8-5.39-4.44-5.35-10.12-8.74-16.6-11.09-6.32-2.3-12.54-4.91-18.76-7.5a20.84,20.84,0,0,0-8.61-1.58,2.62,2.62,0,0,0-2.75,2.08,8.66,8.66,0,0,0,.63,6.32c.38.88,2,1.21,3.11,1.78a8.46,8.46,0,0,0,1.17.48c8.39,3.09,16.07,7.64,24,11.73a44,44,0,0,1,15.94,13.3c5.14,7.2,9.94,14.63,14.88,22C83.47,239.77,83.86,240.49,84.28,241.19Zm218.51,108a1.57,1.57,0,0,0-.47.3c-4.36,3.81-8.94,7.41-13.08,11.41a31.59,31.59,0,0,0-8.76,16.29c-1.76,8.25.2,16.42.93,24.61,0,.31.81.87,1.08.79a6.41,6.41,0,0,0,2.86-1.35,53.5,53.5,0,0,0,5.55-7.09,116.9,116.9,0,0,0,5.85-11,45.6,45.6,0,0,1,7.6-11.57c1.3-1.41,2.41-3,3.63-4.49a7,7,0,0,0,1.44-5.42c-.28-2.9-2-5.12-3.46-7.45-1-1.64-2.08-3.26-3.17-5ZM41.36,259.9a29.28,29.28,0,0,1-.52,2.93c-1.13,4.14-.83,8.05,2.27,11.26a34.67,34.67,0,0,0,5.19,4.16,16.25,16.25,0,0,1,7.26,11.36c.28,1.91.59,3.81,1,5.69a20.28,20.28,0,0,0,1.09,2.9l.43-.07c.5-6.44,3.35-12.07,5.78-17.88a19.63,19.63,0,0,0,1.43-7.9A21,21,0,0,1,72.09,256c2.35-2.29,4.88-4.42,7.35-6.65a8.64,8.64,0,0,1-.88-.18C70,248,62.38,250.36,55.13,254.64a42.08,42.08,0,0,1-6.48,3.14A68.74,68.74,0,0,1,41.36,259.9ZM322,459.29a4.36,4.36,0,0,0-.48-.65c-3.38-3.34-6.61-6.87-10.21-10a28,28,0,0,0-22.89-6.59c-9.09,1.24-17.08,5.27-24.59,10.34-1.53,1-2.91,2.29-4.57,3.6a5.61,5.61,0,0,0,.82,0c4.7-1.27,9.43-2.48,14.11-3.84a49.23,49.23,0,0,1,22.19-.84c1.3.22,2.6.47,3.88.81.9.23,1.58.83,1.22,1.84s-1.17.67-2,.48a52.14,52.14,0,0,0-15.59-1.5c-7.08.49-13.76,2.88-20.59,4.56a28.09,28.09,0,0,0-2.77.92,27.83,27.83,0,0,0,5.24.28c2.59-.07,5.22-.58,7.74-.23,5.17.7,10.32,1.67,15.41,2.87a28.54,28.54,0,0,0,10.73.73c2.8-.4,5.59-.9,8.39-1.25C312.7,460.29,317.35,459.81,322,459.29ZM154.71,94.72l.37-.31c0-.3-.05-.59-.09-.88a134.54,134.54,0,0,0-4.63-21,67,67,0,0,1-2.85-21.39c.09-5.24,0-10.48-.15-15.71-.13-4.34-.41-8.68-2.06-12.78-1.22-3-2.47-6.06-3.71-9.09l-.57.06c-.21,1.64-.44,3.27-.62,4.91-.32,2.8-.59,5.61-.93,8.41-.39,3.28-1.19,6.56-1.18,9.84,0,6.31.47,12.62.84,18.93a63.84,63.84,0,0,0,1,10.77c2.12,9.2,6.46,17.46,11.8,25.2A30.73,30.73,0,0,0,154.71,94.72ZM289.1,400.63l.32.44a17.2,17.2,0,0,0,3-1.35,17,17,0,0,1,7.69-2.9,13,13,0,0,0,6.43-2.65c2.67-2.06,5.34-4.12,8.06-6.11a16.25,16.25,0,0,0,6.85-10.84,24,24,0,0,1,3.61-9.17,17.5,17.5,0,0,0,1.07-2.48L312,363.43c-.12,3.53-2.71,6.07-4.94,8.8-.8,1-1.74,1.86-2.47,2.88a46.83,46.83,0,0,0-4.08,6.15C297.12,388,294.22,394.9,289.1,400.63Zm-64.64,64.73a22.09,22.09,0,0,0-2.28-9.71c-2.08-4.07-4.19-8.14-5.13-12.68a23.59,23.59,0,0,0-13.7-17.5,18.67,18.67,0,0,1-3.14-1.78c-2.76-2-5.46-4.13-8.17-6.21-.3-.23-.58-.47-1.1-.89.12.9.14,1.5.28,2.08,1.28,5.13,2.33,10.35,3.93,15.38,2.61,8.22,6.89,15.47,13.59,21.14,3.31,2.8,6.48,5.77,9.71,8.65l3.46,3,.32-.22c-.73-2-1.46-3.91-2.17-5.87-1.68-4.67-4.84-8.42-7.63-12.41a50.26,50.26,0,0,0-9.9-11.18,4,4,0,0,1-1.3-1.46,1.78,1.78,0,0,1,.29-1.55c.18-.22,1.06-.13,1.41.12a26.41,26.41,0,0,1,2.58,2.26A81,81,0,0,1,221.45,458C222.67,460.38,223.47,462.9,224.46,465.36Zm53.77-65.76.46-.08c-.09-1.07-.17-2.14-.28-3.21-.34-3.23-.88-6.45-1-9.69-.15-4.69-.1-9.47,1.68-13.89,2.79-7,6.64-13.23,13-17.65a16,16,0,0,0,1.36-1.24l-.18-.38a17.25,17.25,0,0,0-3.52,0c-2,.45-4,1.21-6,1.76-5.49,1.49-11,2.36-16.38-.32a11.89,11.89,0,0,0-2.68-.64c-.1.13-.21.26-.31.4.16.46.19,1,.5,1.35,1.72,1.66,1.66,3.62,1.16,5.7-.67,2.81-1.38,5.61-2,8.43a8.44,8.44,0,0,0,1.81,7.44c1.07,1.3,2,2.7,3.09,4a37.4,37.4,0,0,1,6.64,11.7A59.38,59.38,0,0,0,278.23,399.6ZM181.66,112.74a6.94,6.94,0,0,0,1.07-1.61c1.15-3.53,2.32-7.06,3.3-10.64,1.28-4.64,2.37-9.32,3.56-14,.39-1.52.16-2-1.46-2.16-5.57-.72-11.06-.89-16,2.5a9.79,9.79,0,0,1-1.44.74A18.2,18.2,0,0,0,162,95.94c-.87,1.67-.83,2.51.6,3.63,3.68,2.9,7.37,5.81,11.19,8.51C176.2,109.77,178.82,111.07,181.66,112.74Zm70.9-62a3.2,3.2,0,0,0-.33.73c0,.6-.08,1.21-.07,1.81,0,8.17.72,16.24,3.3,24.06a41.7,41.7,0,0,1,2,12.24,18.15,18.15,0,0,0,.67,4.45,60.66,60.66,0,0,1,1.93,14.87c.06,1.86.41,3.71.63,5.57h.49c1-2.7,2.09-5.37,2.93-8.11,1.1-3.55,2.45-7.07,2.17-10.91-.53-7-1.75-13.92-5-20.21a91.8,91.8,0,0,1-6.91-18.34c-.52-2-1.15-3.93-1.81-6.12ZM330.32,411.6c-3.17-3.29-6.18-6.3-9.05-9.43-4-4.36-8.9-5.13-14.36-3.9-1.52.35-3,.83-4.51,1.32-5.12,1.69-10.23,3.42-15.34,5.13a24.57,24.57,0,0,0,5,0c3.85-.4,7.31.31,10,3.33.48.53,1,1,1.54,1.52a6.77,6.77,0,0,0,5.2,2.08c7.16,0,14.16,0,21.52,0ZM142.2,400.21l-.53.36a14.82,14.82,0,0,0,1.63,8.06c3.22,6.68,8.74,11.3,14.2,16,.13-.12.2-.15.21-.19a1.57,1.57,0,0,0,0-.53c-.68-3.5.61-5.91,3.83-7.49a41.89,41.89,0,0,0,4.45-2.9V413c-.84-.38-1.67-.78-2.52-1.12-1.12-.44-2.24-.85-3.38-1.23a51.48,51.48,0,0,0-6.28-2,12.5,12.5,0,0,1-7.11-3.56Zm95.85-277c-2.66-.08-3.78,1.25-3.08,3.52.84,2.76,1.82,5.48,2.78,8.2.43,1.24,1.16,1.54,2.52,1.06,5.94-2.13,10.67-6.24,15.83-9.63.87-.57,1.29-2.75,1-3.77a2.29,2.29,0,0,0-2.7-1.62,32,32,0,0,0-6,1c-3.53,1-7,2.17-10.35,1.23ZM169.84,411.69c-2.77,4.3-2.77,4.3-7,6.82-.41.25-1,.39-1.22.74-.61.83-1.46,1.72-1.54,2.65a10.07,10.07,0,0,0,8.09,10.58,6.1,6.1,0,0,0,1.13.11C172.1,425.64,172.73,418.82,169.84,411.69Zm-2.71-.9c.68-1.49.75-1.6-.11-2.16-1.54-1-3.16-1.94-4.79-2.82a72.71,72.71,0,0,0-16.13-6.08,5.83,5.83,0,0,0-1.32,0c3.13,3.38,6.06,6.53,10.89,6.71a9.64,9.64,0,0,1,3.12.8C161.55,408.35,164.28,409.57,167.13,410.79Z"/></g></g></svg>