<?xml version="1.0" encoding="utf-8"?>
<!-- Generator: Adobe Illustrator 24.1.2, SVG Export Plug-In . SVG Version: 6.00 Build 0)  -->
<svg version="1.1" id="Layer_1" xmlns="http://www.w3.org/2000/svg" xmlns:xlink="http://www.w3.org/1999/xlink" x="0px" y="0px"
	 viewBox="0 0 354.7 692.6" style="enable-background:new 0 0 354.7 692.6;" xml:space="preserve">
<style type="text/css">
	.st0{fill:#FFFFFF;stroke:#FFFFFF;stroke-width:1.1;stroke-miterlimit:10;}
</style>
<g id="Layer_2_1_">
	<g id="Layer_1-2">
		<path class="st0" d="M269.1,519.5c-1.5-4.4-3.1-8.9-4.6-13.4c-2.3-6.8-4.4-13.6-6.6-20.4c-0.3-1-0.8-1.9-1.5-2.7
			c-10.2-11.5-19.6-23.6-27.1-37c-4.2-7.6-6.4-15.9-8.7-24.2c-3-11.1-6.2-22.1-11.7-32.3c-5.6-10.3-11.9-20.2-20.8-28.1
			c-3.7-3.3-8.1-5.7-12.1-8.6c-7.8-5.7-15.4-11.5-23.1-17.2c-1.1-0.7-2.4-1.1-3.7-1c-3.1-0.2-6.3-1.1-9.4-1.7
			c-2.4-0.4-4.7-0.6-7.1-1c-2.6-0.4-5.2-0.8-7.8-1.5c-7.6-2-15.3-3.4-23.3-3c-5.4,0.3-10.9,0-16.3-0.2c-6.8-0.2-13.5,0.9-19.8,3.3
			c-0.9,0.3-2,0.7-3,1c-3.8,1-6.2-1-5.5-4.7c0.9-4.7,2.6-9.1,6.5-12.4c5.1-4.2,11.2-6.2,17.6-7c9.1-1.1,17.8,0.5,26.6,3.1
			c15.5,4.6,29.8,11.7,43.6,20.1c0.4,0.3,0.9,0.4,1.4,0.4c-0.4-0.4-0.7-0.9-1.1-1.3c-10.6-11.4-19.8-24-27.5-37.5
			c-4.7-8.6-8.8-17.5-12.3-26.6c-3.6-9.1-9.2-17.1-15-24.8c-7.3-9.7-14.7-19.2-22.2-28.8c-0.7-0.9-1.6-1.6-2.6-2.1
			c-3.2-1.5-6.5-2.7-9.7-4.1c-8.1-3.6-14.7-9-18.2-17.3c-0.9-2.2-1-4.9-1-7.3c0-4.2-0.6-8.1-2.9-11.7c-1.2-1.8-0.9-2.6,1.1-3.6
			c2.5-1.2,5.2-1.6,7.3,0.1c6.3,5.1,12.8,10.2,18.6,16c3.7,3.6,5.5,8.6,6.7,13.7c0.1,0.7,0.4,1.4,0.8,2c3.5,3.5,3.3,7.8,2.9,12.2
			c0.1,0.9,0.5,1.8,1.1,2.5c4.5,5.8,9.2,11.3,13.5,17.2c6,8.2,11.8,16.6,17.4,25.1c1.8,2.7,3,5.8,4.6,9c7.4-3,14.8-5.2,22.7-3.5
			l0.2-0.6c-1.9-3.1-3.8-6.2-5.8-9.3c-0.7-1.1-1.4-2.1-2.2-3.1c-0.7-0.8-1.6-1.5-2.5-2c-1.4-0.6-2.9-1-4.3-1.5
			c-2.1-0.7-3.7-2.4-4.4-4.5c-0.5-1.1-1.3-2.1-2.3-2.9c-3.9-2.8-8.2-5.4-10.4-9.8c-1.7-3.4-3.1-7-4.2-10.7c-0.5-1.4,0.3-2.2,1.8-3.1
			c3.7-2.1,7.4-1.4,11.2-1.1c1.5,0.1,3,0.2,4.6,0.2c3.3,0,6.4,1.5,8.3,4.2c1.8,2.3,3.5,4.8,5.2,7.2c1.2,1.8,2.3,3.7,1.6,6
			c-0.1,0.2-0.1,0.3,0,0.5c2.2,4.2-0.2,8-1.2,11.8c-0.6,1.8-0.3,3.8,0.8,5.4c2.4,3.9,4.9,7.9,7.4,11.8c0.7,0.9,1.6,1.6,2.7,2
			c3.2,1.4,6.7,2.2,9.7,4c12.8,7.3,24.7,16.2,35.4,26.4c8.2,7.9,16.4,15.8,24.4,23.8c3,3,5.5,6.4,8.5,9.5c-0.2-1-0.4-1.9-0.7-2.9
			c-2.8-11-5.6-22.1-8.3-33.1c-0.4-1.9-1.5-3.6-3.1-4.6c-6-3.9-11.9-7.9-17.9-11.7c-4.2-2.6-8-5.7-10.3-10.1
			c-2.6-5.1-5.1-10.3-7.6-15.5c-0.4-1-0.3-2.1,0.2-3c1-1.1,2.2-0.1,3.1,0.7c3.2,2.8,6.3,5.7,9.6,8.4c4.8,4.2,10.5,6.7,16.9,9.1
			c-0.3-2.5-0.3-4.8-0.9-6.8c-5.5-17.4-12.7-34.2-21.5-50.1c-0.9-1.5-2.2-2.7-3.9-3.3c-4.6-1.5-9.2-2.6-13.9-3.6
			c-10-2.2-20.2-3.9-30.1-6.4c-21.6-5.5-38.4-17.8-51.2-36c-4.9-6.9-9.7-14-15.3-20.3c-4.6-5.2-10.1-9.6-15.5-14
			c-8.1-6.4-14.4-14.7-18.4-24.2c-0.6-1.4-1.8-3.1,0-4.4s3,0.5,4.1,1.5c11.5,10.5,23.9,20.1,34.5,31.7c5.8,6.3,13.2,10.6,20.4,15.2
			c5.6,3.5,10.6,7.9,14.8,13c6.5,7.8,13.3,15.2,20.2,22.6c3.7,4.1,8.3,7.3,13.4,9.5c3.3,1.3,6.2,3.5,9.4,5.1
			c1.2,0.7,2.5,1.3,3.9,1.6c5.3,1,10.6,1.9,15.9,2.9c2.6,0.5,5.1,1.2,7.8,1.9c0-0.3-0.1-0.5-0.1-0.8c-13.5-24.9-28.7-48.6-48.7-68.9
			c-10.7-10.6-22.2-20.5-34.4-29.4c-6.2-4.6-12.5-9-18.2-14.1s-10.9-10.4-16-16c-1.4-1.7-2.4-3.6-3.1-5.7c-0.4-1.5-1.8-2.4-3.3-2.4
			c-6.4-0.4-12.4-2.8-17.4-6.8c-1.9-1.7-3.2-4.2-6-4.9c-0.6-0.3-1.1-0.7-1.4-1.3c-3.8-4.6-8.4-8.6-13.5-11.8
			c-1.3-0.8-2.4-1.9-3.6-2.8C1.7,25.5,0.3,15.2,0.6,4.3c0-1.3,1-2.5,2.3-2.7C7,0.3,11.5,0.5,15.5,2.2c7.6,3.2,14.8,7,20.7,12.9
			c0.6,0.6,1.2,1.1,1.9,1.4c6.5,3.3,10.6,9.1,14.1,15.1c1.3,2.3,2.9,4.3,4.8,6.2c4.9,4.8,5.2,10.8,2.9,16.5c-2,5.1-0.2,8.8,2.5,12.3
			c6.1,7.8,13.2,14.7,21,20.7c11.6,8.9,23.4,17.7,34.5,27.2c15.5,13.1,28.5,28.6,40,45.4c0.2,0.3,0.5,0.7,0.7,1
			c0.1,0.1,0.3,0.1,0.6,0.3c-0.2-3.1-0.6-6-0.6-8.9c0.1-12.7-4.9-23.8-11-34.6c-5-8.7-10.3-17.3-14-26.6
			c-8.9-22.4-14.3-45.6-10.8-70c0.6-4,0.6-8,0.9-12c0-0.3-0.1-0.7,0.1-0.9c0.5-0.6,1-1.2,1.6-1.8C126,7,127,7.5,127,8.1
			c1,12.4,7.6,22.3,13.5,32.6c4,6.9,8.6,13.5,10.2,21.4c1.4,6.7,2.9,13.6,2.8,20.4c-0.1,12.4,1.7,24.8,5.3,36.7
			c1.4,4.8,2.7,9.7,2.2,14.7c-0.7,8.2,1.1,16.3,1.1,24.4c0,6.8,2.5,12.4,6,18c12.1,19.2,22.5,39.5,31.1,60.5
			c1.3,3.2,2.4,6.5,3.9,10.3c0.2-0.5,0.3-0.9,0.4-1.4c1.7-12.7,4.1-25.4,7.2-37.8c1.7-7.7,2.6-15.5,2.7-23.4
			c0.1-6.4,0.7-12.8,0.9-19.2c0.1-1.6,0-3.2-0.3-4.8c-3.6-14.2-5.6-28.8-6-43.5c-0.1-1.8-0.7-3.6-1.9-5c-1.5-2-3-4.2-4.5-6.2
			c-1.2-1.5-1.7-3.3-1.3-5.2c0.1-0.5-0.4-1.1-0.6-1.6c-0.5-0.9-0.9-1.9-1.1-2.9c-0.7-9.4-0.3-18.6,3.3-27.4c0.9-2.3,2.6-4.3,4.7-5.6
			c2-1.2,3.8-1.3,5.2,0.5c5.2,6.9,10.8,13.7,10.6,23.1c0,2-0.8,4-1.2,6c-0.7,3.3-1.2,6.6-1.9,9.9c-0.3,1.5-0.7,2.9-1.4,4.2
			c-2,3.5-4.2,7-6.3,10.5c-0.2,0.4-0.3,0.9-0.3,1.4c0.6,11.6,1.5,23.2,4.4,34.5c0,0.1,0.1,0.2,0.2,0.2c0.5-1.2,1.1-2.6,1.6-3.9
			c3.2-9.4,9.9-17.1,18.8-21.6c1.2-0.6,2.6-1.4,3.4-0.1c0.5,1,0.5,2.2,0,3.3c-2.9,5.6-3.6,11.5-3.3,17.8c0,3.4-0.2,6.7-0.7,10.1
			c-0.3,2.8-0.9,5.6-1,8.3c-0.4,7.6-2.7,15.1-6.7,21.6c-0.7,1.1-0.8,2.4-0.3,3.6c10,24.2,18.4,49,26,74c6.9,22.5,14,44.9,22.9,66.6
			c3.2,7.8,7,15.3,10.2,23.1c2.6,6.3,5,12.7,7.7,19.5c0.5-2.8,0.9-5.1,1.4-7.4c2.1-9.9,2.9-20,2.3-30.1c-0.6-8.9-3.2-17.3-5.9-25.7
			c-3.6-11.2-6.6-22.6-10.4-33.8s-8.2-21.9-12.2-32.9c-1-2.5-1.6-5.2-2-7.9c-1-7.8-1.6-15.6-2.6-23.4c-1.1-8.3-3.9-16.3-8.1-23.5
			c-0.5-0.7-1.1-1.4-1.7-2c-1.5-1.5-3.1-3-4.6-4.6c-0.8-0.9-1.9-2.1-1.8-3c0.3-4.4-2.7-7.6-3.8-11.4s-0.9-6.9,1.3-10.1
			c3.1-4.3,5.1-9.3,5.8-14.6c0.1-0.5,0.1-1.1,0.4-1.3c0.7-0.7,1.5-1.7,2.2-1.7c1,0.2,1.8,0.9,2.2,1.8c0.2,3,2.5,4.5,4.2,6.4
			c2.5,2.9,5.1,5.8,7.5,8.8c2.3,3,3.2,6.8,2.4,10.5c-0.4,2.2-0.9,4.4-1.6,6.5c-0.8,2.6-2,4.9-2.2,7.7c-0.2,2.6-2.2,5.1-3.8,7.4
			c-1,1.3-1.2,3.1-0.4,4.6c4.6,10.4,6.1,21.4,7,32.5c0.6,7.7,1.8,15,5.2,22.3c3.7,8,6.2,16.7,9.1,25.1c0.3,0.9,0.7,1.7,1.4,2.4
			c0-0.7,0-1.4-0.1-2.2c-0.2-17.4,1.6-34.6,7-51.2c2.5-7.8,6.8-14.8,12.6-20.6c3.7-3.8,7.5-7.4,11.4-11c1-0.9,2.1-1.6,3.4-2.2
			c1.1-0.7,2.4-0.3,3.1,0.7c0.3,0.5,0.4,1.1,0.3,1.7c-0.2,1.3-0.7,2.5-1.3,3.6c-1.9,3.6-4,7.2-6,10.7c-2.3,4-3.8,8.4-4.5,12.9
			c-0.6,3.9-1.4,7.9-2.3,11.8c-1.8,8.3-6.6,15.5-13.5,20.4c-4.6,3.3-6.4,7.7-6.8,12.9c-0.5,8.1,0.1,16.2,1.7,24.2
			c0.7,3.6,0.8,7.2,1.3,10.8c0.4,1.9,0.9,3.7,1.5,5.5c1.2,3.7,2.4,7.5,3.7,11.2c5.5,16.2,5.4,32.8,2.2,49.4
			c-0.4,2.1-0.8,4.2-1.3,6.4c-1.3,6.2-1.1,12.7,0.7,18.8c3.1,10.8,4,22,4.4,33.2c0.8,17.7,1.5,35.4,1.6,53.1
			c0.1,9.2-0.9,18.4-1.5,27.6c-0.1,0.8-0.1,1.6,0.1,2.4c3.4-4.4,6.2-9.3,8.2-14.5c7.7-18.9,11.5-39.2,11.1-59.7
			c-0.2-8.6-0.5-17.1-0.5-25.7c0-19.3,4.6-37.6,11.8-55.4c0.7-1.8,1.7-3.5,2.8-5c0.7-0.8,1.7-1.3,2.7-1.3c0.6,0.1,1.5,1.5,1.6,2.3
			c1.1,11.2,2.9,22.3,2.9,33.5c0.1,14-1.4,28-6.9,41.2c-2.8,7-4.5,14.4-4.9,21.9c-0.4,4.8-2.2,9.5-3.4,14.2
			c-0.2,0.9-0.9,1.8-0.9,2.7c-0.1,3.2-2,5.7-3.5,8.3c-2.2,3.6-4,7.4-5.4,11.4c-2.8,9-5.7,18.1-11.3,25.9c-1.3,1.8-3,3.4-4.5,5.1
			c-0.4,0.5-0.6,1.1-0.7,1.7c-2.2,14-5.4,27.7-9.6,41.2c-1.6,4.9-1.3,10.2,1,14.9c14.9,30.6,29.6,61.2,44.6,91.7
			c4.2,8.4,9.1,16.4,13.7,24.6c0.6,1,1.1,2.1,1.7,3.4l-2.7,1.3c-1.1-1.9-2.3-3.8-3.5-5.8c-14.8-25.5-27.4-52.1-40.1-78.6
			c-4.4-9.3-9-18.4-13.2-27.8c-7.6-17.3-15.1-34.7-22.4-52.2c-0.8-1.8-2.1-2.5-3.5-3.6c-6-4.7-12-9.4-17.7-14.4
			c-3.1-2.7-5.7-6.1-8.6-9.1c-9.4-9.8-18.5-20.1-29.8-27.8c-5.1-3.5-10.7-6.1-16-9.2s-10.4-6-15.4-9.3c-7.7-5-15.3-10.2-23-15.4
			c-2.9-2-6.3-3.1-9.9-3.2c-1.4,0-3.3,0-3.4-2.2c-0.1-1.4,1.6-1.9,3.9-1.6c3,0.3,6.1,0.5,9.1,0.9c16.7,2.3,32.1,7.7,45.2,18.7
			c13.3,11.4,25.2,24.3,35.3,38.6c8.1,11.4,18.1,21.4,29.7,29.4c0.3,0.2,0.5,0.3,0.8,0.5L269.1,519.5z M238,384.4
			c11,60,25,118.6,50.7,174.3c3.9-11.8,7-23.9,9.3-36.1c3.4-18.9,3.9-38.1,3.9-57.3c0-0.4,0-0.8-0.1-1.2c-1.2-4.9-2.7-9.7-3.7-14.6
			c-2.9-14.3-9.5-26.3-21.1-35.3c-12.4-9.7-25-19.3-37.5-28.9C239,385,238.5,384.7,238,384.4z M227.3,352.9l0.5-0.6
			c-1.3-6-2.7-12.2-4.1-18.3c-0.1-0.5-0.3-0.9-0.6-1.3c-2.4-3.2-4.9-6.4-7.4-9.5c-7.3-8.7-15.3-16.9-23.9-24.4
			c-7.4-6.7-7.4-6.9-17.3-7.8c-4.9-0.4-9.9,0-15.2,0c2.1,6.1,3.8,11.8,6,17.3c5.4,13.5,12.5,26.2,19.7,38.8
			c4.1,7,8.5,13.7,13.4,20.1c7.2,9.8,14.2,19.7,18.3,31.2c2.9,8.3,5.6,16.7,8,25.2c2.6,9.5,5.8,18.7,11.3,27
			c4.1,6.2,8.6,12.2,13,18.2c1.8,2.5,3.8,4.9,5.7,7.3l0.4-0.2c-0.9-3.4-1.8-6.8-2.7-10.2c-6.9-27.2-12.7-54.6-17.9-82.2
			c-0.3-1.9-1.3-3.6-2.8-4.8c-5.5-4.8-10.8-9.8-16.2-14.6c-5.7-5.1-9.5-11.9-10.9-19.3c-0.3-0.9-0.5-1.9-0.6-2.8
			c0.1-0.7,0.5-1.4,1.1-1.8c0.5-0.2,1.3,0.5,2,0.8c0.3,0.2,0.3,0.7,0.5,1.1c1.2,2.9,3.6,5.2,6.5,6.4
			C218.5,350,222.9,351.4,227.3,352.9L227.3,352.9z M300.8,446.6l0.5-0.1c-0.5-9.3-0.8-18.6-1.6-27.8c-0.6-6.4-1.8-12.8-2.9-19.2
			c-0.5-2.9-1.6-5.7-2-8.7c-0.9-6.5-2.6-12.9-5.3-18.9c-4.9-11.9-9.9-23.7-15.1-35.4c-1-2.1-2.4-3.9-4.1-5.5
			c-2.6-2.5-5.6-4.6-8.4-6.8c-14.6-11-29.2-22-43.8-33c-0.5-0.4-1-0.6-1.8-1.2c0.8,3,1.4,5.4,2,7.9c4.3,18.2,8.5,36.4,12.8,54.6
			c0.2,1,0.7,1.9,1.4,2.6c9.1,5.7,15.8,13.8,21.7,22.5c1.9,2.8,3.9,5.5,5.8,8.3c2.6,3.9,5.2,7.9,7.8,11.8c1.8,3,3.8,5.9,6,8.6
			c2.6,2.9,5.3,5.6,8.2,8.1c7.2,6.6,13.1,14.1,16,23.6C299,440.8,299.8,443.7,300.8,446.6L300.8,446.6z M269.7,326.4l0.5-0.6
			c0-0.2,0-0.3-0.1-0.5c-8.3-22.1-15.4-44.5-22.3-67.1c-6.4-20.9-13.6-41.4-21.8-61.6c-0.3-0.7-0.7-1.4-1.1-2.2l-0.6,0.1
			c-1.2,2.5-2.5,5-3.4,7.6c-1.1,3-1.8,6.1-2.8,9.2c-2.1,6.5-4.2,13-6.7,19.3c-1.9,4.8-3.9,9.3-4.5,14.5c-0.6,6.4-1,12.6,1.8,18.6
			c0.6,1.2,1.3,2.3,2.2,3.3c2.2,2.5,4.6,4.8,6.8,7.4c3.3,4.2,7.3,7.9,11.7,10.9c3.4,2.3,6.2,5.3,8.4,8.8c3.4,5,6.4,10.6,10.7,14.8
			C255.1,315.3,262.6,320.7,269.7,326.4L269.7,326.4z M116.9,270.2c14.2,35,37.4,62.2,68.2,83.8c-0.9-1.6-1.7-2.9-2.4-4.3
			c-7.2-13.2-14.7-26.2-20.3-40.1c-2.2-5.4-3.8-11.1-5.8-16.6c-0.3-1-1-1.9-1.9-2.4c-5.4-1.7-9.5-5.3-13.2-9.3
			c-2.2-2.4-4.3-5-6.5-7.4C129.9,268.7,123.8,268.8,116.9,270.2z M126.4,20.9c-0.2,0.7-0.3,1.1-0.3,1.6c-3.4,24.7,2.2,48,12,70.4
			c5.4,12.4,12.6,24.1,19,36.2c0.1,0.1,0.2,0.1,0.6,0.4c-0.1-0.8-0.1-1.6-0.3-2.4c-0.6-2.5-1.1-5-1.8-7.5c-3.5-12-5.3-24.5-5.2-37
			c0.2-11.1-2-22-7.8-31.9c-5.6-9.6-11.5-19.1-15.8-29.4C126.9,21.2,126.8,21.2,126.4,20.9z M140.3,190.2c-6.2-2.3-11.7-6-16.1-10.9
			c-7-7.5-13.9-15.1-20.5-22.9c-3.9-4.7-8.5-8.7-13.6-12c-7.5-4.9-15.3-9.5-21.5-16.1c-9-9.5-18.6-18.4-28.8-26.5
			c-0.5-0.4-1.1-0.8-1.8-1.3c0,0.3,0.1,0.5,0.2,0.8L39,103c3.6,6.5,8.6,11.7,14.3,16.3c4.8,3.9,9.5,7.9,13.9,12.2
			c6.8,6.6,11.7,14.6,17.1,22.3C98,173.5,116.7,185.6,140.3,190.2z M337.9,352.3c-0.5,1-0.9,1.7-1.2,2.4c-7.3,19-12,38.5-11,59.1
			c0.2,4.8,0.5,9.6,0.4,14.4c-0.2,11-0.7,22-1.1,32.2c2.5-4.8,3.9-10.2,4.1-15.6c0.4-8.5,2.8-16.4,5.7-24.2c1.3-3.1,2.3-6.3,3-9.6
			c2.4-12.3,4.1-24.7,2.8-37.2c-0.7-6.8-1.5-13.5-2.3-20.3C338.2,353.1,338.1,352.7,337.9,352.3z M143.8,330.3
			c-0.5-0.4-0.8-0.6-1.1-0.8c-13.3-7.9-27.6-13.7-42.6-17.4c-4.7-1-9.5-1.5-14.2-1.5c-6-0.1-11.9,1.4-17.1,4.3
			c-5,2.6-7,7.2-8.4,12.3c0,0.5,0,0.9,0.2,1.4c0.3,0.1,0.5,0.1,0.8,0.1c0.8-0.2,1.5-0.4,2.3-0.7c7.4-2.8,15.4-4.1,23.3-3.7
			c5.1,0.3,10.2,0.4,15.4,0.2c6.5-0.3,13,0.4,19.3,2c2,0.5,4,1.2,6.1,1.5C132.9,328.8,138.2,329.5,143.8,330.3z M211.2,221.2
			l0.4,0.1c1.1-3.7,2.5-7.4,3.4-11.2c1.9-8.4,5.7-16,10.1-23.3c3.6-5.6,5.7-12.1,6.2-18.8c0.2-3.3,0.9-6.5,1.1-9.8
			c0.3-3.9,0.7-7.8,0.7-11.8c0-4.7,0.3-9.3,2.2-13.7c0.1-0.4,0.1-0.8,0.1-1.1c-1.2,0.8-2.1,1.4-3,2.1c-8.7,6.8-13,16.1-14.2,26.9
			c-0.8,7.1-1.3,14.2-1.5,21.3c-0.2,9.1-0.8,18.1-2.9,27C212.9,213.2,212.1,217.2,211.2,221.2L211.2,221.2z M50.1,34.4
			c-0.9-1.2-1.9-2.3-3-3.4c-3-2.5-6.6-3.7-10.4-4.9c-10.4-3.1-20-7.7-28.1-15c-1.5-1.4-3-2.6-4.9-4.3c0.5,7.7,0.7,14.9,6.5,20.4
			c2.3,2.3,4.7,4.3,7.3,6.2c4.8,3.2,9.1,7,12.9,11.4c0.9,0.9,1.9,1.8,3,2.5L50.1,34.4z M209.1,350.4c1.6,2.6,2.9,5.2,4.7,7.2
			c7.6,8.7,16.5,16.1,25.5,23.4c8.3,6.6,16.7,13,25,19.5c0.5,0.3,0.9,0.6,1.4,0.9l0.4-0.4c-1.5-2.4-2.9-4.9-4.6-7.3
			c-2.7-3.9-5.7-7.5-8.2-11.5c-3.5-5.7-7.6-10.9-12.2-15.8c-4.4-4.5-9.1-8.6-15.2-10.6L209.1,350.4L209.1,350.4z M117.1,266.6
			c0.2,0.1,0.2,0.1,0.3,0.1c0.2,0,0.5,0,0.7,0c9.2-1.8,16.5,0.9,22.1,8.5c2.2,2.8,4.6,5.3,7.2,7.7c3.8,3.8,9.1,5.7,14.5,5.2
			c5.8-0.4,11.7-0.7,17.5,0.5c0.1-0.1,0.3-0.2,0.4-0.4c-0.6-0.5-1.2-1.1-1.8-1.6c-8.4-7-17.3-13.3-26.8-18.7c-2.9-1.6-6-2.8-9.2-3.5
			C133.6,262.5,125.2,262.2,117.1,266.6L117.1,266.6z M319.1,195.8l-0.4-0.3c-8.2,7.6-16.4,15-21,25.5c-4.3,10-6.2,20.5-7.2,31.5
			c7.7-5,13.2-11.2,15.5-19.9c1-3.9,1.9-8,2.5-12c0.8-5.6,2.7-10.9,5.5-15.8C315.7,201.9,317.4,198.8,319.1,195.8L319.1,195.8z
			 M179.4,251.2l-0.5,0.3c0.8,1.6,1.6,3.3,2.4,4.9c2.9,5.4,6.3,10.4,11.9,13.5c8.8,5,17.3,10.8,25.1,17.3c6.2,5,12.5,9.7,18.8,14.6
			c0.7,0.5,1.4,1,2.1,1.4c-1.5-3.1-3.3-6-5.3-8.7c-1.9-2.4-4.1-4.5-6.5-6.3c-4.7-3.3-8.9-7.4-12.4-12c-4-5.6-9.6-9.9-16-12.2
			c-6.6-2.4-12.6-6.1-17.6-11C180.8,252.4,180.1,251.8,179.4,251.2z M161.1,436.5c7.4,5.1,14.8,10.4,22.3,15.4
			c4.6,3.1,9.3,6,14.2,8.5c8,4,15.7,8.2,22.7,13.9c0.6,0.5,1.3,0.9,1.9,1.4C206.1,455.9,187.6,439.9,161.1,436.5L161.1,436.5z
			 M202.5,97.3l14.1,2.2c0.8-3.4,1.6-6.9-1.1-10.2c-1.2-1.5-2.1-3.2-3.2-4.8c-3.6-4.7-4.6-10.1-4.1-15.8c0.1-0.8,0.1-1.5,0.2-2.6
			c-2.3,1-2.9,2.8-3.6,4.6c-3.2,7.8-3.3,16.1-2.9,24.3C202,95.8,202.2,96.6,202.5,97.3z M71,197.5c-1.6-6.1-3.9-11.5-8.4-15.5
			s-9-7.7-13.6-11.5c-0.7-0.6-1.5-1.1-2.4-1.5c-0.8-0.2-1.6-0.3-2.4-0.2l-0.4,0.6c1.9,2.9,3.5,5.9,5.7,8.5c4,5.1,8.5,9.8,9.5,16.6
			c0.4,1.4,1.1,2.7,2,3.8c0.5,0.5,1.1,0.8,1.8,0.7C65.4,198.6,68,198,71,197.5L71,197.5z M36.2,49.2c0.3,0.4,0.5,0.8,0.8,1.2
			c4.6,4.2,10.2,6,16.2,6.7c1.1-0.1,2.1-0.8,2.8-1.7c2.8-5,2.1-11.3-1.7-15.5c-2-2.2-3-2.2-5.4-0.3c-2.8,2.2-5.8,4.3-8.6,6.5
			C38.9,47,37.6,48,36.2,49.2L36.2,49.2z M6.7,3.7C6.6,4,6.5,4.3,6.5,4.7c9.9,10.4,22.3,16.2,36.1,19.4c-1.2-1.3-2.6-22.5-4-23.5
			c-1.6-1-3.2,17.9-4.7,16.7c-6-5.7-13.1-9.5-20.7-12.4C11.2,4.2,8.9,4.1,6.7,3.7L6.7,3.7z M254.3,151.5c-0.7,1.6-1.4,3.2-2.2,4.8
			s-1.7,3.1-2.6,4.6c-2.6,4.4-2,9.9,1.4,13.6c3.7-1,7.7-0.6,11.2,1c-0.2-2-0.7-3.9-1.5-5.7C257.3,164.2,255.2,157.9,254.3,151.5z
			 M105.3,219.1c1.8,7.9,7.8,11.8,13.9,15.9l7.2-5.9c-0.6-1.8-2.1-3.2-4-3.8C116.8,223.2,111.2,221.2,105.3,219.1L105.3,219.1z
			 M258.6,152.1l-0.6,0.3c0.4,1.9,0.8,3.8,1.2,5.7c1.2,6.4,6.6,11.4,6.5,18.4c1.8-4.3,3.6-8.7,1.7-13.2S261.6,155.7,258.6,152.1
			L258.6,152.1z M260.6,189.6c0.9-1.3,1.6-2.4,2.4-3.5c1-1.4,0.8-4.3-0.4-5.5c-2.1-1.9-4.2-3.6-7.3-3.4c-1.2,0.1-2.3,0-3,1.4
			c-0.6,1.1-0.3,2.5,0.7,3.2C255.4,184.4,257.9,186.9,260.6,189.6L260.6,189.6z M57.5,199.7c-2.3-7.4-4.5-14.7-11-19.9
			C45.3,189.4,50.9,194.7,57.5,199.7z M130,227.9l0.4-0.3c-0.1-0.3-0.2-0.7-0.4-1c-2-2.9-3.9-5.9-6.2-8.6c-1-1.2-2.4-2-4-2.3
			c-3.7-0.5-7.5-0.6-11.3-0.8c-0.7,0-1.4,0.2-2.1,0.3c2.1,2.2,4.6,2.7,7,3.4C119.6,220.6,126.2,221.8,130,227.9L130,227.9z
			 M210.8,111.6l4.5-6.6c0.7-1.1,0.5-1.9-0.8-2.2c-2.7-0.6-5.4-1.3-8.1-1.8c-1.1,0-2.1,0.2-3.1,0.4
			C205.4,105.4,207.3,109,210.8,111.6z M211.8,68.8c-2,8.2,2.9,13.8,7.3,19.9C220.5,80.5,215.8,74.8,211.8,68.8z M128.8,242.9
			c0.8-2.8,1.7-5.2,2.2-7.7c0.2-1,0-2.7-0.7-3.1s-2.2,0-3.2,0.6c-1.6,1.1-3.1,2.3-4.5,3.6c-2.1,1.7-1.9,3.4,0.7,4.5
			C125.1,241.6,126.8,242.2,128.8,242.9L128.8,242.9z M64.2,202.2l-0.1,0.7l10.6,4.9c-0.2-2-0.4-3.5-0.6-5.1c0-1.1-0.9-2.1-2-2.1
			c-0.2,0-0.4,0-0.7,0.1C69,201.2,66.6,201.7,64.2,202.2z M323.8,463.8l0.4,0.2l0.1-0.8l-0.4-0.1L323.8,463.8z"/>
	</g>
</g>
</svg>
