<svg xmlns="http://www.w3.org/2000/svg" viewBox="0 0 419.12 697.5"><defs><style>.cls-1{fill:#196042;stroke:#196042;stroke-miterlimit:10;stroke-width:1.1px;}</style></defs><g id="Layer_2" data-name="Layer 2"><g id="Layer_1-2" data-name="Layer 1"><path class="cls-1" d="M146.61,471.12c-.37-6.86-.69-13.72-1.11-20.58-1.33-21.51-1.89-43-.64-64.55q.6-10.37.83-20.76a19.49,19.49,0,0,0-1-4.77c-.16-.67-.46-1.3-.56-2-1.37-9.64-6.68-16.75-14.35-22.32a66.07,66.07,0,0,0-5.78-3.72,3.11,3.11,0,0,0-2.07-.37,48.5,48.5,0,0,0-6.47,1.7,57.44,57.44,0,0,0-17,9.32c-3.16,2.61-6.31,5.23-9.63,7.63A77.39,77.39,0,0,1,81,355.56C76,358.3,71.12,361.14,66,363.5c-3.09,1.42-5.94,3.22-9,4.68A32.23,32.23,0,0,1,48.23,371a32.65,32.65,0,0,0-17.5,9c-3.17,3-6.31,6.06-9.25,9.28C15.13,396.19,11.11,404.56,7.29,413a45.3,45.3,0,0,1-2.07,4.12c-.43.75-1.22,1.52-2.07.86a2.39,2.39,0,0,1-.57-2.08c1.48-5.22.29-10.37-.32-15.52C1.84,396.82.9,393.28.65,389.68a17.48,17.48,0,0,1,.79-7.39c3.23-8.33,5-17.06,7.3-25.64a38.93,38.93,0,0,1,9.7-17.73c3.18-3.22,6-6.78,9.38-9.82a47.91,47.91,0,0,1,26.29-12.5,64.66,64.66,0,0,1,19.44.52A65,65,0,0,0,88,318.2c11.54-.67,21.84,2.79,31.42,8.94,3,2,6.19,3.76,9.26,5.69A38.67,38.67,0,0,1,145.19,353a5.47,5.47,0,0,0,1,1.63,476.27,476.27,0,0,1,8.21-69.51c-2.46-2.48-4.81-4.71-7-7.1a13,13,0,0,0-6-3.8,38.6,38.6,0,0,1-6-2.55c-7.84-3.95-15.64-8-23.48-11.95a26.74,26.74,0,0,1-10.9-9.59c-6.89-10.9-13.64-21.88-19.08-33.61-.65-1.4-1.32-2.8-1.86-4.24A57.08,57.08,0,0,0,56,183.1a3,3,0,0,1-1-.76c-.23-.4-.46-1.08-.27-1.38s.88-.43,1.35-.42a2.55,2.55,0,0,1,1.14.53c7.41,4.84,15.43,8.63,23,13.26,7.3,4.49,14.2,9.61,21.3,14.43a266.77,266.77,0,0,1,27.06,21.13A82.06,82.06,0,0,1,154.81,275a13.54,13.54,0,0,0,.7,2.66c.16-.85.34-1.69.49-2.54,3.44-19.32,8.05-38.35,13.36-57.25,3-10.55,5.38-21.26,8.07-32a.28.28,0,0,0-.12-.18c-3.29-1.55-5.6-4.13-7.71-7a22.52,22.52,0,0,0-3.54-3.43c-3.77-3.29-7.53-6.6-11.39-9.79-2.54-2.1-5.15-4.13-7.88-6a48.27,48.27,0,0,1-11.11-10.94,16.77,16.77,0,0,1-3.2-9.41,123.34,123.34,0,0,0-3.15-21.8c-.4-1.65-.9-3.28-1.41-4.9a22.35,22.35,0,0,0-12.64-14.25,47.94,47.94,0,0,1-7.14-3.89,11.45,11.45,0,0,1-3.33-3.76c-1.28-2.26-.16-4,2.37-4.48,4.15-.83,7.94.46,11.67,1.88,5.22,2,10.37,4.2,15.55,6.31s9.87,5.67,14.76,8.58c4.11,2.45,8.26,4.84,12.42,7.22,1.52.87,3.11,1.63,4.64,2.49a21.64,21.64,0,0,1,9.3,10.23,85.69,85.69,0,0,1,7,25.8c.8,7,1.52,14,1,21a5.42,5.42,0,0,0,0,.57l.33.1c4.51-8.9,9-17.8,13.69-27a16.94,16.94,0,0,0-2-.43c-1.58-.13-3.19-.1-4.76-.31a4.52,4.52,0,0,1-2.33-.94c-2.28-2.09-4.5-4.26-5.61-7.25a22.75,22.75,0,0,1-1.31-11.83,39.43,39.43,0,0,0,.2-13c-1-6.16.28-12.18,1.07-18.26,1.27-9.74,6.52-17.3,12.63-24.49,3.79-4.46,7.8-8.79,10.48-14.06,1.81-3.56,3.38-7.24,5-10.88,1.81-4,2.12-8.37,2.38-12.66.39-6.37.41-12.77.65-19.15.09-2.56.29-5.11.58-7.64.07-.63.67-1.65,1.07-1.67a2.68,2.68,0,0,1,1.93,1,15.35,15.35,0,0,1,1.83,3.35c2.68,6.41,4.85,13,5.31,20,.59,9.13,2.51,18,4.44,26.94,1.14,5.24,1.77,10.6,2.68,15.9.51,2.93,1.14,5.85,1.73,8.77,1,4.8,2,9.59,2.94,14.39.11.51.19,1,.33,1.75a17.08,17.08,0,0,0,1.33-1.15,66.75,66.75,0,0,1,23.23-15.22c5.54-2.07,10.28-5.58,15.29-8.61a29.4,29.4,0,0,0,3-2.45c7.58-6,15.61-11.35,24.62-15,6.84-2.77,13.9-4.27,21.39-2.9a35.13,35.13,0,0,1,18.2,9.33,52.52,52.52,0,0,0,6.29,5.15A190,190,0,0,1,378,85.4q18,18.28,34.56,37.91c1.86,2.19,3.58,4.5,5.33,6.77.49.64,1.06,1.53.22,2.11a2.55,2.55,0,0,1-2.16,0c-1.47-.73-2.79-1.75-4.22-2.57a13,13,0,0,0-3.16-1.48,156.93,156.93,0,0,1-17.07-5.21c-3.22-1.22-6.74-1.6-10-2.62-7.32-2.27-14.6-4.69-21.88-7.06q-2.28-.75-4.53-1.6a29.33,29.33,0,0,0-15.54-1.6c-9.31,1.6-18.49.37-27.62-1.41-3.28-.64-6.44-1.86-9.7-2.64-4.27-1-8.58-1.86-12.86-2.81a11.28,11.28,0,0,1-8.93-8.44c-1-3.48-1.38-7.1-2.08-10.65-.63-3.23-1.26-6.47-2-9.67a4.48,4.48,0,0,0-1.4-2,1.58,1.58,0,0,0-1.49-.16c-5.2,3.74-11.2,5.9-16.95,8.56-6,2.78-10.94,7.1-16,11.35-2.58,2.18-3.34,4.22-2.57,7.61a34.56,34.56,0,0,1-4.88,27.54A38.91,38.91,0,0,1,220,139.25c-3.91,2.33-8,4.44-12.53,5a64.58,64.58,0,0,1-7.87,0c-.15.27-.45.76-.71,1.27L186.1,170.59c-4.36,8.58-7.06,17.71-9.39,27-4,15.82-8.18,31.42-12.18,47.1-.78,3-1.37,6.11-2.08,9.3.25-.16.37-.2.42-.28,5.34-9.28,10.8-18.49,16-27.86,3.16-5.73,6-11.67,8.74-17.6a171.46,171.46,0,0,1,18.2-30.56c7.54-10,17.27-17.4,28.09-23.56a58.81,58.81,0,0,1,28.49-7.86c4.16-.07,8.32,0,12.47.14,7.6.34,15.11-.55,22.64-1.24,3.8-.35,7.64-.2,11.47-.25a3.81,3.81,0,0,1,1.25.25,1.4,1.4,0,0,1,.49,2.58,7.3,7.3,0,0,1-2.09,1.13c-6.28,2.38-12.55,4.78-18.86,7a73.5,73.5,0,0,0-20.62,12,29.68,29.68,0,0,0-5.61,6.28c-2.33,3.3-4.37,6.81-6.42,10.3a40.82,40.82,0,0,1-13.25,13.63,69.59,69.59,0,0,1-19.8,9.32,60.83,60.83,0,0,0-16.76,7.39,14.72,14.72,0,0,1-2.24,1.22c-7.9,3.46-14.78,8.45-21.23,14.08a13.49,13.49,0,0,1-1.86,1.51c-4.77,3-8.1,7.35-11,12a145.16,145.16,0,0,0-8.76,17c-2.79,6.22-3.69,12.74-4.78,19.26-2.27,13.55-4.25,27.15-6.34,40.74a16.57,16.57,0,0,0-.2,3.72c.22-.37.47-.73.68-1.11,1.59-2.77,3.06-5.62,4.76-8.31,5.78-9.13,13.94-15.66,23.43-20.49,7.27-3.71,14.89-6.62,23.1-7.67a34.19,34.19,0,0,1,15.18,1,23.09,23.09,0,0,1,6.08,3.09c5.12,3.65,10.12,7.47,15.11,11.29a54.66,54.66,0,0,1,15.88,19.14c3.31,6.62,7.28,12.92,10.38,19.63,5.43,11.73,12.5,22.55,18.33,34.05a67.22,67.22,0,0,1,5.71,16.46c.16.78.26,1.68-.62,1.89a2.39,2.39,0,0,1-2-.56c-1.27-1.21-2.28-2.68-3.54-3.9-11-10.78-20.78-22.72-30.46-34.7-5.74-7.1-12.66-12-21.76-13.39a41.59,41.59,0,0,0-6.21-.38c-6-.08-11.72-1.26-16.81-4.73a20.59,20.59,0,0,1-7.55-8.89c-1.08-2.49-2-5.07-3.11-7.53-2-4.36-3.93-8.75-6.19-13-2.08-3.85-5.62-6.34-9.22-8.67a3.34,3.34,0,0,0-3.86,0c-9.48,5.64-17.44,12.76-22.6,22.68-.91,1.75-1.84,3.49-2.81,5.21a27.68,27.68,0,0,0-3.41,12.31q-1.35,27.06-2.6,54.13c-.26,5.48-.36,11-.53,16.46v1.71l.35.11.76-1.46a168.84,168.84,0,0,1,16.37-27.22,91.42,91.42,0,0,1,11.94-13.08,30.6,30.6,0,0,1,19.41-8,97.26,97.26,0,0,1,19.15.29,9.09,9.09,0,0,1,2,.4c4.26,1.68,8.51,3.4,12.75,5.12a2,2,0,0,1,.92.6,2.16,2.16,0,0,1,.52,1.39c-.08.39-.63.8-1.06,1a9.73,9.73,0,0,1-2,.41c-9.46,1.45-16.46,6.61-21.64,14.46-1.26,1.91-2.44,3.87-3.63,5.83-4.46,7.35-10.6,11.94-19.51,12.28-5.1.2-10.21.56-15.3,1a12.86,12.86,0,0,0-4.7,1.32,32.87,32.87,0,0,0-5.4,3.66c-2.73,2.2-5.33,4.56-8,6.83a3,3,0,0,1-1.5.84c-1.4.1-1.45,1-1.41,2,.32,8.26.57,16.51.95,24.76q1.32,29.07,2.77,58.13c.37,7.28,1,14.56,1.53,21.84a1.33,1.33,0,0,0,.42.94c.16-.53.32-1,.45-1.58,1.57-6.31,3.19-12.6,4.69-18.92a117.89,117.89,0,0,1,7.45-21.68c2.15-4.72,4.45-9.39,6.33-14.22,5.34-13.74,15.25-23.19,28-29.9a88.43,88.43,0,0,1,41.9-10.54c10.54,0,20.33,2.41,29.31,8.14,4.26,2.71,8.89,4.81,13.27,7.34,3.12,1.82,6.17,3.78,9.12,5.87a14.17,14.17,0,0,1,5.37,7.56c.71,2.28.07,3.21-2.27,3a44.56,44.56,0,0,1-4.85-.92c-9.51-2-19.08-3-28.67-.74a39.13,39.13,0,0,0-7.67,3.07c-4.22,2-8.32,4.33-12.52,6.4a23.6,23.6,0,0,1-12.08,2.49c-.8,0-1.62.48-2.44.5-7.79.21-15.22,2.45-22.81,3.81a38.73,38.73,0,0,1-8.26.47c-5.67-.19-11.29-.16-16.85,1.13-4.66,1.09-8.47,3.38-10.94,7.63-.57,1-1.22,1.87-1.85,2.8-.2.31-.38.79-.67.87-1.83.5-2.1,2.16-2.51,3.55q-3.15,10.8-6.12,21.67c-1.47,5.39-2.74,10.84-4.24,16.23a13.86,13.86,0,0,0-.4,6.14c1.51,9,2.94,18,4.5,27,4.37,25.1,10.63,49.8,16,74.7,3.58,16.73,6.71,33.53,9.13,50.47.45,3.16,1.22,6.27,1.76,9.41.08.46-.29,1-.45,1.49-.49-.23-1.19-.33-1.42-.72a6.61,6.61,0,0,1-.7-2.26c-2.09-12.45-3.85-25-6.29-37.35-3.32-16.87-7-33.69-10.82-50.47-5-22-9.43-44.07-13-66.32a354.42,354.42,0,0,1-3.48-37.94c-.36-7.08-.7-14.16-.84-21.25,0-2.16-1.39-3.32-2.59-4.54a66.56,66.56,0,0,0-5.3-4.32,5.63,5.63,0,0,0-5.18-1.31,12.08,12.08,0,0,1-11.94-3.18,59.79,59.79,0,0,1-6.16-6.47,131.37,131.37,0,0,0-12.57-14,135.63,135.63,0,0,1-12.38-15c-3.9-5.25-8.09-10.3-12.32-15.3a38,38,0,0,0-5.25-4.64c-2.48-2-5-3.93-7.5-6-.49-.41-.65-1.22-1-1.85a5.89,5.89,0,0,1,2.07-.73c4.25.25,8.5.52,12.72,1a16.87,16.87,0,0,1,4.86,1.52,68.48,68.48,0,0,1,17.37,10.8c6.55,5.87,13.22,11.6,19.73,17.51,9,8.13,16.51,17.38,21.64,28.42,1.13,2.45,1.82,5.1,2.72,7.66.13.39.24.79.36,1.18ZM216.8,4.41h-.44c-.08,1.74-.19,3.49-.23,5.23-.1,5.33,0,10.66-.32,16a62.57,62.57,0,0,1-1.76,13.28A62.26,62.26,0,0,1,202.86,61c-3.3,4.12-6.68,8.17-10,12.29a35.77,35.77,0,0,0-7.65,16.83c-1,6.2-2.35,12.38-1.36,18.71a49.83,49.83,0,0,1-.17,14.17,23.89,23.89,0,0,0-.3,4.14,17.13,17.13,0,0,0,5.67,12.11,5.53,5.53,0,0,0,2.55,1.15c2.86.56,5.77.92,8.64,1.48a19.21,19.21,0,0,0,10.54-.72,45,45,0,0,0,16.54-10.35,30.67,30.67,0,0,0,9.25-25.13c-.64-7.51-2.22-15-3.57-22.4-1-5.54-2.38-11-3.45-16.56-.93-4.81-1.45-9.7-2.5-14.47-2-8.91-3.89-17.8-4.47-26.93-.43-6.85-2.56-13.25-5.13-19.54C217.29,5.41,217,4.9,216.8,4.41Zm60.28,66.36a7.92,7.92,0,0,1,1.23,2c.76,3.42,1.44,6.86,2.09,10.3s1.08,7.18,2,10.67c1.09,4.26,4,6.67,8.41,7.48a37.41,37.41,0,0,0,18-1.46c7.53-2.31,15.11-4.46,22.66-6.75a27.84,27.84,0,0,1,18,.73c3.1,1.12,6.17,2.37,9.15,3.77,12.09,5.67,23.34,12.81,34.8,19.59,5.17,3.06,10.56,5.76,15.88,8.56a21.15,21.15,0,0,0,3.07,1.09,2,2,0,0,0-.52-1.14c-2.32-2.72-4.62-5.45-7-8.14Q391.1,101.69,376.4,86.75a186.8,186.8,0,0,0-27.13-23,66.24,66.24,0,0,1-7-5.73c-8.75-8-18.83-10.84-30.42-8-6.87,1.66-13,4.87-19,8.54A99.74,99.74,0,0,0,278,69.63a7.34,7.34,0,0,0-.91,1.17ZM116.72,328.08c-.64-.41-1.1-.74-1.58-1C107.3,322.64,99,320,89.85,320.34a64.53,64.53,0,0,1-14.82-.8A66.19,66.19,0,0,0,55,318.67a45.09,45.09,0,0,0-25.3,11.65c-3.4,3-6.29,6.65-9.52,9.9a37.49,37.49,0,0,0-9.4,17.16c-2.27,8.48-3.91,17.14-7.25,25.33a15.08,15.08,0,0,0-.72,7.56c.86,6.81,2.57,13.51,2.66,20.43,0,.07.09.15.24.37l.7-1.42c3.84-7.8,7.61-15.66,13.68-22.06,3.45-3.62,7-7.18,10.71-10.52a31.47,31.47,0,0,1,16-7.93c4.48-.76,8.75-1.89,12.44-4.94a44.74,44.74,0,0,0,9.2-9.88c2.31-3.52,4.81-6.84,8.39-9.09,5.14-3.22,10.38-6.29,15.66-9.27,6-3.35,12.13-6.25,19-7.19C113.11,328.53,114.78,328.33,116.72,328.08Zm61.93-96.94.07.2c1.21-.93,2.46-1.81,3.6-2.8,6.63-5.77,13.66-10.89,21.75-14.45a16.7,16.7,0,0,0,2.24-1.22,62.25,62.25,0,0,1,16.89-7.46,68.84,68.84,0,0,0,18.8-8.64,39.5,39.5,0,0,0,13.23-13.36c1.9-3.27,3.78-6.56,6-9.64a36.62,36.62,0,0,1,6.24-7.2,72.69,72.69,0,0,1,20.64-12.28l17.23-6.36c.56-.21,1.1-.46,1.65-.69a2.77,2.77,0,0,0-.11-.56c-3,.19-5.92.27-8.86.59-8.21.92-16.42,1.7-24.71,1.28-3.56-.19-7.13-.16-10.7-.11a52.57,52.57,0,0,0-21.88,4.67c-15.7,7.4-28.81,17.93-38.13,32.77A201.89,201.89,0,0,0,188.22,212C185.32,218.52,181.85,224.77,178.65,231.14ZM295.77,456.51a11.87,11.87,0,0,0-4.75-6.9,91.26,91.26,0,0,0-7.89-5.15c-5.49-3.15-11.09-6.12-16.62-9.22a44,44,0,0,0-15.37-5.6,79.63,79.63,0,0,0-35.85,3.06c-11.07,3.53-21.33,8.59-29.92,16.63a44.6,44.6,0,0,0-9,11.36c-.23.44-.43.9-.64,1.35l.26.25c3-3,6.8-4.55,10.75-5.66a14.32,14.32,0,0,1,4.56-.43A38.29,38.29,0,0,1,207,460.63a41.82,41.82,0,0,0,10.68,3.78c1.77.36,3.51.89,5.27,1.3,6.29,1.5,12.46,1.56,18.38-1.5,4.21-2.17,8.45-4.29,12.61-6.55a32.59,32.59,0,0,1,12.57-3.83,74.72,74.72,0,0,1,25.84,2C293.42,456.1,294.45,456.25,295.77,456.51ZM178.53,182.17l.58-.25c.48-1.73,1.09-3.44,1.41-5.2a78.89,78.89,0,0,0,.64-21.81,114.84,114.84,0,0,0-5.3-26.07c-2.73-8-7.42-13.78-15.28-16.94a21.21,21.21,0,0,1-2.57-1.28c-2.81-1.63-5.69-3.16-8.38-5C142.3,100.74,134.9,96,126.4,93.36c-1.72-.54-3.32-1.44-5-2.08a77.35,77.35,0,0,0-8-2.81,20.29,20.29,0,0,0-5.5-.32c-1.42,0-1.68.62-.91,1.84a8.36,8.36,0,0,0,1.9,2.12,19,19,0,0,0,3.79,2.35,69.5,69.5,0,0,1,12.14,7.16,24.52,24.52,0,0,1,4.14,3.94c1.9,2.14,3.54,4.52,5.48,6.63a36.32,36.32,0,0,1,6.65,9.72c2.52,5.69,4.68,11.54,7,17.31a91.33,91.33,0,0,0,3.89,9.44,132.66,132.66,0,0,0,18.46,25.79C172.91,177.24,175.79,179.62,178.53,182.17Zm-25.75,98.24.58-.19c-.28-2-.41-4-.86-5.93-3.67-15.83-11.18-29.57-23.09-40.65a244.16,244.16,0,0,0-19.31-16c-8.2-6.19-16.65-12.07-25.15-17.84-4.31-2.93-9-5.34-13.46-8a14.41,14.41,0,0,0-1.43-.68,41.25,41.25,0,0,0,2.66,3.53,73,73,0,0,1,9.4,16.64c5.76,13.65,13.48,26.22,21.51,38.61a22.46,22.46,0,0,0,9.06,7.64c7.91,4,15.82,8.1,23.76,12.1a36.82,36.82,0,0,0,5.71,2.43,13.87,13.87,0,0,1,6.76,4.31C150.12,277.85,151.53,279.12,152.78,280.41ZM286.22,388.87l.4-.28A57,57,0,0,0,282,376.1c-5.59-11.27-12.6-21.75-17.88-33.19-3.15-6.81-7.21-13.19-10.52-19.93a54.63,54.63,0,0,0-16.65-19.9c-3.84-2.87-7.85-5.54-11.49-8.64-5.47-4.68-11.77-6.15-18.72-5.83-8.36.38-16,3.18-23.53,6.63-.07,0-.09.17-.06.11,1.65,1.39,3.24,2.78,4.9,4.09,2.3,1.84,4.82,3.44,6.95,5.46,3.77,3.56,8.28,6,12.58,8.72,3.56,2.26,7.34,4.17,11.74,4.21a16.82,16.82,0,0,1,8.88,2.82,43,43,0,0,1,12.64,11.76,102,102,0,0,0,9,11,61.56,61.56,0,0,1,6.38,8.36c2.71,4.12,4.65,8.79,8.53,12.1a2.7,2.7,0,0,1,.53.95,9.93,9.93,0,0,0,1,1.91c2.41,2.86,4.81,5.71,7.32,8.46C277.7,379.81,282,384.32,286.22,388.87ZM226.53,367.5c-3.17-1.3-6-2.52-8.88-3.6a13.54,13.54,0,0,0-4.16-1c-5.9-.19-11.81-.43-17.71-.26a28.44,28.44,0,0,0-19.1,7.77,96.18,96.18,0,0,0-12.29,13.84,176.34,176.34,0,0,0-16.45,28.26,3,3,0,0,0-.15.59c2.81-2.31,5.46-4.6,8.23-6.74a38,38,0,0,1,5.84-3.88,14.59,14.59,0,0,1,5.17-1.42c5-.46,10-.81,15-1,7.66-.26,13.39-3.73,17.49-10.08.7-1.07,1.37-2.16,2-3.27a57.87,57.87,0,0,1,7.78-10.31,25.07,25.07,0,0,1,10.88-7C222.11,368.8,224.1,368.23,226.53,367.5ZM69.16,405l-.16.54c1.72,1.3,3.48,2.55,5.16,3.91a44.13,44.13,0,0,1,5.89,5.12c4.33,5.05,8.57,10.19,12.54,15.53a134.71,134.71,0,0,0,12.38,15,130.66,130.66,0,0,1,12.65,14.16,57.94,57.94,0,0,0,6.2,6.43,9.36,9.36,0,0,0,9.17,2.44,8.22,8.22,0,0,1,8.5,2.62,26.79,26.79,0,0,0,2.63,2.12l.49-.33c-1-2.89-1.78-5.88-3-8.67-4.86-10.88-12.22-20-20.93-27.93-6.72-6.16-13.64-12.08-20.44-18.14A65,65,0,0,0,83.78,407.5a20.9,20.9,0,0,0-5.48-1.65C75.27,405.41,72.21,405.28,69.16,405ZM302.61,103.8c.91.24,1.62.42,2.33.62l2.15.63c10.42,3.09,21,4.5,31.86,2.88a32.93,32.93,0,0,1,16.8,1.67c1.49.57,3,1.05,4.52,1.6a204.81,204.81,0,0,0,21.86,7.09c4.95,1.21,10,2.11,14.67,4.32a7.73,7.73,0,0,0,1.41.38.9.9,0,0,0-.42-.6c-6.85-4.11-13.67-8.26-20.54-12.33A187.49,187.49,0,0,0,351,96.61c-6.48-2.57-13-3.37-19.81-1.27C321.75,98.24,312.29,100.94,302.61,103.8ZM195.1,308.41c1,2.07,2.09,4.36,3.08,6.7,1.36,3.24,2.62,6.52,3.92,9.78a19.88,19.88,0,0,0,9.81,10.49c4.59,2.39,9.52,2.8,14.57,2.87a33.73,33.73,0,0,1,23.89,9.85l1.2,1.13.27-.26c-.87-1-1.77-1.91-2.61-2.91-3.33-3.94-6.92-7.7-9.87-11.9a42.93,42.93,0,0,0-12.06-11.47,15.5,15.5,0,0,0-8.25-2.68,18.84,18.84,0,0,1-9.27-2.67C204.79,314.41,199.88,311.29,195.1,308.41Zm25.61,159.22.09-.19a10.32,10.32,0,0,0-1.34-.4,55.56,55.56,0,0,1-15.32-5.34,36.39,36.39,0,0,0-11.47-3.29c-5.06-.7-9.27,1.27-13.29,3.88-3.8,2.46-5.76,6.49-8.1,10.15-1.2,1.89-2.09,4-3.12,6l.27.2c3.88-4.53,9.15-6.21,14.73-6.77,4.49-.44,9-.24,13.55-.34a37.35,37.35,0,0,0,5.89-.22c6.06-1.12,12.08-2.46,18.11-3.72Zm-91-357c.62,2.18,1.22,4.05,1.68,6a122.85,122.85,0,0,1,3.24,22.25,15.44,15.44,0,0,0,3.21,9,49.32,49.32,0,0,0,11.61,10.86,79.19,79.19,0,0,1,7.61,6c2,1.64,3.81,3.4,5.73,5.1a6,6,0,0,0,.94.57c-1.57-2.44-3.24-4.72-4.9-7-4.67-6.38-9-12.9-11.77-20.41-2.11-5.8-4.45-11.52-6.67-17.28a40.8,40.8,0,0,0-10.67-15.21ZM66.36,360.74c4.67-2.43,9.32-4.78,13.89-7.26a64.73,64.73,0,0,0,7.2-4.44c3.3-2.42,6.47-5,9.63-7.62,5.67-4.69,12.22-7.71,19-10.23.36-.14.7-.32,1-.48a2.42,2.42,0,0,0-1.32-.29,43.94,43.94,0,0,0-12.9,2.81c-7.14,2.87-13.65,7-20.36,10.67a30.89,30.89,0,0,0-10.38,8.62C70.25,355.22,68.34,358,66.36,360.74Z"/></g></g></svg>